<svg xmlns="http://www.w3.org/2000/svg" width="461.131" height="301.579" viewBox="0 0 461.131 301.579">
  <g id="Grupo_360" data-name="Grupo 360" transform="translate(-2126.4 -7702.954)">
    <g id="Grupo_88" data-name="Grupo 88">
      <g id="Grupo_87" data-name="Grupo 87">
        <g id="Grupo_84" data-name="Grupo 84">
          <path id="Trazado_389" data-name="Trazado 389" d="M2209.954,7959.247c8.3-5.794,11.092-12.932,12.037-23.009a35.5,35.5,0,0,0-9.826-27.731c-5.9-6.032-14.022-9.993-18.417-17.2-4.683-7.677-4.522-18.142-11.027-24.352-4.468-4.266-11-5.408-16.43-8.359-4.43-2.409-8.078-6-12.132-9s-8.863-5.488-13.891-5.111c-7.584.57-13.487,8.018-13.847,15.615s3.88,14.863,9.678,19.785c4.206,3.569,9.384,6.3,12.14,11.082,5.175,8.976-.232,21.448,5.325,30.193,4.058,6.386,13.256,9.443,14.533,16.9.47,2.743-.306,5.539-.284,8.322.066,8.7,8.2,15.713,16.765,17.256s17.305-1.14,25.376-4.394" fill="#f5f5f5"/>
        </g>
        <g id="Grupo_86" data-name="Grupo 86">
          <g id="Grupo_85" data-name="Grupo 85">
            <path id="Trazado_390" data-name="Trazado 390" d="M2156.7,7875.068a6.736,6.736,0,0,0,.913,1.019l2.752,2.766c1.218,1.178,2.684,2.64,4.28,4.441,1.611,1.785,3.537,3.732,5.423,6.1l3.04,3.646c1.05,1.273,2.038,2.681,3.12,4.091,2.2,2.793,4.276,5.98,6.522,9.285a167.9,167.9,0,0,1,21.234,47.252c.98,3.874,1.987,7.54,2.613,11.043.336,1.745.733,3.419.987,5.049s.482,3.2.709,4.694c.519,2.983.7,5.717.962,8.107.286,2.389.406,4.456.478,6.147.1,1.607.18,2.9.241,3.9a6.678,6.678,0,0,0,.156,1.358,6.8,6.8,0,0,0,.054-1.361c-.012-1-.027-2.3-.046-3.909-.01-1.7-.072-3.776-.3-6.179-.211-2.4-.338-5.153-.813-8.156q-.309-2.263-.645-4.727c-.235-1.642-.614-3.328-.933-5.086-.593-3.529-1.573-7.223-2.534-11.127a162.386,162.386,0,0,0-21.357-47.525c-2.281-3.31-4.392-6.5-6.637-9.281-1.1-1.407-2.112-2.809-3.184-4.075l-3.1-3.621c-1.93-2.349-3.9-4.27-5.56-6.024s-3.155-3.194-4.419-4.329l-2.892-2.631A6.8,6.8,0,0,0,2156.7,7875.068Z" fill="#e0e0e0"/>
          </g>
        </g>
      </g>
    </g>
    <g id="Grupo_104" data-name="Grupo 104">
      <g id="Grupo_89" data-name="Grupo 89">
        <path id="Trazado_391" data-name="Trazado 391" d="M2582.031,7810.392s-7.3-4.825-16.2,12.632-12.268,27.526-12.268,27.526-2.352,3.657-4.864,1.267-5.954-9.174-10.224-7.952c-4.43,1.266-5.888,6.209-5.044,13.473s2.111,23.245,2.22,24.691c.107,1.419-.705,3.51-2.678,2.155s-13.32-13.992-19-8.248,0,25.592.583,27.774.152,3.114-.884,3.654-4.451-4.068-7.825-7.53-7.9-6.885-10.892-3.3-3.954,18.481,10.219,42.672l7.3,10.779,13.056-.724c27.848-3.254,39.16-12.988,40.22-17.541s-4.394-6.1-9.19-6.709-10.531-.56-10.724-1.712.294-2.055,2.384-2.906,21.356-8.273,22.524-16.262-15.755-9.437-18.024-10.2-1.09-2.667.108-3.436c1.219-.784,14.741-9.4,21.048-13.1s9.375-7.841,7.719-12.14c-1.6-4.145-9.084-2.807-12.506-3.373s-1.918-4.646-1.918-4.646,6.008-8.755,14.586-26.371.109-20.569.109-20.569" fill="#ebebeb"/>
      </g>
      <g id="Grupo_91" data-name="Grupo 91">
        <g id="Grupo_90" data-name="Grupo 90">
          <path id="Trazado_392" data-name="Trazado 392" d="M2574.036,7826.013s-.048.131-.161.378-.291.624-.51,1.092c-.464.972-1.135,2.378-2,4.182-1.737,3.629-4.289,8.863-7.467,15.318-6.351,12.913-15.274,30.677-25.192,50.264s-18.884,37.337-25.3,50.216l-7.583,15.26c-.89,1.789-1.584,3.184-2.064,4.147-.234.461-.416.818-.546,1.075-.125.241-.2.36-.2.36s.049-.131.162-.378.291-.624.51-1.092c.463-.972,1.135-2.378,2-4.181,1.738-3.629,4.289-8.863,7.467-15.318,6.351-12.913,15.275-30.678,25.2-50.272s18.88-37.328,25.3-50.208c3.2-6.432,5.784-11.642,7.582-15.26.891-1.79,1.585-3.185,2.065-4.148.234-.461.416-.818.546-1.075C2573.963,7826.132,2574.036,7826.013,2574.036,7826.013Z" fill="#e0e0e0"/>
        </g>
      </g>
      <g id="Grupo_93" data-name="Grupo 93">
        <g id="Grupo_92" data-name="Grupo 92">
          <path id="Trazado_393" data-name="Trazado 393" d="M2542.911,7853.546a4.3,4.3,0,0,1,.328.884c.189.575.436,1.414.733,2.455.59,2.081,1.331,4.977,2.091,8.186.738,3.169,1.406,6.034,1.916,8.225.237.986.436,1.819.6,2.488a4.267,4.267,0,0,1,.184.923,4.174,4.174,0,0,1-.335-.881c-.187-.576-.436-1.416-.722-2.459-.569-2.088-1.272-4.992-2.032-8.2-.76-3.161-1.448-6.02-1.974-8.208-.241-.985-.445-1.817-.609-2.485A4.217,4.217,0,0,1,2542.911,7853.546Z" fill="#e0e0e0"/>
        </g>
      </g>
      <g id="Grupo_95" data-name="Grupo 95">
        <g id="Grupo_94" data-name="Grupo 94">
          <path id="Trazado_394" data-name="Trazado 394" d="M2549.954,7876.939c-.03-.108,5.872-1.9,13.182-4s13.264-3.719,13.295-3.612-5.87,1.9-13.183,4S2549.985,7877.046,2549.954,7876.939Z" fill="#e0e0e0"/>
        </g>
      </g>
      <g id="Grupo_97" data-name="Grupo 97">
        <g id="Grupo_96" data-name="Grupo 96">
          <path id="Trazado_395" data-name="Trazado 395" d="M2533.365,7906.335a4.411,4.411,0,0,1,.961-.044l2.612.009c2.206.005,5.252,0,8.612-.133s6.4-.34,8.6-.515l2.6-.2a4.5,4.5,0,0,1,.961-.03,4.339,4.339,0,0,1-.944.186c-.611.093-1.5.211-2.595.333-2.2.248-5.239.511-8.61.635s-6.425.092-8.632.014c-1.1-.043-2-.088-2.613-.138A4.394,4.394,0,0,1,2533.365,7906.335Z" fill="#e0e0e0"/>
        </g>
      </g>
      <g id="Grupo_99" data-name="Grupo 99">
        <g id="Grupo_98" data-name="Grupo 98">
          <path id="Trazado_396" data-name="Trazado 396" d="M2522.337,7886.579a3.815,3.815,0,0,1,.51.729q.513.842,1.259,2.061c1.049,1.75,2.473,4.18,4.024,6.877s2.936,5.152,3.921,6.938l1.149,2.125a.446.446,0,1,1-.137.079l-1.259-2.062c-1.049-1.749-2.473-4.18-4.025-6.878s-2.936-5.15-3.921-6.936q-.678-1.258-1.148-2.126A3.8,3.8,0,0,1,2522.337,7886.579Z" fill="#e0e0e0"/>
        </g>
      </g>
      <g id="Grupo_101" data-name="Grupo 101">
        <g id="Grupo_100" data-name="Grupo 100">
          <path id="Trazado_397" data-name="Trazado 397" d="M2504.4,7910.671a6.23,6.23,0,0,1,.643.938l1.624,2.636c1.356,2.235,3.2,5.336,5.226,8.773s3.833,6.563,5.126,8.835l1.513,2.7a.57.57,0,1,1-.136.079l-1.624-2.635c-1.356-2.235-3.206-5.336-5.227-8.775s-3.832-6.561-5.125-8.833c-.61-1.09-1.119-2-1.513-2.7A5.967,5.967,0,0,1,2504.4,7910.671Z" fill="#e0e0e0"/>
        </g>
      </g>
      <g id="Grupo_103" data-name="Grupo 103">
        <g id="Grupo_102" data-name="Grupo 102">
          <path id="Trazado_398" data-name="Trazado 398" d="M2518.852,7934.878a7.079,7.079,0,0,1,1.215-.087l3.313-.108c2.8-.094,6.659-.239,10.918-.519s8.111-.624,10.9-.9l3.3-.32a.61.61,0,1,1,.019.156c-.774.121-1.9.278-3.287.449-2.78.345-6.632.741-10.9,1.015s-8.138.381-10.939.4c-1.4.007-2.535,0-3.318-.02A6.978,6.978,0,0,1,2518.852,7934.878Z" fill="#e0e0e0"/>
        </g>
      </g>
    </g>
    <g id="Grupo_113" data-name="Grupo 113">
      <g id="Grupo_106" data-name="Grupo 106">
        <g id="Grupo_105" data-name="Grupo 105">
          <path id="Trazado_399" data-name="Trazado 399" d="M2424.736,7722.554h52.526a4.141,4.141,0,0,1,4.14,4.141v34.8a4.141,4.141,0,0,1-4.14,4.141H2449.6l-13.148,13.148V7765.64h-11.717a3.07,3.07,0,0,1-3.07-3.07v-36.946A3.07,3.07,0,0,1,2424.736,7722.554Z" fill="#e0e0e0"/>
        </g>
      </g>
      <g id="Grupo_108" data-name="Grupo 108">
        <g id="Grupo_107" data-name="Grupo 107">
          <path id="Trazado_400" data-name="Trazado 400" d="M2442.163,7744.827a3.091,3.091,0,1,1-3.091-3.091A3.09,3.09,0,0,1,2442.163,7744.827Z" fill="#fafafa"/>
        </g>
      </g>
      <g id="Grupo_110" data-name="Grupo 110">
        <g id="Grupo_109" data-name="Grupo 109">
          <path id="Trazado_401" data-name="Trazado 401" d="M2454.388,7744.827a3.091,3.091,0,1,1-3.091-3.091A3.091,3.091,0,0,1,2454.388,7744.827Z" fill="#fafafa"/>
        </g>
      </g>
      <g id="Grupo_112" data-name="Grupo 112">
        <g id="Grupo_111" data-name="Grupo 111">
          <path id="Trazado_402" data-name="Trazado 402" d="M2466.613,7744.827a3.091,3.091,0,1,1-3.091-3.091A3.091,3.091,0,0,1,2466.613,7744.827Z" fill="#fafafa"/>
        </g>
      </g>
    </g>
    <g id="Grupo_137" data-name="Grupo 137">
      <g id="Grupo_116" data-name="Grupo 116">
        <g id="Grupo_115" data-name="Grupo 115">
          <g id="Grupo_114" data-name="Grupo 114">
            <path id="Trazado_403" data-name="Trazado 403" d="M2510.095,7985.332c-13.141-12.777-13.372-32.557-9.968-49.748.568-2.87.747-5.964,2.532-8.272s5.27-3.516,7.656-1.879c1.979,1.358,2.506,4,3.369,6.26a17.1,17.1,0,0,0,5.714,7.566c1.682,1.253,3.861,2.207,5.838,1.5,2.713-.968,3.566-4.359,4.016-7.232q1.257-8.032,2.515-16.063a27.139,27.139,0,0,1,2.255-8.383c1.337-2.578,3.722-4.787,6.576-5.107s5.975,1.8,6.094,4.708a27.01,27.01,0,0,1-.5,3.587,3.056,3.056,0,0,0,1.3,3.129c1.091.523,2.372-.1,3.366-.8,3.435-2.415,6.053-5.821,8.537-9.227s4.926-6.909,8.129-9.632,7.329-4.621,11.477-4.184,8.114,3.687,8.5,7.891-2.647,7.937-5.75,10.793a64.869,64.869,0,0,1-15.41,10.541,5.348,5.348,0,0,0-2.622,2.035c-.935,1.812.568,4.008,2.355,4.945,2.023,1.061,4.38,1.217,6.575,1.845s4.458,2.01,4.96,4.263c.7,3.125-2.257,5.8-5,7.42a55.583,55.583,0,0,1-17.77,6.729c-2.236.429-4.569.744-6.513,1.95s-3.392,3.618-2.693,5.807,3.234,3.269,5.512,3.218,4.453-.927,6.69-1.379c4.187-.846,9.236.256,11.207,4.077a9.2,9.2,0,0,1-.342,8.188,21.215,21.215,0,0,1-5.507,6.384,55.923,55.923,0,0,1-26.262,12.72c-9.666,1.681-18.283,1.158-26.834-3.649" fill="#00c2db"/>
          </g>
        </g>
      </g>
      <g id="Grupo_120" data-name="Grupo 120">
        <g id="Grupo_119" data-name="Grupo 119">
          <g id="Grupo_118" data-name="Grupo 118">
            <g id="Grupo_117" data-name="Grupo 117">
              <path id="Trazado_404" data-name="Trazado 404" d="M2507.78,7998.111a127.638,127.638,0,0,1,8.544-22.889,260.352,260.352,0,0,1,14.72-26.023q2.132-3.354,4.209-6.623c1.386-2.171,2.761-4.324,4.236-6.346a129.972,129.972,0,0,1,9.14-11.136c3.079-3.4,6.124-6.517,8.993-9.409s5.608-5.528,8.2-7.829a103.051,103.051,0,0,1,13.028-9.935c1.624-1.049,2.91-1.821,3.79-2.332l1-.576a2.212,2.212,0,0,1,.35-.18,2.05,2.05,0,0,1-.322.228c-.243.154-.566.359-.976.621-.861.541-2.128,1.341-3.733,2.415a109.186,109.186,0,0,0-12.891,10.045c-2.569,2.312-5.278,4.962-8.136,7.86s-5.883,6.026-8.944,9.427a131.754,131.754,0,0,0-9.08,11.112c-1.463,2.014-2.824,4.149-4.212,6.326s-2.785,4.386-4.205,6.621a267.241,267.241,0,0,0-14.729,25.951,129.844,129.844,0,0,0-8.62,22.769" fill="#263238"/>
            </g>
          </g>
        </g>
      </g>
      <g id="Grupo_124" data-name="Grupo 124">
        <g id="Grupo_123" data-name="Grupo 123">
          <g id="Grupo_122" data-name="Grupo 122">
            <g id="Grupo_121" data-name="Grupo 121">
              <path id="Trazado_405" data-name="Trazado 405" d="M2539.643,7936.234a5.858,5.858,0,0,1-.081-1.27c-.022-.818-.013-2,.018-3.464.06-2.923.28-6.958.54-11.4s.423-8.476.438-11.392c.012-1.458.01-2.639,0-3.455a5.878,5.878,0,0,1,.043-1.272,5.767,5.767,0,0,1,.165,1.262c.076.814.137,2,.172,3.46.083,2.926-.02,6.971-.281,11.425-.268,4.388-.511,8.358-.7,11.391-.075,1.371-.138,2.526-.188,3.453A5.884,5.884,0,0,1,2539.643,7936.234Z" fill="#263238"/>
            </g>
          </g>
        </g>
      </g>
      <g id="Grupo_128" data-name="Grupo 128">
        <g id="Grupo_127" data-name="Grupo 127">
          <g id="Grupo_126" data-name="Grupo 126">
            <g id="Grupo_125" data-name="Grupo 125">
              <path id="Trazado_406" data-name="Trazado 406" d="M2577.665,7935.351a8.1,8.1,0,0,1-1.5-.063c-.961-.07-2.35-.179-4.07-.259-3.439-.186-8.2-.276-13.454-.146s-10.009.468-13.439.805c-1.717.156-3.1.32-4.062.427a7.921,7.921,0,0,1-1.5.119,8.067,8.067,0,0,1,1.469-.328c.952-.171,2.334-.393,4.051-.6,3.43-.435,8.194-.825,13.467-.966a131.956,131.956,0,0,1,13.49.307c1.723.129,3.112.295,4.068.431A7.867,7.867,0,0,1,2577.665,7935.351Z" fill="#263238"/>
            </g>
          </g>
        </g>
      </g>
      <g id="Grupo_132" data-name="Grupo 132">
        <g id="Grupo_131" data-name="Grupo 131">
          <g id="Grupo_130" data-name="Grupo 130">
            <g id="Grupo_129" data-name="Grupo 129">
              <path id="Trazado_407" data-name="Trazado 407" d="M2516.888,7974.618a1.96,1.96,0,0,1-.18-.492c-.112-.388-.248-.863-.413-1.437-.354-1.25-.818-3.073-1.362-5.332-1.092-4.517-2.4-10.8-3.756-17.761s-2.6-13.251-3.6-17.784c-.491-2.205-.9-4.019-1.195-5.367-.127-.584-.231-1.066-.317-1.462a.264.264,0,1,1,.1-.027c.112.388.248.862.413,1.436.354,1.25.818,3.073,1.362,5.332,1.092,4.517,2.4,10.8,3.756,17.764s2.6,13.248,3.6,17.782c.492,2.2.9,4.019,1.2,5.366.127.584.231,1.067.317,1.462A1.969,1.969,0,0,1,2516.888,7974.618Z" fill="#263238"/>
            </g>
          </g>
        </g>
      </g>
      <g id="Grupo_136" data-name="Grupo 136">
        <g id="Grupo_135" data-name="Grupo 135">
          <g id="Grupo_134" data-name="Grupo 134">
            <g id="Grupo_133" data-name="Grupo 133">
              <path id="Trazado_408" data-name="Trazado 408" d="M2568.5,7966.805a2,2,0,0,1-.52.122l-1.5.245-5.529.846c-4.667.715-11.1,1.777-18.212,2.96s-13.563,2.187-18.246,2.806c-2.342.31-4.239.542-5.553.675l-1.515.145a2.025,2.025,0,0,1-.532.014,1.994,1.994,0,0,1,.519-.123l1.5-.244,5.527-.846c4.667-.714,11.1-1.777,18.215-2.96s13.56-2.188,18.244-2.806c2.342-.311,4.239-.542,5.554-.675l1.514-.145A1.967,1.967,0,0,1,2568.5,7966.805Z" fill="#263238"/>
            </g>
          </g>
        </g>
      </g>
    </g>
    <g id="Grupo_147" data-name="Grupo 147">
      <g id="Grupo_138" data-name="Grupo 138">
        <path id="Trazado_409" data-name="Trazado 409" d="M2157.08,7924.98a15.961,15.961,0,0,1,12.306,2.19,28.182,28.182,0,0,1,8.757,9.254c4.393,7.03,5.9,16.452,6.05,24.741-9.2-.425-17.016-7.7-20.75-11.64-5.9-6.227-12.79-21.066-6.363-24.545" fill="#00c2db"/>
      </g>
      <g id="Grupo_139" data-name="Grupo 139">
        <path id="Trazado_410" data-name="Trazado 410" d="M2198.963,7966.793a13.62,13.62,0,0,1-4.608-12.874,18.089,18.089,0,0,1,7.851-11.561c1.833-1.24,4.1-2.22,6.22-1.583a5.825,5.825,0,0,1,3.742,4.565,11.814,11.814,0,0,1-.744,6.088c-2.359,6.692-5.871,12.734-12.461,15.365" fill="#00c2db"/>
      </g>
      <g id="Grupo_141" data-name="Grupo 141">
        <g id="Grupo_140" data-name="Grupo 140">
          <path id="Trazado_411" data-name="Trazado 411" d="M2207.32,7993.026a6.238,6.238,0,0,1-.916-1.483c-.534-.982-1.279-2.417-2.145-4.22a58.451,58.451,0,0,1-5.1-14.8,29.294,29.294,0,0,1,1.238-15.573,19.153,19.153,0,0,1,2.249-4.209,5.357,5.357,0,0,1,1.144-1.322c.159.1-1.48,2.025-2.777,5.758a30.736,30.736,0,0,0-.94,15.186,67.756,67.756,0,0,0,4.78,14.689A53.122,53.122,0,0,1,2207.32,7993.026Z" fill="#263238"/>
        </g>
      </g>
      <g id="Grupo_143" data-name="Grupo 143">
        <g id="Grupo_142" data-name="Grupo 142">
          <path id="Trazado_412" data-name="Trazado 412" d="M2163.322,7935.816a17,17,0,0,1,1.995,2.069c1.239,1.37,3,3.381,5.147,5.89,4.3,5.016,10.118,12.044,16.355,19.961s11.7,15.23,15.574,20.583c1.935,2.676,3.478,4.857,4.519,6.384a16.992,16.992,0,0,1,1.543,2.422,16.9,16.9,0,0,1-1.835-2.209l-4.755-6.206c-4-5.249-9.546-12.486-15.776-20.4s-11.965-15-16.13-20.115l-4.918-6.078A17.017,17.017,0,0,1,2163.322,7935.816Z" fill="#263238"/>
        </g>
      </g>
      <g id="Grupo_144" data-name="Grupo 144">
        <path id="Trazado_413" data-name="Trazado 413" d="M2192.753,7977.015a31.855,31.855,0,0,0-28.575-5.542c-2.46.739-5.187,2.241-5.435,4.8s2.155,4.566,4.46,5.711a27.218,27.218,0,0,0,29.884-4.356" fill="#00c2db"/>
      </g>
      <g id="Grupo_146" data-name="Grupo 146">
        <g id="Grupo_145" data-name="Grupo 145">
          <path id="Trazado_414" data-name="Trazado 414" d="M2170.29,7976.154a5.707,5.707,0,0,1,1.6-.479,13.305,13.305,0,0,1,1.924-.356,22.316,22.316,0,0,1,2.583-.262,33.51,33.51,0,0,1,6.757.295,35.827,35.827,0,0,1,15.313,6.058,33.512,33.512,0,0,1,5.13,4.407,22.362,22.362,0,0,1,1.7,1.959,13.4,13.4,0,0,1,1.16,1.575,5.714,5.714,0,0,1,.838,1.443c-.148.106-1.46-1.874-4.168-4.514a37.424,37.424,0,0,0-5.147-4.163,37.848,37.848,0,0,0-14.962-5.919,37.355,37.355,0,0,0-6.6-.485C2172.638,7975.785,2170.326,7976.332,2170.29,7976.154Z" fill="#263238"/>
        </g>
      </g>
    </g>
    <g id="Grupo_152" data-name="Grupo 152">
      <g id="Grupo_148" data-name="Grupo 148">
        <path id="Trazado_415" data-name="Trazado 415" d="M2296.143,7727.725l-6.417,5.364-3.121-1.39-.644-2.645s6.9-5.087,6.636-5.358a4.006,4.006,0,0,0-2.368-1.088,6.338,6.338,0,0,0-4.649,1.249l-1.213.9a7.44,7.44,0,0,0-2.929,7.219c.027.152.046.236.046.236l-19.027,15.81a6.136,6.136,0,1,0,4.045,4.487l18.814-15.795a4.009,4.009,0,0,0,2.705.983,7.016,7.016,0,0,0,5.1-2.069l1.587-1.553A6.385,6.385,0,0,0,2296.143,7727.725Zm-36.755,28.673a2.806,2.806,0,1,1,3.705-1.422A2.806,2.806,0,0,1,2259.388,7756.4Z" fill="#00c2db"/>
      </g>
      <g id="Grupo_151" data-name="Grupo 151">
        <g id="Grupo_150" data-name="Grupo 150">
          <g id="Grupo_149" data-name="Grupo 149">
            <path id="Trazado_416" data-name="Trazado 416" d="M2324.952,7764.22l-20.494,1.717.075-.039a38.069,38.069,0,0,1-28.5,13.656,39.789,39.789,0,0,1-13.284-2.1,38,38,0,0,1-12.578-7.261,38.317,38.317,0,0,1-13.2-28.079,14.237,14.237,0,0,1,.021-2.1q.052-1.05.106-2.106a17.585,17.585,0,0,1,.263-2.1l.321-2.1c.145-.695.345-1.381.516-2.074.192-.687.325-1.394.566-2.069l.74-2.024.372-1.015c.122-.339.3-.654.453-.983a38.8,38.8,0,0,1,9.75-13.125,38.255,38.255,0,0,1,59.709,12.371,20.164,20.164,0,0,1,1.131,2.6c.316.878.644,1.739.935,2.6a41.172,41.172,0,0,1,1.149,5.142c.116.842.277,1.666.349,2.484q.06,1.23.117,2.418.029.594.057,1.176c-.006.388-.034.772-.049,1.153q-.055,1.142-.108,2.237l-.016-.068,11.592,19.689-11.788-19.572-.018-.029,0-.04q.048-1.089.1-2.224c.014-.378.04-.76.045-1.146-.021-.385-.041-.775-.062-1.168q-.062-1.179-.126-2.4c-.074-.812-.238-1.629-.355-2.465a41.048,41.048,0,0,0-1.158-5.1c-.291-.851-.62-1.7-.936-2.575a19.894,19.894,0,0,0-1.13-2.579,37.843,37.843,0,0,0-59.174-12.2,38.456,38.456,0,0,0-9.645,12.989c-.147.325-.327.637-.448.973l-.368,1q-.366,1-.733,2c-.238.668-.369,1.368-.559,2.048-.169.685-.368,1.363-.511,2.051l-.318,2.082a17.165,17.165,0,0,0-.261,2.077q-.053,1.046-.106,2.084a13.98,13.98,0,0,0-.021,2.074,37.954,37.954,0,0,0,25.489,35.015,39.512,39.512,0,0,0,13.163,2.109,38.035,38.035,0,0,0,11.941-2.144,38.432,38.432,0,0,0,16.394-11.326l.03-.035.045,0Z" fill="#263238"/>
          </g>
        </g>
      </g>
    </g>
    <g id="Grupo_189" data-name="Grupo 189">
      <g id="Grupo_184" data-name="Grupo 184">
        <g id="Grupo_167" data-name="Grupo 167">
          <g id="Grupo_166" data-name="Grupo 166">
            <g id="Grupo_155" data-name="Grupo 155">
              <g id="Grupo_154" data-name="Grupo 154">
                <g id="Grupo_153" data-name="Grupo 153">
                  <rect id="Rectángulo_58" data-name="Rectángulo 58" width="312.172" height="206.436" rx="14.567" transform="translate(2202.318 7795.302)" fill="#455a64"/>
                </g>
              </g>
            </g>
            <g id="Grupo_158" data-name="Grupo 158">
              <g id="Grupo_157" data-name="Grupo 157">
                <g id="Grupo_156" data-name="Grupo 156">
                  <path id="Rectángulo_59" data-name="Rectángulo 59" d="M0,0H338.214a0,0,0,0,1,0,0V.265a17.8,17.8,0,0,1-17.8,17.8H17.8A17.8,17.8,0,0,1,0,.265V0A0,0,0,0,1,0,0Z" transform="translate(2189.699 7986.47)" fill="#455a64"/>
                </g>
              </g>
            </g>
            <g id="Grupo_161" data-name="Grupo 161">
              <g id="Grupo_160" data-name="Grupo 160">
                <g id="Grupo_159" data-name="Grupo 159">
                  <rect id="Rectángulo_60" data-name="Rectángulo 60" width="294.54" height="174.332" transform="translate(2211.134 7803.504)" fill="#f5f5f5"/>
                </g>
              </g>
            </g>
            <g id="Grupo_165" data-name="Grupo 165">
              <g id="Grupo_164" data-name="Grupo 164">
                <g id="Grupo_163" data-name="Grupo 163">
                  <g id="Grupo_162" data-name="Grupo 162">
                    <path id="Trazado_417" data-name="Trazado 417" d="M2328.066,7986.47c-.006,0,.1-.006.325-.01l.99-.009c.9-.006,2.19-.013,3.847-.022l14.271-.058,47.718-.1h.352l-.178.3c-.6,1.029-1.245,2.134-1.894,3.245l-2,3.431-.059.1h-.116l-59.056-.111h-.051l-.026-.042-3.093-5.03-.777-1.274c-.173-.283-.25-.421-.25-.421s.106.154.293.442.47.726.826,1.277l3.155,4.908-.077-.042,59.056-.111-.174.1,2-3.431c.649-1.111,1.294-2.216,1.894-3.245l.175.3-47.523-.1-14.338-.058-3.906-.022-1.024-.01C2328.194,7986.477,2328.066,7986.47,2328.066,7986.47Z" fill="#263238"/>
                  </g>
                </g>
              </g>
            </g>
          </g>
        </g>
        <g id="Grupo_183" data-name="Grupo 183">
          <g id="Grupo_169" data-name="Grupo 169">
            <g id="Grupo_168" data-name="Grupo 168">
              <path id="Trazado_418" data-name="Trazado 418" d="M2318.914,7835.934a10.019,10.019,0,0,1,1.871-1.91l-.446-2.44,3.774-1.61,1.453,2.009a10.039,10.039,0,0,1,2.674-.029l1.41-2.039,3.806,1.53-.393,2.447a10.054,10.054,0,0,1,1.911,1.871l2.439-.445,1.61,3.773-2.009,1.453a10.037,10.037,0,0,1,.029,2.674l2.039,1.41-1.529,3.806-2.447-.393a10.06,10.06,0,0,1-1.872,1.911l.445,2.439-3.773,1.61-1.453-2.009a10.057,10.057,0,0,1-2.674.029l-1.41,2.039-3.806-1.529.393-2.447a10.059,10.059,0,0,1-1.911-1.872l-2.439.445-1.61-3.773,2.009-1.453a10.051,10.051,0,0,1-.029-2.674l-2.039-1.409,1.529-3.807,2.448.393Zm4.081,4.24a4.4,4.4,0,1,0,5.725-2.443A4.4,4.4,0,0,0,2323,7840.174Z" fill="#e0e0e0" fill-rule="evenodd"/>
            </g>
          </g>
          <g id="Grupo_171" data-name="Grupo 171">
            <g id="Grupo_170" data-name="Grupo 170">
              <path id="Trazado_419" data-name="Trazado 419" d="M2303.621,7915.055a29.152,29.152,0,0,1,5.422-5.536l-1.291-7.068,10.934-4.665,4.21,5.821a29.155,29.155,0,0,1,7.749-.085l4.084-5.908,11.03,4.433-1.139,7.09a29.127,29.127,0,0,1,5.536,5.423l7.068-1.29,4.665,10.933-5.821,4.211a29.157,29.157,0,0,1,.084,7.748l5.908,4.084-4.431,11.03-7.091-1.139a29.12,29.12,0,0,1-5.423,5.536l1.29,7.068-10.933,4.666-4.211-5.823a29.086,29.086,0,0,1-7.748.085l-4.084,5.909-11.03-4.432,1.139-7.091a29.116,29.116,0,0,1-5.536-5.423l-7.068,1.29-4.665-10.933,5.822-4.211a29.1,29.1,0,0,1-.085-7.748l-5.909-4.084,4.432-11.03,7.092,1.139Zm11.827,12.286a12.752,12.752,0,1,0,16.586-7.079A12.751,12.751,0,0,0,2315.448,7927.341Z" fill="#f5f5f5" fill-rule="evenodd"/>
            </g>
          </g>
          <g id="Grupo_180" data-name="Grupo 180">
            <g id="Grupo_173" data-name="Grupo 173">
              <g id="Grupo_172" data-name="Grupo 172">
                <path id="Trazado_420" data-name="Trazado 420" d="M2248.372,7929.781a16.108,16.108,0,0,1,3-3.063l-.714-3.91,6.049-2.581,2.329,3.22a16.163,16.163,0,0,1,4.287-.047l2.26-3.268,6.1,2.452-.63,3.922a16.143,16.143,0,0,1,3.063,3l3.91-.714,2.581,6.049-3.221,2.329a16.092,16.092,0,0,1,.047,4.287l3.269,2.26-2.452,6.1-3.923-.63a16.109,16.109,0,0,1-3,3.063l.714,3.91-6.049,2.581-2.33-3.221a16.074,16.074,0,0,1-4.286.047l-2.26,3.269-6.1-2.452.63-3.923a16.087,16.087,0,0,1-3.063-3l-3.91.713-2.581-6.048,3.221-2.33a16.077,16.077,0,0,1-.047-4.287l-3.269-2.259,2.452-6.1,3.923.63Zm6.544,6.8a7.055,7.055,0,1,0,9.176-3.916A7.053,7.053,0,0,0,2254.916,7936.578Z" fill="none"/>
              </g>
            </g>
            <g id="Grupo_176" data-name="Grupo 176">
              <g id="Grupo_175" data-name="Grupo 175">
                <g id="Grupo_174" data-name="Grupo 174">
                  <path id="Trazado_421" data-name="Trazado 421" d="M2254.916,7936.578a5.33,5.33,0,0,1,.783-1.563,7.03,7.03,0,0,1,3.855-2.74,7.118,7.118,0,0,1,3.316-.147,7.214,7.214,0,0,1,3.416,1.689,7.231,7.231,0,0,1,2.194,3.59,7.2,7.2,0,0,1-3.2,7.956,7.225,7.225,0,0,1-4.069,1.075,7.221,7.221,0,0,1-3.635-1.144,7.105,7.105,0,0,1-2.293-2.4,7.028,7.028,0,0,1-.887-4.646,5.332,5.332,0,0,1,.516-1.669,17.265,17.265,0,0,0-.36,1.691,7.034,7.034,0,0,0,.977,4.477,6.892,6.892,0,0,0,5.7,3.32,6.9,6.9,0,0,0,3.847-1.039,6.833,6.833,0,0,0,3.021-7.521,6.887,6.887,0,0,0-2.058-3.412,6.9,6.9,0,0,0-6.408-1.543,7.039,7.039,0,0,0-3.8,2.557C2255.164,7936,2254.961,7936.6,2254.916,7936.578Z" fill="#263238"/>
                </g>
              </g>
            </g>
            <g id="Grupo_179" data-name="Grupo 179">
              <g id="Grupo_178" data-name="Grupo 178">
                <g id="Grupo_177" data-name="Grupo 177">
                  <path id="Trazado_422" data-name="Trazado 422" d="M2248.372,7929.781a1.465,1.465,0,0,1-.247-.025l-.745-.1-2.941-.437.069-.04c-.618,1.566-1.432,3.625-2.416,6.116l-.037-.122,3.278,2.246.059.04-.009.072a16.113,16.113,0,0,0,.061,4.253l.012.079-.066.048-3.214,2.339.048-.174,2.595,6.043-.175-.094,3.909-.722.1-.018.063.08a16,16,0,0,0,3.035,2.963l.085.063-.017.1c-.193,1.216-.407,2.557-.624,3.923l-.111-.195c1.918.767,3.986,1.595,6.1,2.444l-.225.068,2.256-3.271.067-.1.115.014a15.992,15.992,0,0,0,4.235-.05l.117-.017.07.1,2.331,3.22-.238-.066,6.048-2.584-.119.221c-.226-1.235-.469-2.568-.715-3.91l-.022-.12.1-.076a15.954,15.954,0,0,0,2.96-3.021l0,0,.075-.1.119.019,3.923.631-.219.124,2.453-6.1.072.239-3.268-2.261-.1-.068.014-.119a15.908,15.908,0,0,0-.043-4.234l-.017-.118.1-.069,3.222-2.327-.064.231-2.575-6.051.2.11-3.911.709-.108.02-.067-.087a15.977,15.977,0,0,0-3.025-2.971l-.085-.064.017-.1c.219-1.345.43-2.649.637-3.922l.1.183-6.1-2.465.185-.055c-.8,1.147-1.546,2.224-2.267,3.263l-.051.072-.086-.011a16.056,16.056,0,0,0-4.251.035l-.08.011-.046-.065-2.319-3.228.144.04-6.06,2.554.053-.1c.275,1.564.5,2.847.689,3.915l.007.04-.031.024a16.645,16.645,0,0,0-2.351,2.2l-.516.608a1.625,1.625,0,0,1-.173.2,1.98,1.98,0,0,1,.147-.221c.1-.142.263-.356.492-.631a15.558,15.558,0,0,1,2.321-2.262l-.024.063c-.2-1.066-.444-2.346-.739-3.906l-.014-.071.068-.029c1.7-.737,3.7-1.6,6.037-2.607l.087-.038.057.078,2.34,3.212-.127-.053a16.293,16.293,0,0,1,4.324-.06l-.137.062,2.251-3.274.07-.1.116.046,6.107,2.44.124.05-.021.133c-.2,1.273-.41,2.578-.623,3.923l-.068-.168a16.319,16.319,0,0,1,3.1,3.03l-.176-.067,3.909-.719.147-.027.058.137,2.587,6.046.061.141-.125.091-3.219,2.332.079-.187a16.314,16.314,0,0,1,.05,4.339l-.084-.187,3.27,2.258.131.091-.059.148q-1.209,3.009-2.45,6.1l-.061.15-.159-.026-3.923-.63.194-.078,0,0a16.34,16.34,0,0,1-3.036,3.1l.074-.2.713,3.911.029.158-.147.063-6.05,2.578-.146.063-.093-.129-2.327-3.222.186.079a16.365,16.365,0,0,1-4.338.044l.182-.082c-.785,1.132-1.558,2.249-2.263,3.267l-.086.124-.139-.057-6.1-2.459-.134-.054.023-.142c.221-1.365.439-2.706.636-3.921l.068.167a16.348,16.348,0,0,1-3.091-3.038l.162.062-3.912.706-.125.023-.05-.117c-.9-2.125-1.758-4.148-2.567-6.054l-.045-.107.093-.067,3.228-2.32-.054.126a16.239,16.239,0,0,1-.033-4.32l.05.112-3.259-2.272-.068-.048.031-.075,2.487-6.088.02-.049.05.009,2.905.5.75.137A2,2,0,0,1,2248.372,7929.781Z" fill="#263238"/>
                </g>
              </g>
            </g>
          </g>
          <g id="Grupo_182" data-name="Grupo 182">
            <g id="Grupo_181" data-name="Grupo 181">
              <path id="Trazado_423" data-name="Trazado 423" d="M2233.432,7849.044a40.154,40.154,0,0,1,4.991-9.448l-4.484-8.835,12.615-10.465,7.854,6.039a40.171,40.171,0,0,1,10.208-3.159l3.075-9.413,16.32,1.521,1.283,9.818a40.132,40.132,0,0,1,9.449,4.992l8.835-4.484,10.464,12.616L2308,7846.08a40.134,40.134,0,0,1,3.158,10.208l9.415,3.075-1.521,16.32-9.819,1.283a40.177,40.177,0,0,1-4.992,9.449l4.484,8.834-12.616,10.465-7.854-6.04a40.139,40.139,0,0,1-10.208,3.159l-3.075,9.414-16.32-1.521-1.282-9.819a40.134,40.134,0,0,1-9.449-4.991l-8.835,4.484-10.465-12.616,6.04-7.854a40.14,40.14,0,0,1-3.158-10.208l-9.415-3.075,1.521-16.32,9.82-1.283Zm20.463,11.587a17.583,17.583,0,1,0,19.139-15.876A17.583,17.583,0,0,0,2253.9,7860.631Z" fill="#e0e0e0" fill-rule="evenodd"/>
            </g>
          </g>
        </g>
      </g>
      <g id="Grupo_188" data-name="Grupo 188">
        <g id="Grupo_185" data-name="Grupo 185">
          <line id="Línea_29" data-name="Línea 29" x2="312.172" transform="translate(2202.318 7986.47)" fill="#263238"/>
        </g>
        <g id="Grupo_187" data-name="Grupo 187">
          <g id="Grupo_186" data-name="Grupo 186">
            <path id="Trazado_424" data-name="Trazado 424" d="M2514.489,7986.47c0,.1-69.887.19-156.078.19-86.221,0-156.093-.085-156.093-.19s69.872-.189,156.093-.189C2444.6,7986.281,2514.489,7986.366,2514.489,7986.47Z" fill="#263238"/>
          </g>
        </g>
      </g>
    </g>
    <g id="Grupo_359" data-name="Grupo 359">
      <g id="Grupo_266" data-name="Grupo 266">
        <g id="Grupo_193" data-name="Grupo 193">
          <g id="Grupo_190" data-name="Grupo 190">
            <path id="Trazado_425" data-name="Trazado 425" d="M2346.588,7751.922c-4.815,2.112-7.616,7.3-8.666,12.452s-.706,10.475-1.162,15.712-1.891,10.712-5.714,14.321c-3.563,3.363-8.809,4.733-11.844,8.579a10.79,10.79,0,0,0,6.151,17.222c-2.4,3.8-1.2,9.11,1.872,12.394s7.583,4.849,12.028,5.526c7.82,1.19,16.158-.125,22.763-4.476s11.227-11.909,11.21-19.819" fill="#263238"/>
          </g>
          <g id="Grupo_192" data-name="Grupo 192">
            <g id="Grupo_191" data-name="Grupo 191">
              <path id="Trazado_426" data-name="Trazado 426" d="M2325.738,7829.637a6.279,6.279,0,0,1-.848-1.7,10.269,10.269,0,0,1-.307-5.164,14.134,14.134,0,0,1,1.1-3.429,18.944,18.944,0,0,1,2.21-3.49,63.862,63.862,0,0,1,6.619-6.7,69.432,69.432,0,0,0,6.434-6.811,31.811,31.811,0,0,0,4.117-6.413,22.461,22.461,0,0,0,1.672-4.858c.144-.592.185-1.065.252-1.38a2.451,2.451,0,0,1,.106-.481,2.374,2.374,0,0,1-.03.49c-.043.319-.061.8-.183,1.4a20.841,20.841,0,0,1-1.574,4.943,30.948,30.948,0,0,1-4.087,6.518,66.438,66.438,0,0,1-6.447,6.868,66.467,66.467,0,0,0-6.6,6.639,19.011,19.011,0,0,0-2.2,3.409,14.226,14.226,0,0,0-1.124,3.342,10.451,10.451,0,0,0,.185,5.07A17.486,17.486,0,0,0,2325.738,7829.637Z" fill="#455a64"/>
            </g>
          </g>
        </g>
        <g id="Grupo_199" data-name="Grupo 199">
          <g id="Grupo_194" data-name="Grupo 194">
            <path id="Trazado_427" data-name="Trazado 427" d="M2404.13,7769.2c0,7.07,3.263,13.551,6.2,15.933,4.15,3.371,10.239,5,14.252,6.121,5.844,1.634,10.743,6.751,11.473,12.775s-3.209,12.465-9.085,13.98c3.693,3.772,2.594,10.258-.447,14.574-5.762,8.179-17.262,11.322-26.8,8.3s-16.845-11.476-19.692-21.068" fill="#263238"/>
          </g>
          <g id="Grupo_196" data-name="Grupo 196">
            <g id="Grupo_195" data-name="Grupo 195">
              <path id="Trazado_428" data-name="Trazado 428" d="M2418.67,7838.842a6.321,6.321,0,0,0,2.248-.99,6.564,6.564,0,0,0,1.883-2.156,7.832,7.832,0,0,0,1.007-3.64,8.9,8.9,0,0,0-1.182-4.41,14.284,14.284,0,0,0-3.436-4.03c-2.9-2.441-6.836-3.966-10.645-6.156a20.843,20.843,0,0,1-5.056-3.97,12.152,12.152,0,0,1-1.768-2.52,11.1,11.1,0,0,1-.989-2.782,18.888,18.888,0,0,1-.248-5.411c.128-1.691.343-3.25.492-4.675a20.839,20.839,0,0,0-.106-6.736q-.156-.571-.278-1.024c-.088-.294-.206-.528-.277-.726a4.094,4.094,0,0,1-.22-.607,4.031,4.031,0,0,1,.29.577c.083.194.214.426.313.72l.315,1.026a20.093,20.093,0,0,1,.23,6.8c-.132,1.433-.332,2.993-.445,4.671a18.75,18.75,0,0,0,.275,5.313,11,11,0,0,0,2.692,5.13,20.631,20.631,0,0,0,4.971,3.89c3.768,2.17,7.734,3.713,10.678,6.216a14.507,14.507,0,0,1,3.488,4.147,9.134,9.134,0,0,1,1.174,4.569,7.984,7.984,0,0,1-1.091,3.738,6.606,6.606,0,0,1-1.982,2.171,5.517,5.517,0,0,1-1.692.772A4.153,4.153,0,0,1,2418.67,7838.842Z" fill="#455a64"/>
            </g>
          </g>
          <g id="Grupo_198" data-name="Grupo 198">
            <g id="Grupo_197" data-name="Grupo 197">
              <path id="Trazado_429" data-name="Trazado 429" d="M2432.444,7815.251a3.8,3.8,0,0,0,.714-1.965,4.749,4.749,0,0,0-.547-2.384,5.967,5.967,0,0,0-2.168-2.394,10.606,10.606,0,0,0-3.76-1.27c-1.424-.247-2.977-.337-4.606-.59a24.735,24.735,0,0,1-9.9-3.914,24.3,24.3,0,0,1-7.312-7.734,24.638,24.638,0,0,1-3-8.171,23.5,23.5,0,0,1-.312-5.864c.053-.693.117-1.227.183-1.587a3.044,3.044,0,0,1,.106-.547c.045.006-.087.763-.142,2.142a25.155,25.155,0,0,0,3.469,13.849,24.261,24.261,0,0,0,7.223,7.6,24.7,24.7,0,0,0,9.739,3.883c1.6.259,3.162.361,4.6.626a10.743,10.743,0,0,1,3.848,1.351,6.134,6.134,0,0,1,2.217,2.529,4.817,4.817,0,0,1,.5,2.488,3.4,3.4,0,0,1-.5,1.523,3.717,3.717,0,0,1-.258.329C2432.483,7815.221,2432.449,7815.255,2432.444,7815.251Z" fill="#455a64"/>
            </g>
          </g>
        </g>
        <g id="Grupo_234" data-name="Grupo 234">
          <g id="Grupo_233" data-name="Grupo 233">
            <g id="Grupo_231" data-name="Grupo 231">
              <g id="Grupo_230" data-name="Grupo 230">
                <g id="Grupo_224" data-name="Grupo 224">
                  <g id="Grupo_201" data-name="Grupo 201">
                    <g id="Grupo_200" data-name="Grupo 200">
                      <path id="Trazado_430" data-name="Trazado 430" d="M2350.021,7852.085c1.007-10.565,1.874-21.705,1.874-21.705s-13.384-3.6-14.456-21.629c-1.022-17.194,5.615-56.015,5.615-56.015h0a51.262,51.262,0,0,1,55.467,18.589h0L2388.928,7857c-1.114,9.946-10.553,16.91-21.193,15.636h0C2356.988,7871.347,2349.062,7862.151,2350.021,7852.085Z" fill="#b78876"/>
                    </g>
                  </g>
                  <g id="Grupo_207" data-name="Grupo 207">
                    <g id="Grupo_203" data-name="Grupo 203">
                      <g id="Grupo_202" data-name="Grupo 202">
                        <path id="Trazado_431" data-name="Trazado 431" d="M2345.085,7783.768a2.287,2.287,0,0,0,1.969,2.513,2.187,2.187,0,0,0,2.549-1.822,2.29,2.29,0,0,0-1.967-2.514A2.189,2.189,0,0,0,2345.085,7783.768Z" fill="#263238"/>
                      </g>
                    </g>
                    <g id="Grupo_206" data-name="Grupo 206">
                      <g id="Grupo_205" data-name="Grupo 205">
                        <g id="Grupo_204" data-name="Grupo 204">
                          <path id="Trazado_432" data-name="Trazado 432" d="M2341.644,7780.855c.253.325,2.1-.781,4.553-.534,2.45.213,4.124,1.65,4.419,1.376.144-.12-.091-.684-.818-1.331a6.273,6.273,0,0,0-3.5-1.469,6.028,6.028,0,0,0-3.66.8C2341.826,7780.2,2341.518,7780.709,2341.644,7780.855Z" fill="#263238"/>
                        </g>
                      </g>
                    </g>
                  </g>
                  <g id="Grupo_213" data-name="Grupo 213">
                    <g id="Grupo_209" data-name="Grupo 209">
                      <g id="Grupo_208" data-name="Grupo 208">
                        <path id="Trazado_433" data-name="Trazado 433" d="M2370.122,7786.669a2.287,2.287,0,0,0,1.969,2.513,2.188,2.188,0,0,0,2.549-1.822,2.288,2.288,0,0,0-1.967-2.514A2.189,2.189,0,0,0,2370.122,7786.669Z" fill="#263238"/>
                      </g>
                    </g>
                    <g id="Grupo_212" data-name="Grupo 212">
                      <g id="Grupo_211" data-name="Grupo 211">
                        <g id="Grupo_210" data-name="Grupo 210">
                          <path id="Trazado_434" data-name="Trazado 434" d="M2367.119,7784.261c.254.325,2.106-.781,4.554-.534,2.45.212,4.124,1.65,4.419,1.376.143-.12-.089-.684-.818-1.332a6.278,6.278,0,0,0-3.5-1.468,6.032,6.032,0,0,0-3.661.8C2367.3,7783.6,2366.994,7784.115,2367.119,7784.261Z" fill="#263238"/>
                        </g>
                      </g>
                    </g>
                  </g>
                  <g id="Grupo_216" data-name="Grupo 216">
                    <g id="Grupo_215" data-name="Grupo 215">
                      <g id="Grupo_214" data-name="Grupo 214">
                        <path id="Trazado_435" data-name="Trazado 435" d="M2356.44,7801.555c.025-.138-1.472-.551-3.908-1.109-.619-.127-1.2-.309-1.263-.746a3.207,3.207,0,0,1,.6-1.814q1.106-2.184,2.319-4.581c3.237-6.53,5.645-11.924,5.382-12.052s-3.1,5.061-6.339,11.59q-1.174,2.418-2.244,4.618a3.643,3.643,0,0,0-.566,2.423,1.574,1.574,0,0,0,.939,1.016,4.294,4.294,0,0,0,1.047.253C2354.878,7801.531,2356.417,7801.693,2356.44,7801.555Z" fill="#263238"/>
                      </g>
                    </g>
                  </g>
                  <g id="Grupo_218" data-name="Grupo 218">
                    <g id="Grupo_217" data-name="Grupo 217">
                      <path id="Trazado_436" data-name="Trazado 436" d="M2351.9,7830.38a45.377,45.377,0,0,0,24.4-4s-6.968,11.627-24.572,8.217Z" fill="#aa6550"/>
                    </g>
                  </g>
                  <g id="Grupo_220" data-name="Grupo 220">
                    <g id="Grupo_219" data-name="Grupo 219">
                      <path id="Trazado_437" data-name="Trazado 437" d="M2356.9,7807.561a4.436,4.436,0,0,1,4.119-1.25,4.049,4.049,0,0,1,2.636,1.767,2.565,2.565,0,0,1-.093,2.939,2.978,2.978,0,0,1-3.292.5,9.309,9.309,0,0,1-2.947-2.177,2.712,2.712,0,0,1-.629-.793.824.824,0,0,1,.094-.912" fill="#aa6550"/>
                    </g>
                  </g>
                  <g id="Grupo_223" data-name="Grupo 223">
                    <g id="Grupo_222" data-name="Grupo 222">
                      <g id="Grupo_221" data-name="Grupo 221">
                        <path id="Trazado_438" data-name="Trazado 438" d="M2363.483,7803.959c-.4-.062-.663,2.6-3.124,4.26s-5.264,1.093-5.322,1.462c-.053.163.581.579,1.774.729a6.65,6.65,0,0,0,4.427-1.07,5.792,5.792,0,0,0,2.45-3.589C2363.9,7804.65,2363.667,7803.962,2363.483,7803.959Z" fill="#263238"/>
                      </g>
                    </g>
                  </g>
                </g>
                <g id="Grupo_226" data-name="Grupo 226">
                  <g id="Grupo_225" data-name="Grupo 225">
                    <path id="Trazado_439" data-name="Trazado 439" d="M2390.074,7790.264a10.633,10.633,0,0,1,5.678.928,7.422,7.422,0,0,1,3.809,4.207,7.76,7.76,0,0,1-.509,5.679,13.146,13.146,0,0,1-3.7,4.456,8.9,8.9,0,0,1-3.671,1.948,4.254,4.254,0,0,1-3.894-1" fill="#b78876"/>
                  </g>
                </g>
                <g id="Grupo_229" data-name="Grupo 229">
                  <g id="Grupo_228" data-name="Grupo 228">
                    <g id="Grupo_227" data-name="Grupo 227">
                      <path id="Trazado_440" data-name="Trazado 440" d="M2389.99,7801.875c-.224.049.488,1.279,2.27.982a3.751,3.751,0,0,0,2.329-1.661,8.483,8.483,0,0,0,1.256-3.058,4.991,4.991,0,0,0-.474-3.42,3.316,3.316,0,0,0-2.35-1.719c-1.781-.216-2.456.967-2.257,1.023.129.159.884-.411,2.025-.015,1.1.316,2.048,1.967,1.618,3.861-.4,1.933-1.331,3.647-2.415,3.99C2390.857,7802.3,2390.125,7801.73,2389.99,7801.875Z" fill="#aa6550"/>
                    </g>
                  </g>
                </g>
              </g>
            </g>
            <g id="Grupo_232" data-name="Grupo 232">
              <path id="Trazado_441" data-name="Trazado 441" d="M2351.634,7760.329a21.75,21.75,0,0,1-14.649,12.337,52.934,52.934,0,0,1,.08-13.162,20.809,20.809,0,0,1,5.65-11.678c3.165-3.056,7.859-4.7,12.109-3.562" fill="#263238"/>
            </g>
          </g>
        </g>
        <g id="Grupo_235" data-name="Grupo 235">
          <path id="Trazado_442" data-name="Trazado 442" d="M2352.858,7752.276a17.462,17.462,0,0,0,18.05,23.815,7.5,7.5,0,0,1,3.476.066,6.174,6.174,0,0,1,2.63,2.588c2.83,4.228,5.819,8.624,10.279,11.073s10.844,2.208,13.826-1.914c1.45-2,1.877-4.553,2.213-7,1.131-8.242,1.594-17.089-2.333-24.423-2.918-5.448-8.045-9.5-13.716-11.957a53.453,53.453,0,0,0-18.049-3.812c-3.585-.219-7.3-.224-10.621,1.135s-6.2,4.377-6.385,7.964" fill="#263238"/>
        </g>
        <g id="Grupo_237" data-name="Grupo 237">
          <g id="Grupo_236" data-name="Grupo 236">
            <path id="Trazado_443" data-name="Trazado 443" d="M2402.545,7783.229a4.026,4.026,0,0,1-.217-.6c-.121-.4-.326-.986-.6-1.735a32.174,32.174,0,0,0-3.018-6.015,31.377,31.377,0,0,0-6.634-7.4,43.248,43.248,0,0,0-10.624-5.982c-4.014-1.68-7.938-3.067-11.371-4.674a39.705,39.705,0,0,1-8.574-5.236,22.418,22.418,0,0,1-4.548-5.017,15.4,15.4,0,0,1-.91-1.6,4.039,4.039,0,0,1-.269-.584,4.16,4.16,0,0,1,.336.548c.2.371.525.9.966,1.558a23.359,23.359,0,0,0,4.595,4.89,40.512,40.512,0,0,0,8.551,5.127c3.42,1.58,7.342,2.955,11.371,4.642a42.815,42.815,0,0,1,10.7,6.06,31.05,31.05,0,0,1,6.641,7.53,30.269,30.269,0,0,1,2.93,6.109c.253.76.436,1.354.534,1.764A4.138,4.138,0,0,1,2402.545,7783.229Z" fill="#455a64"/>
          </g>
        </g>
        <g id="Grupo_239" data-name="Grupo 239">
          <g id="Grupo_238" data-name="Grupo 238">
            <path id="Trazado_444" data-name="Trazado 444" d="M2397.026,7782.253a3.275,3.275,0,0,1-.3-.5,16.094,16.094,0,0,0-.912-1.4,18.691,18.691,0,0,0-4.405-4.252,42.869,42.869,0,0,0-8.078-4.241c-1.583-.685-3.257-1.386-4.959-2.195s-3.43-1.718-5.145-2.745a45.128,45.128,0,0,1-8.91-6.872,34.363,34.363,0,0,1-5.563-7.312,28.354,28.354,0,0,1-2.448-5.69c-.2-.705-.347-1.254-.42-1.633a3.572,3.572,0,0,1-.1-.578,3.4,3.4,0,0,1,.179.56c.1.372.265.912.485,1.606a30.464,30.464,0,0,0,2.541,5.6,35.03,35.03,0,0,0,5.578,7.2,45.754,45.754,0,0,0,8.857,6.792c1.7,1.021,3.423,1.922,5.11,2.736s3.357,1.515,4.939,2.209a41.841,41.841,0,0,1,8.095,4.344,18.026,18.026,0,0,1,4.369,4.385,12.662,12.662,0,0,1,.858,1.453A3.348,3.348,0,0,1,2397.026,7782.253Z" fill="#455a64"/>
          </g>
        </g>
        <g id="Grupo_241" data-name="Grupo 241">
          <g id="Grupo_240" data-name="Grupo 240">
            <path id="Trazado_445" data-name="Trazado 445" d="M2337.047,7779.712a1.827,1.827,0,0,1-.173-.409c-.1-.273-.252-.675-.419-1.2a21.148,21.148,0,0,1-.767-4.62,22.163,22.163,0,0,1,4.584-14.5,20.427,20.427,0,0,1,3.076-3.177,39.165,39.165,0,0,1,3.339-2.39,35.143,35.143,0,0,0,5.524-4.107,12.277,12.277,0,0,0,2.7-3.723c.444-1,.545-1.61.585-1.6a1.945,1.945,0,0,1-.068.44,7.9,7.9,0,0,1-.381,1.218,11.838,11.838,0,0,1-2.651,3.855,33.662,33.662,0,0,1-5.52,4.208c-1.081.724-2.21,1.491-3.3,2.386a20.267,20.267,0,0,0-3.013,3.124,21.755,21.755,0,0,0-3.761,7.457,22.185,22.185,0,0,0-.854,6.794,23.119,23.119,0,0,0,.642,4.592l.348,1.217A2.028,2.028,0,0,1,2337.047,7779.712Z" fill="#455a64"/>
          </g>
        </g>
        <g id="Grupo_265" data-name="Grupo 265">
          <g id="Grupo_244" data-name="Grupo 244">
            <g id="Grupo_242" data-name="Grupo 242">
              <path id="Trazado_446" data-name="Trazado 446" d="M2380.892,7815.115a17.061,17.061,0,0,1-11.367-4.169l.487-.542a16.116,16.116,0,0,0,25.777-17.88l.677-.267a17.443,17.443,0,0,1-6.074,20.007A16.707,16.707,0,0,1,2380.892,7815.115Z" fill="#00c2db"/>
            </g>
            <g id="Grupo_243" data-name="Grupo 243">
              <path id="Trazado_447" data-name="Trazado 447" d="M2374.976,7812a3.525,3.525,0,1,1-3.525-3.525A3.526,3.526,0,0,1,2374.976,7812Z" fill="#00c2db"/>
            </g>
          </g>
          <g id="Grupo_245" data-name="Grupo 245">
            <circle id="Elipse_10" data-name="Elipse 10" cx="11.806" cy="11.806" r="11.806" transform="matrix(0.122, -0.993, 0.993, 0.122, 2385.366, 7804.362)" fill="#00c2db"/>
          </g>
          <g id="Grupo_247" data-name="Grupo 247">
            <g id="Grupo_246" data-name="Grupo 246">
              <path id="Trazado_448" data-name="Trazado 448" d="M2396.61,7792.44a15.14,15.14,0,0,1,.068-3c.038-.97.084-2.141.138-3.5.013-1.364.058-2.914,0-4.626,0-.856-.059-1.751-.11-2.683-.033-.933-.141-1.9-.233-2.9-.076-1-.267-2.023-.4-3.082q-.147-.787-.3-1.6c-.093-.541-.208-1.084-.351-1.628a31.222,31.222,0,0,0-6.18-13.017,28.732,28.732,0,0,0-11.769-8.248,51.746,51.746,0,0,0-11.588-2.913c-3.39-.473-6.167-.616-8.084-.751a15.392,15.392,0,0,1-2.984-.245,14.883,14.883,0,0,1,2.994-.2,72.464,72.464,0,0,1,8.174.4,49.029,49.029,0,0,1,11.868,2.734,29.13,29.13,0,0,1,12.263,8.5,31.5,31.5,0,0,1,6.328,13.511c.139.559.249,1.117.337,1.671l.279,1.634c.118,1.081.292,2.126.349,3.145.074,1.017.161,2,.171,2.945.029.945.062,1.852.037,2.717,0,1.732-.1,3.293-.173,4.663-.113,1.368-.221,2.545-.332,3.5A15.174,15.174,0,0,1,2396.61,7792.44Z" fill="#00c2db"/>
            </g>
          </g>
          <g id="Grupo_248" data-name="Grupo 248" opacity="0.4">
            <path id="Trazado_449" data-name="Trazado 449" d="M2406.969,7794.081a8.125,8.125,0,1,1-8.126-8.125A8.126,8.126,0,0,1,2406.969,7794.081Z"/>
          </g>
          <g id="Grupo_250" data-name="Grupo 250">
            <g id="Grupo_249" data-name="Grupo 249">
              <path id="Trazado_450" data-name="Trazado 450" d="M2396.17,7786.5a1.749,1.749,0,0,1,.363-.189,5.547,5.547,0,0,1,1.127-.333,6.414,6.414,0,0,1,4.215.721,5.7,5.7,0,0,1,2.165,2.077,6.29,6.29,0,0,1,.869,3.333,6.142,6.142,0,0,1-8.7,5.439,6.008,6.008,0,0,1-2.709-2.671,6.291,6.291,0,0,1-.693-3.376,6.377,6.377,0,0,1,1-2.829,5.912,5.912,0,0,1,3.366-2.621,3.867,3.867,0,0,1,1.169-.133,1.662,1.662,0,0,1,.406.058,5.268,5.268,0,0,0-4.713,2.838,6.183,6.183,0,0,0-.917,2.712,6.01,6.01,0,0,0,.69,3.189,5.68,5.68,0,0,0,2.557,2.5,5.717,5.717,0,0,0,8.189-5.11,6.014,6.014,0,0,0-.791-3.166,5.465,5.465,0,0,0-2.027-2,6.431,6.431,0,0,0-4.059-.808A11.837,11.837,0,0,0,2396.17,7786.5Z" fill="#263238"/>
            </g>
          </g>
          <g id="Grupo_252" data-name="Grupo 252">
            <g id="Grupo_251" data-name="Grupo 251">
              <path id="Trazado_451" data-name="Trazado 451" d="M2398.773,7802.085a6.547,6.547,0,0,1-.16-3.858,21.205,21.205,0,0,1,.16,3.858Z" fill="#263238"/>
            </g>
          </g>
          <g id="Grupo_254" data-name="Grupo 254">
            <g id="Grupo_253" data-name="Grupo 253">
              <path id="Trazado_452" data-name="Trazado 452" d="M2403.256,7800.507a9.023,9.023,0,1,1-.491-1.781A4.594,4.594,0,0,1,2403.256,7800.507Z" fill="#263238"/>
            </g>
          </g>
          <g id="Grupo_256" data-name="Grupo 256">
            <g id="Grupo_255" data-name="Grupo 255">
              <path id="Trazado_453" data-name="Trazado 453" d="M2406.276,7796.973c-.071.078-.627-.314-1.244-.874s-1.059-1.078-.988-1.155.627.314,1.243.874S2406.346,7796.9,2406.276,7796.973Z" fill="#263238"/>
            </g>
          </g>
          <g id="Grupo_258" data-name="Grupo 258">
            <g id="Grupo_257" data-name="Grupo 257">
              <path id="Trazado_454" data-name="Trazado 454" d="M2406.49,7792.04c-.035.1-.439.043-.9-.124s-.809-.383-.773-.481.439-.043.9.124S2406.526,7791.942,2406.49,7792.04Z" fill="#263238"/>
            </g>
          </g>
          <g id="Grupo_260" data-name="Grupo 260">
            <g id="Grupo_259" data-name="Grupo 259">
              <path id="Trazado_455" data-name="Trazado 455" d="M2393.466,7800.263a6.289,6.289,0,0,1,1.769-3.451,25.967,25.967,0,0,1-1.769,3.451Z" fill="#263238"/>
            </g>
          </g>
          <g id="Grupo_262" data-name="Grupo 262">
            <g id="Grupo_261" data-name="Grupo 261">
              <path id="Trazado_456" data-name="Trazado 456" d="M2391.043,7796.123c-.073-.075.389-.647,1.033-1.278s1.225-1.083,1.3-1.008-.389.647-1.033,1.279S2391.117,7796.2,2391.043,7796.123Z" fill="#263238"/>
            </g>
          </g>
          <g id="Grupo_264" data-name="Grupo 264">
            <g id="Grupo_263" data-name="Grupo 263">
              <path id="Trazado_457" data-name="Trazado 457" d="M2392.939,7790.5c.027.1-.3.276-.736.391s-.807.127-.834.026.3-.277.737-.392S2392.912,7790.394,2392.939,7790.5Z" fill="#263238"/>
            </g>
          </g>
        </g>
      </g>
      <g id="Grupo_272" data-name="Grupo 272">
        <g id="Grupo_267" data-name="Grupo 267">
          <path id="Trazado_458" data-name="Trazado 458" d="M2454.687,7855.08c-.762-4.324-2.453-6.673-3.714-7.9a21.778,21.778,0,0,0-3.739-3.216,22.806,22.806,0,0,0-5.543-2.664c-1.846-.4-2.3-2.8-.749-3.483s6.657.295,11.573,3.909,2.429-5.543,1.583-8.894-2.975-13.832-2.145-14.882c1.217-1.538,3.138-.493,3.905,2.872.777,3.406,3.78,13.313,5.538,12.827,1.731-.478-2.809-17.489-2.809-17.489s-1.562-3.494.449-4.123c3.626-1.133,7.115,17.27,7.4,19.028.2,1.223,2.131.764,1.845-.539-.294-1.341-4.925-16.873-1.246-18.062,2.825-.913,3.013,15.115,5.77,17.851s-1.391-12.17,1.346-12.932c1.018-.283,1.822-.353,2.963,8.517.614,4.767.216,11.34,2.076,20.437" fill="#b78876"/>
        </g>
        <g id="Grupo_271" data-name="Grupo 271">
          <g id="Grupo_268" data-name="Grupo 268">
            <path id="Trazado_459" data-name="Trazado 459" d="M2445.518,7889.295l16.724,24-8.033-61.9,23.91-9.429s30.174,115.675-10.3,117.3c0,0-28-.768-48.9-49.247Z" fill="#b78876"/>
          </g>
          <g id="Grupo_270" data-name="Grupo 270">
            <g id="Grupo_269" data-name="Grupo 269">
              <path id="Trazado_460" data-name="Trazado 460" d="M2472.341,7841.515c.042.061-.524.438-1.259,1.261a8.44,8.44,0,0,0-1.96,3.857l-.094.452-.333-.332a10.3,10.3,0,0,0-1.236-1.083,10.559,10.559,0,0,0-5.083-1.972c-1.415-.152-2.3,0-2.316-.085a5.17,5.17,0,0,1,2.344-.276,9.833,9.833,0,0,1,6.655,3.073l-.426.119a7.974,7.974,0,0,1,2.215-3.976A3.86,3.86,0,0,1,2472.341,7841.515Z" fill="#aa6550"/>
            </g>
          </g>
        </g>
      </g>
      <g id="Grupo_358" data-name="Grupo 358">
        <g id="Grupo_275" data-name="Grupo 275">
          <g id="Grupo_274" data-name="Grupo 274">
            <g id="Grupo_273" data-name="Grupo 273">
              <path id="Trazado_461" data-name="Trazado 461" d="M2433.5,7939.335l-20.239-25.672-5.259,26.257a54.4,54.4,0,0,0,3.152,31.671l2.612,6.245h-93.708l2.342-8.342c1.322-10.221-.447-20.893-.139-35.532l-2.6-16.5-14.175,60.378H2263.81s22.877-93.713,37.206-112.255c18.067-23.379,49.629-20.295,49.629-20.295l19.34,30.312,18.885-27.331s32.455-6.9,57.791,36.726l13.559,23.238h0l-6.295-47.837,29.341-6.774s10.6,47,9.9,72.167c-.622,22.479-10.188,34.273-23.448,35.433C2448.875,7963.044,2433.5,7939.335,2433.5,7939.335Z" fill="#00c2db"/>
            </g>
          </g>
        </g>
        <g id="Grupo_276" data-name="Grupo 276">
          <path id="Trazado_462" data-name="Trazado 462" d="M2350.645,7845.286l.331-3.775s14.325,3.183,19.127,28.194c0,0,4.819-23.082,20.247-25.407l2.6,6.649-9.473,24.663-16.637,4.863-16.185-4.863-7.362-14.618Z" fill="#00c2db"/>
        </g>
        <g id="Grupo_278" data-name="Grupo 278">
          <g id="Grupo_277" data-name="Grupo 277">
            <path id="Trazado_463" data-name="Trazado 463" d="M2310.729,7855.233a4.152,4.152,0,0,1,.073.647q.049.687.135,1.861c.1,1.616.272,3.954.5,6.841.461,5.772,1.253,13.736,2.5,22.482s2.726,16.617,3.9,22.287c.586,2.836,1.079,5.127,1.433,6.708q.246,1.149.392,1.823a4.191,4.191,0,0,1,.111.642,4.385,4.385,0,0,1-.186-.624q-.17-.667-.461-1.808c-.4-1.571-.931-3.855-1.551-6.685-1.244-5.661-2.759-13.53-4.015-22.289s-2-16.734-2.393-22.516c-.2-2.891-.326-5.233-.385-6.853q-.039-1.176-.063-1.865A4.151,4.151,0,0,1,2310.729,7855.233Z" fill="#263238"/>
          </g>
        </g>
        <g id="Grupo_280" data-name="Grupo 280">
          <g id="Grupo_279" data-name="Grupo 279">
            <path id="Trazado_464" data-name="Trazado 464" d="M2350.021,7844.809" fill="none" stroke="#4f595e" stroke-miterlimit="10" stroke-width="0.05"/>
          </g>
        </g>
        <g id="Grupo_282" data-name="Grupo 282">
          <g id="Grupo_281" data-name="Grupo 281">
            <path id="Trazado_465" data-name="Trazado 465" d="M2392.6,7847.376a1.649,1.649,0,0,1-.2.361c-.17.263-.383.592-.644.994l-2.387,3.644c-2,3.083-4.711,7.382-7.522,12.236l-.324.559-.182.314-.154-.328a11.2,11.2,0,0,0-2.058-3.311,3.733,3.733,0,0,0-3.189-1.192,4.36,4.36,0,0,0-2.631,1.726,8.036,8.036,0,0,0-1.313,2.522c-.54,1.677-.855,3.094-1.255,4.011a8.231,8.231,0,0,1-.5,1.032,1.574,1.574,0,0,1-.228.328c-.03-.017.262-.483.593-1.412.354-.922.624-2.327,1.14-4.042a8.157,8.157,0,0,1,1.32-2.63,4.656,4.656,0,0,1,2.819-1.877,4.074,4.074,0,0,1,3.5,1.27,11.412,11.412,0,0,1,2.143,3.413l-.335-.014.324-.559c2.816-4.862,5.564-9.145,7.627-12.194,1.03-1.525,1.886-2.745,2.488-3.579l.7-.954A1.728,1.728,0,0,1,2392.6,7847.376Z" fill="#263238"/>
          </g>
        </g>
        <g id="Grupo_284" data-name="Grupo 284">
          <g id="Grupo_283" data-name="Grupo 283">
            <path id="Trazado_466" data-name="Trazado 466" d="M2378.957,7861.539a1.255,1.255,0,0,1-.154.322l-.506.887-1.923,3.225-2.892,4.757-1.719,2.8-.923,1.488a1.307,1.307,0,0,1-.363.365.7.7,0,0,1-.582.08,1.48,1.48,0,0,1-.729-.7c-2.691-4.043-4.693-7.948-6.263-10.7-.774-1.382-1.411-2.494-1.859-3.257a10.577,10.577,0,0,1-.67-1.2c.011-.008.088.089.223.28s.333.473.573.846c.487.741,1.161,1.835,1.966,3.2,1.631,2.719,3.672,6.6,6.344,10.619.168.262.32.484.526.545.185.068.368-.073.526-.3q.465-.742.915-1.464l1.738-2.791,2.961-4.714,2.025-3.161.567-.85A1.273,1.273,0,0,1,2378.957,7861.539Z" fill="#263238"/>
          </g>
        </g>
        <g id="Grupo_286" data-name="Grupo 286">
          <g id="Grupo_285" data-name="Grupo 285">
            <path id="Trazado_467" data-name="Trazado 467" d="M2430.841,7863.757a2.831,2.831,0,0,1-.217.5l-.689,1.4c-.612,1.208-1.469,2.969-2.494,5.16s-2.193,4.825-3.418,7.779c-1.208,2.961-2.468,6.244-3.675,9.731s-2.221,6.857-3.09,9.934c-.852,3.083-1.557,5.877-2.091,8.236s-.948,4.274-1.208,5.6c-.132.634-.238,1.141-.318,1.526a2.8,2.8,0,0,1-.136.528,2.988,2.988,0,0,1,.061-.541c.062-.388.145-.9.248-1.54.216-1.338.584-3.264,1.091-5.633s1.181-5.176,2.016-8.271c.853-3.089,1.871-6.464,3.069-9.965s2.482-6.781,3.71-9.741c1.245-2.953,2.435-5.582,3.5-7.76s1.952-3.925,2.6-5.112c.313-.568.563-1.022.752-1.367A3.057,3.057,0,0,1,2430.841,7863.757Z" fill="#263238"/>
          </g>
        </g>
        <g id="Grupo_288" data-name="Grupo 288">
          <g id="Grupo_287" data-name="Grupo 287">
            <path id="Trazado_468" data-name="Trazado 468" d="M2387.977,7958.83a3.409,3.409,0,0,1-.585-.02l-1.673-.132c-.727-.057-1.615-.139-2.642-.267s-2.2-.242-3.489-.443c-2.583-.352-5.643-.884-9.019-1.584-3.37-.724-7.053-1.629-10.869-2.755-3.813-1.143-7.393-2.4-10.612-3.632-3.21-1.259-6.063-2.485-8.419-3.6-1.188-.535-2.236-1.077-3.164-1.535s-1.719-.871-2.358-1.22l-1.473-.8a3.529,3.529,0,0,1-.5-.3,3.19,3.19,0,0,1,.537.235l1.505.739c.649.329,1.446.726,2.384,1.162s1.99.963,3.183,1.482c2.366,1.083,5.224,2.281,8.433,3.519,3.217,1.214,6.791,2.454,10.594,3.6,3.806,1.122,7.476,2.036,10.834,2.777,3.364.716,6.412,1.274,8.985,1.66,1.283.217,2.452.354,3.476.5s1.908.25,2.631.33l1.665.2A3.366,3.366,0,0,1,2387.977,7958.83Z" fill="#263238"/>
          </g>
        </g>
        <g id="Grupo_290" data-name="Grupo 290">
          <g id="Grupo_289" data-name="Grupo 289">
            <path id="Trazado_469" data-name="Trazado 469" d="M2383.833,7960.47a1.575,1.575,0,0,1-.385.1l-1.119.212c-.972.18-2.385.4-4.136.644-3.5.484-8.366.978-13.759,1.168s-10.284.03-13.81-.21c-1.764-.119-3.189-.243-4.171-.356l-1.13-.133a1.536,1.536,0,0,1-.391-.073,1.6,1.6,0,0,1,.4,0l1.136.062c.985.067,2.411.15,4.173.235,3.524.171,8.4.283,13.781.1s10.236-.64,13.74-1.055c1.752-.207,3.169-.389,4.147-.524l1.128-.141A1.561,1.561,0,0,1,2383.833,7960.47Z" fill="#263238"/>
          </g>
        </g>
        <g id="Grupo_292" data-name="Grupo 292">
          <g id="Grupo_291" data-name="Grupo 291">
            <path id="Trazado_470" data-name="Trazado 470" d="M2417,7918.393a2.979,2.979,0,0,1,.11-.55c.1-.392.226-.91.388-1.559.353-1.391.848-3.337,1.455-5.725,1.229-4.834,2.861-11.529,4.868-18.875,1.012-3.672,2.046-7.151,3.049-10.3,1.02-3.14,2-5.949,2.9-8.277.431-1.171.871-2.212,1.244-3.13s.71-1.7,1-2.339l.665-1.462a3.067,3.067,0,0,1,.256-.5,3.035,3.035,0,0,1-.186.53q-.225.561-.6,1.49c-.269.643-.591,1.433-.939,2.36s-.776,1.97-1.19,3.145c-.868,2.336-1.816,5.149-2.816,8.289-.983,3.145-2.006,6.622-3.016,10.29-2,7.339-3.679,14.024-4.975,18.842-.645,2.41-1.179,4.357-1.572,5.7q-.285.961-.456,1.54A3.235,3.235,0,0,1,2417,7918.393Z" fill="#263238"/>
          </g>
        </g>
        <g id="Grupo_294" data-name="Grupo 294">
          <g id="Grupo_293" data-name="Grupo 293">
            <path id="Trazado_471" data-name="Trazado 471" d="M2319.174,7917.137a3.572,3.572,0,0,1-.4-.461c-.243-.317-.637-.759-1.068-1.385a40.193,40.193,0,0,1-3.342-5.5,52.787,52.787,0,0,1-3.507-8.87,77.921,77.921,0,0,1-2.439-11.422c-1.116-8.222-1.3-15.729-1.635-21.136-.152-2.707-.294-4.9-.408-6.407-.053-.729-.1-1.308-.127-1.741a3.757,3.757,0,0,1-.021-.609,3.677,3.677,0,0,1,.1.6c.048.4.124.98.2,1.735.159,1.509.343,3.7.528,6.4.406,5.407.632,12.909,1.744,21.1a80.354,80.354,0,0,0,2.4,11.375,54.493,54.493,0,0,0,3.412,8.85,44.486,44.486,0,0,0,3.222,5.53c.412.636.785,1.092,1.008,1.423A3.514,3.514,0,0,1,2319.174,7917.137Z" fill="#263238"/>
          </g>
        </g>
        <g id="Grupo_296" data-name="Grupo 296">
          <g id="Grupo_295" data-name="Grupo 295">
            <path id="Trazado_472" data-name="Trazado 472" d="M2315.614,7900.292c.022.112-1.085.352-2.261,1.051s-1.936,1.533-2.023,1.459a5.316,5.316,0,0,1,4.284-2.51Z" fill="#263238"/>
          </g>
        </g>
        <g id="Grupo_298" data-name="Grupo 298">
          <g id="Grupo_297" data-name="Grupo 297">
            <path id="Trazado_473" data-name="Trazado 473" d="M2314.9,7890.465a19.974,19.974,0,0,0-2.856,1.029,19.7,19.7,0,0,0-2.466,1.771,6.059,6.059,0,0,1,5.322-2.8Z" fill="#263238"/>
          </g>
        </g>
        <g id="Grupo_300" data-name="Grupo 300">
          <g id="Grupo_299" data-name="Grupo 299">
            <path id="Trazado_474" data-name="Trazado 474" d="M2312.753,7881.483a8.874,8.874,0,0,0-4.248,2.108,4.356,4.356,0,0,1,4.248-2.108Z" fill="#263238"/>
          </g>
        </g>
        <g id="Grupo_302" data-name="Grupo 302">
          <g id="Grupo_301" data-name="Grupo 301">
            <path id="Trazado_475" data-name="Trazado 475" d="M2311.707,7872.212c.015.11-.957.3-2.06.772s-1.914,1.04-1.984.953a5.309,5.309,0,0,1,4.044-1.725Z" fill="#263238"/>
          </g>
        </g>
        <g id="Grupo_304" data-name="Grupo 304">
          <g id="Grupo_303" data-name="Grupo 303">
            <path id="Trazado_476" data-name="Trazado 476" d="M2311.1,7864.714c.014.111-.971.288-2.066.809s-1.867,1.154-1.943,1.072a4.941,4.941,0,0,1,4.009-1.881Z" fill="#263238"/>
          </g>
        </g>
        <g id="Grupo_306" data-name="Grupo 306">
          <g id="Grupo_305" data-name="Grupo 305">
            <path id="Trazado_477" data-name="Trazado 477" d="M2418.962,7906.933c-.091.064-.589-.607-1.5-.965a10.317,10.317,0,0,0-1.75-.358,2.032,2.032,0,0,1,1.893.006C2418.642,7906.032,2419.059,7906.9,2418.962,7906.933Z" fill="#263238"/>
          </g>
        </g>
        <g id="Grupo_308" data-name="Grupo 308">
          <g id="Grupo_307" data-name="Grupo 307">
            <path id="Trazado_478" data-name="Trazado 478" d="M2421.809,7899.27a4.933,4.933,0,0,0-4.059-2.622c-.006-.043.284-.143.775-.128a3.719,3.719,0,0,1,3.083,1.991C2421.824,7898.953,2421.852,7899.259,2421.809,7899.27Z" fill="#263238"/>
          </g>
        </g>
        <g id="Grupo_310" data-name="Grupo 310">
          <g id="Grupo_309" data-name="Grupo 309">
            <path id="Trazado_479" data-name="Trazado 479" d="M2423.942,7890.852a5.146,5.146,0,0,0-4.266-1.691c-.014-.043.242-.179.7-.243a3.668,3.668,0,0,1,3.224,1.278C2423.889,7890.556,2423.981,7890.83,2423.942,7890.852Z" fill="#263238"/>
          </g>
        </g>
        <g id="Grupo_312" data-name="Grupo 312">
          <g id="Grupo_311" data-name="Grupo 311">
            <path id="Trazado_480" data-name="Trazado 480" d="M2426.455,7882.761c-.1.051-.5-.7-1.379-1.151a7.846,7.846,0,0,0-1.728-.49c-.009-.046.2-.141.554-.161a2.738,2.738,0,0,1,2.374,1.254C2426.461,7882.52,2426.5,7882.742,2426.455,7882.761Z" fill="#263238"/>
          </g>
        </g>
        <g id="Grupo_314" data-name="Grupo 314">
          <g id="Grupo_313" data-name="Grupo 313">
            <path id="Trazado_481" data-name="Trazado 481" d="M2429.4,7875.333a3.823,3.823,0,0,0-3.567-1.651c-.016-.042.2-.182.606-.25a2.836,2.836,0,0,1,2.76,1.277C2429.406,7875.061,2429.439,7875.318,2429.4,7875.333Z" fill="#263238"/>
          </g>
        </g>
        <g id="Grupo_316" data-name="Grupo 316">
          <g id="Grupo_315" data-name="Grupo 315">
            <path id="Trazado_482" data-name="Trazado 482" d="M2381.3,7864.714a1.513,1.513,0,0,1-.164.354l-.538.978c-.476.844-1.177,2.058-2.064,3.547s-1.958,3.252-3.186,5.187c-.614.967-1.268,1.977-1.97,3.011a33.643,33.643,0,0,1-2.314,3.113,3.289,3.289,0,0,1-.785.7.519.519,0,0,1-.335.066,1.028,1.028,0,0,1-.293-.092,2.5,2.5,0,0,1-.434-.295,10.9,10.9,0,0,1-1.339-1.4c-.8-.967-1.509-1.943-2.169-2.882-1.317-1.88-2.433-3.616-3.357-5.082s-1.645-2.67-2.134-3.506l-.552-.97a.2.2,0,1,1,.065-.04l.613.932c.557.859,1.313,2.022,2.234,3.439.951,1.445,2.089,3.164,3.416,5.025.665.929,1.375,1.9,2.169,2.845a10.742,10.742,0,0,0,1.29,1.341c.23.184.52.388.662.273a3.086,3.086,0,0,0,.666-.613,34.865,34.865,0,0,0,2.291-3.07c.7-1.026,1.361-2.029,1.982-2.989,1.242-1.922,2.335-3.669,3.251-5.139.892-1.435,1.625-2.613,2.166-3.482l.6-.942A1.525,1.525,0,0,1,2381.3,7864.714Z" fill="#263238"/>
          </g>
        </g>
        <g id="Grupo_318" data-name="Grupo 318">
          <g id="Grupo_317" data-name="Grupo 317">
            <path id="Trazado_483" data-name="Trazado 483" d="M2365,7875.6c-.044.006-.134-.257-.1-.7a3.07,3.07,0,0,1,2.03-2.571c.422-.134.7-.107.7-.063A4.022,4.022,0,0,0,2365,7875.6Z" fill="#263238"/>
          </g>
        </g>
        <g id="Grupo_320" data-name="Grupo 320">
          <g id="Grupo_319" data-name="Grupo 319">
            <path id="Trazado_484" data-name="Trazado 484" d="M2370.027,7881.631a13.241,13.241,0,0,1-.042-6.033,146.723,146.723,0,0,1,.042,6.033Z" fill="#263238"/>
          </g>
        </g>
        <g id="Grupo_322" data-name="Grupo 322">
          <g id="Grupo_321" data-name="Grupo 321">
            <path id="Trazado_485" data-name="Trazado 485" d="M2375.734,7873.946c-.107.029-.344-.817-1.139-1.464a7.663,7.663,0,0,0-1.643-.861c0-.047.227-.1.593-.04a2.827,2.827,0,0,1,2.122,1.774C2375.789,7873.705,2375.78,7873.936,2375.734,7873.946Z" fill="#263238"/>
          </g>
        </g>
        <g id="Grupo_324" data-name="Grupo 324">
          <g id="Grupo_323" data-name="Grupo 323">
            <path id="Trazado_486" data-name="Trazado 486" d="M2379.462,7867.71a7.665,7.665,0,0,0-.944-1.579c-.684-.751-1.535-.939-1.511-1.047.006-.047.236-.069.589.031a2.8,2.8,0,0,1,1.874,2C2379.547,7867.479,2379.509,7867.706,2379.462,7867.71Z" fill="#263238"/>
          </g>
        </g>
        <g id="Grupo_326" data-name="Grupo 326">
          <g id="Grupo_325" data-name="Grupo 325">
            <path id="Trazado_487" data-name="Trazado 487" d="M2361.2,7869.89c-.043.009-.164-.288-.183-.8a4,4,0,0,1,1.808-3.393c.437-.27.751-.335.767-.293a5.283,5.283,0,0,0-2.392,4.487Z" fill="#263238"/>
          </g>
        </g>
        <g id="Grupo_327" data-name="Grupo 327">
          <path id="Trazado_488" data-name="Trazado 488" d="M2370.1,7869.705" fill="none" stroke="#000" stroke-miterlimit="10" stroke-width="1"/>
        </g>
        <g id="Grupo_329" data-name="Grupo 329" opacity="0.4">
          <g id="Grupo_328" data-name="Grupo 328">
            <path id="Trazado_489" data-name="Trazado 489" d="M2350.45,7845.23c1.639,6.287,4.375,16.527,7.338,24.541a2.6,2.6,0,0,0,.565,1.017c.752.715,2.045.276,2.754-.483a18.421,18.421,0,0,0,1.614-2.466,3.184,3.184,0,0,1,2.346-1.6,2.766,2.766,0,0,1,2.083,1.046,11.59,11.59,0,0,1,1.275,2.037,1.542,1.542,0,0,0,.905.869.546.546,0,0,0,.646-.76l-2.621-6.793s-1.2-4.983-5.367-4.208c-4.657.867-2.545,8.514-2.545,8.514S2350.38,7844.963,2350.45,7845.23Z"/>
          </g>
        </g>
        <g id="Grupo_331" data-name="Grupo 331">
          <g id="Grupo_330" data-name="Grupo 330">
            <path id="Trazado_490" data-name="Trazado 490" d="M2370.1,7869.705a2.514,2.514,0,0,1-.225-.445c-.134-.3-.324-.739-.56-1.312-.473-1.192-1.128-2.845-1.931-4.871-.207-.512-.425-1.048-.669-1.6a4.932,4.932,0,0,0-.953-1.548,4.554,4.554,0,0,0-3.627-1.352,3.505,3.505,0,0,0-1.912.857,4.784,4.784,0,0,0-1.033,1.979,5.632,5.632,0,0,0-.158,2.326,18.8,18.8,0,0,0,.431,2.434l.215.872-.362.109c-1.075-3.084-2.308-5.937-3.434-8.522s-2.161-4.9-2.973-6.868-1.407-3.58-1.767-4.711c-.19-.561-.308-1.007-.392-1.307a2.15,2.15,0,0,1-.107-.464,2.386,2.386,0,0,1,.178.442c.107.293.247.729.458,1.282.4,1.113,1.03,2.707,1.873,4.655s1.9,4.254,3.046,6.831,2.393,5.436,3.476,8.539l-.363.109-.217-.88a19.123,19.123,0,0,1-.438-2.485,5.974,5.974,0,0,1,.181-2.48,5.1,5.1,0,0,1,1.135-2.122,3.84,3.84,0,0,1,2.125-.943,4.861,4.861,0,0,1,3.892,1.482,5.24,5.24,0,0,1,.994,1.647c.24.559.451,1.1.65,1.616.757,2.044,1.374,3.713,1.819,4.916.2.551.368.994.494,1.336A2.4,2.4,0,0,1,2370.1,7869.705Z" fill="#263238"/>
          </g>
        </g>
        <g id="Grupo_333" data-name="Grupo 333" opacity="0.4">
          <g id="Grupo_332" data-name="Grupo 332">
            <path id="Trazado_491" data-name="Trazado 491" d="M2370.474,7869.517c-.158.109-.042.39.146.431a.677.677,0,0,0,.525-.187,11.61,11.61,0,0,0,2.205-2.942,3.864,3.864,0,0,1,2.923-2.009,3.8,3.8,0,0,1,3.005,2.229,14.333,14.333,0,0,0,2.019,3.348,91.885,91.885,0,0,0,11.1-22.258,13.277,13.277,0,0,0-3.5,4.322l-7.452,12.429a9.663,9.663,0,0,0-2.1-3.314,4.094,4.094,0,0,0-3.612-1.157,5.379,5.379,0,0,0-3.164,2.963,17.742,17.742,0,0,0-1.991,6.192"/>
          </g>
        </g>
        <g id="Grupo_335" data-name="Grupo 335">
          <g id="Grupo_334" data-name="Grupo 334">
            <path id="Trazado_492" data-name="Trazado 492" d="M2468.179,7930.808a4.74,4.74,0,0,1-.5-.836c-.3-.549-.709-1.356-1.193-2.364a86.7,86.7,0,0,1-5.885-16.431c-.266-1.087-.463-1.97-.579-2.584a4.746,4.746,0,0,1-.147-.962,4.8,4.8,0,0,1,.291.928c.183.674.416,1.529.694,2.55.595,2.149,1.481,5.1,2.626,8.3s2.338,6.044,3.243,8.083c.433.965.8,1.773,1.082,2.411A4.848,4.848,0,0,1,2468.179,7930.808Z" fill="#263238"/>
          </g>
        </g>
        <g id="Grupo_337" data-name="Grupo 337">
          <g id="Grupo_336" data-name="Grupo 336">
            <path id="Trazado_493" data-name="Trazado 493" d="M2460.905,7929.37a4.045,4.045,0,0,1-.307-.837c-.178-.545-.4-1.344-.643-2.339a50.975,50.975,0,0,1-1.255-15.912c.084-1.021.178-1.845.268-2.411a4.023,4.023,0,0,1,.172-.875,4.078,4.078,0,0,1-.025.891c-.045.569-.1,1.394-.147,2.412a61.5,61.5,0,0,0,1.249,15.836c.208,1,.39,1.8.523,2.359A4.048,4.048,0,0,1,2460.905,7929.37Z" fill="#263238"/>
          </g>
        </g>
        <g id="Grupo_339" data-name="Grupo 339">
          <g id="Grupo_338" data-name="Grupo 338">
            <path id="Trazado_494" data-name="Trazado 494" d="M2484.283,7862.4a2.671,2.671,0,0,1,.585.224l.115.05-.122.044a103.285,103.285,0,0,1-14.6,3.735c-4.27.787-8.177,1.243-11.01,1.47-1.417.116-2.565.185-3.36.211a7.511,7.511,0,0,1-1.235.006,7.692,7.692,0,0,1,1.225-.153l3.345-.331c2.821-.295,6.71-.792,10.966-1.576,7.1-1.289,12.935-3.013,14.641-3.459l-.006.094A2.646,2.646,0,0,1,2484.283,7862.4Z" fill="#263238"/>
          </g>
        </g>
        <g id="Grupo_341" data-name="Grupo 341">
          <g id="Grupo_340" data-name="Grupo 340">
            <path id="Trazado_495" data-name="Trazado 495" d="M2477.693,7859.078c-.01-.011.075-.125.312-.193a1.217,1.217,0,0,1,.98.218,1.4,1.4,0,0,1,.632,1.362,1.131,1.131,0,0,1-.561.769,1.568,1.568,0,0,1-.978.18,1.618,1.618,0,0,1-.9-.419,1.206,1.206,0,0,1-.359-.878,1.529,1.529,0,0,1,.817-1.257,1.384,1.384,0,0,1,.988-.157c.234.061.328.164.319.177a1.633,1.633,0,0,0-1.168.21,1.292,1.292,0,0,0-.607,1.027,1,1,0,0,0,.961.92.978.978,0,0,0,1.149-.645,1.252,1.252,0,0,0-1.246-1.361C2477.822,7859.046,2477.71,7859.11,2477.693,7859.078Z" fill="#263238"/>
          </g>
        </g>
        <g id="Grupo_343" data-name="Grupo 343">
          <g id="Grupo_342" data-name="Grupo 342">
            <path id="Trazado_496" data-name="Trazado 496" d="M2364,7875.224a2.979,2.979,0,0,1-.418.365c-.289.221-.688.585-1.263.97a28.5,28.5,0,0,1-5.09,2.9,30.987,30.987,0,0,1-8.351,2.376,32.058,32.058,0,0,1-5.135.276,31.566,31.566,0,0,1-5.481-.679c-3.7-.836-7.039-2.2-10.178-3.042a27.422,27.422,0,0,0-4.512-.889,18.519,18.519,0,0,0-4,.039,12.233,12.233,0,0,0-5.413,1.907,19.3,19.3,0,0,0-1.657,1.34,7.321,7.321,0,0,1,1.573-1.461,12,12,0,0,1,5.462-2.052,18.492,18.492,0,0,1,4.06-.087,27.285,27.285,0,0,1,4.574.866c3.17.831,6.512,2.184,10.169,3.008a31.724,31.724,0,0,0,5.411.678,32.093,32.093,0,0,0,5.076-.251,31.542,31.542,0,0,0,8.291-2.275,30.985,30.985,0,0,0,5.113-2.77c.585-.364,1-.709,1.3-.909A3.1,3.1,0,0,1,2364,7875.224Z" fill="#fafafa"/>
          </g>
        </g>
        <g id="Grupo_345" data-name="Grupo 345">
          <g id="Grupo_344" data-name="Grupo 344">
            <path id="Trazado_497" data-name="Trazado 497" d="M2412.62,7906.733a1.348,1.348,0,0,1-.233-.107l-.661-.344c-.291-.148-.669-.3-1.1-.5-.452-.156-.96-.376-1.562-.53a24.112,24.112,0,0,0-10.422-.379,60.654,60.654,0,0,0-7.089,1.61c-2.526.69-5.216,1.49-8.115,2.08a29.729,29.729,0,0,1-9.244.564,44.2,44.2,0,0,1-9.682-2.277c-3.231-1.088-6.323-2.3-9.36-3.315a47.416,47.416,0,0,0-8.934-2.192,41.827,41.827,0,0,0-15.484.842,46.03,46.03,0,0,0-5.7,1.841c-.809.353-1.57.665-2.251.994s-1.305.63-1.848.933l-1.443.808-1.032.636-.637.389a1.388,1.388,0,0,1-.224.122,1.189,1.189,0,0,1,.2-.154l.618-.421c.274-.181.607-.415,1.014-.669l1.431-.84c.54-.314,1.167-.613,1.84-.967s1.44-.663,2.249-1.027a44.72,44.72,0,0,1,5.719-1.9,41.677,41.677,0,0,1,15.6-.929,47.505,47.505,0,0,1,9.005,2.186c3.05,1.012,6.145,2.225,9.362,3.308a44.188,44.188,0,0,0,9.6,2.268,29.585,29.585,0,0,0,9.138-.537c2.88-.577,5.568-1.363,8.1-2.041a59.488,59.488,0,0,1,7.131-1.572,23.8,23.8,0,0,1,10.5.5c.6.166,1.113.4,1.563.566.434.21.808.372,1.095.532l.646.379A1.306,1.306,0,0,1,2412.62,7906.733Z" fill="#fafafa"/>
          </g>
        </g>
        <g id="Grupo_347" data-name="Grupo 347">
          <g id="Grupo_346" data-name="Grupo 346">
            <path id="Trazado_498" data-name="Trazado 498" d="M2374.068,7874.683a17.5,17.5,0,0,0,1.956.429,14.117,14.117,0,0,0,5.4-.432,65,65,0,0,0,7.6-2.843,25.224,25.224,0,0,1,4.631-1.38,22,22,0,0,1,5.183-.3,30.135,30.135,0,0,1,9.708,2.331,52.42,52.42,0,0,1,7.24,3.753c1.98,1.211,3.533,2.265,4.6,2.994l1.225.853a2.675,2.675,0,0,1,.412.32,2.786,2.786,0,0,1-.454-.256l-1.264-.794c-1.1-.69-2.67-1.709-4.661-2.887a54.95,54.95,0,0,0-7.235-3.66,30.317,30.317,0,0,0-9.6-2.275,21.907,21.907,0,0,0-5.095.285,25.267,25.267,0,0,0-4.573,1.342,61.343,61.343,0,0,1-7.661,2.776,13.653,13.653,0,0,1-5.482.318A6.664,6.664,0,0,1,2374.068,7874.683Z" fill="#fafafa"/>
          </g>
        </g>
        <g id="Grupo_349" data-name="Grupo 349">
          <g id="Grupo_348" data-name="Grupo 348">
            <path id="Trazado_499" data-name="Trazado 499" d="M2418.783,7855.492a6.616,6.616,0,0,1-1.087.331c-.353.1-.787.208-1.3.308s-1.087.238-1.735.33a40.489,40.489,0,0,1-4.572.493,41.7,41.7,0,0,1-11.2-.953,40.58,40.58,0,0,1-4.423-1.257c-.624-.2-1.17-.431-1.654-.619s-.9-.366-1.226-.522a6.431,6.431,0,0,1-1.016-.51,6.685,6.685,0,0,1,1.072.374c.339.134.754.3,1.245.46s1.038.38,1.663.562c1.237.4,2.735.805,4.414,1.171a44.766,44.766,0,0,0,11.112.945c1.716-.078,3.26-.22,4.547-.409.647-.074,1.224-.191,1.734-.274s.948-.167,1.305-.243A6.546,6.546,0,0,1,2418.783,7855.492Z" fill="#fafafa"/>
          </g>
        </g>
        <g id="Grupo_351" data-name="Grupo 351">
          <g id="Grupo_350" data-name="Grupo 350">
            <path id="Trazado_500" data-name="Trazado 500" d="M2311.039,7860.409a1.911,1.911,0,0,1,.333-.3c.227-.182.562-.453,1-.785.879-.673,2.171-1.621,3.816-2.725a53.434,53.434,0,0,1,13.85-6.839,32.626,32.626,0,0,1,15.351-1.071,23.912,23.912,0,0,1,4.515,1.291c.521.191.9.4,1.168.514a1.9,1.9,0,0,1,.393.209c-.014.032-.576-.211-1.613-.584a26.53,26.53,0,0,0-4.51-1.166,33.421,33.421,0,0,0-15.193,1.17,56.28,56.28,0,0,0-13.814,6.7c-1.658,1.072-2.971,1.985-3.876,2.62l-1.045.727A2.1,2.1,0,0,1,2311.039,7860.409Z" fill="#fafafa"/>
          </g>
        </g>
        <g id="Grupo_353" data-name="Grupo 353">
          <g id="Grupo_352" data-name="Grupo 352">
            <path id="Trazado_501" data-name="Trazado 501" d="M2407.333,7940.643a1.071,1.071,0,0,1-.215.059l-.641.139a6.875,6.875,0,0,1-1.054.159l-.678.073-.776.021a28.285,28.285,0,0,1-9.088-1.673c-1.867-.582-3.885-1.295-6.082-1.946a36.928,36.928,0,0,0-7.153-1.387,62.04,62.04,0,0,0-16.655,1.194c-5.858,1.054-11.4,2.385-16.542,3a51.68,51.68,0,0,1-13.721.089,28.58,28.58,0,0,1-8.847-2.672c-.485-.255-.919-.473-1.287-.678l-.9-.572-.548-.358a.945.945,0,0,1-.179-.133,1.081,1.081,0,0,1,.2.1l.567.326.915.539,1.3.643a29.315,29.315,0,0,0,8.82,2.539,52.356,52.356,0,0,0,13.64-.17c5.118-.628,10.644-1.966,16.518-3.023a61.548,61.548,0,0,1,16.755-1.169,36.813,36.813,0,0,1,7.21,1.434c2.2.668,4.217,1.4,6.073,1.992a29.047,29.047,0,0,0,9.006,1.78l.77,0,.674-.055a7.769,7.769,0,0,0,1.052-.123l.645-.1A.95.95,0,0,1,2407.333,7940.643Z" fill="#fafafa"/>
          </g>
        </g>
        <g id="Grupo_355" data-name="Grupo 355" opacity="0.3">
          <g id="Grupo_354" data-name="Grupo 354">
            <path id="Trazado_502" data-name="Trazado 502" d="M2339.926,7945.913c3.468,8.651,10.178,14.8,19.411,16.068s18.574-.844,27.567-3.291c-16.351-2.287-30.813-4.553-46.978-12.777"/>
          </g>
        </g>
        <g id="Grupo_357" data-name="Grupo 357">
          <g id="Grupo_356" data-name="Grupo 356">
            <path id="Trazado_503" data-name="Trazado 503" d="M2409.675,7969.7a1.044,1.044,0,0,1-.226-.082l-.648-.277-2.475-1.1c-2.151-.945-5.233-2.4-9.084-4.066a39.709,39.709,0,0,0-6.48-2.192,20.773,20.773,0,0,0-7.774-.362,28.086,28.086,0,0,0-4.13.937,42.122,42.122,0,0,0-4.142,1.567c-2.764,1.2-5.51,2.706-8.337,4.221a66.5,66.5,0,0,1-8.506,3.959,26.414,26.414,0,0,1-8.564,1.743,19.242,19.242,0,0,1-7.752-1.52,51.337,51.337,0,0,1-6.141-3.123c-1.827-1.041-3.471-1.992-4.97-2.719a26.555,26.555,0,0,0-3.949-1.609,14.6,14.6,0,0,0-1.5-.4,8.4,8.4,0,0,0-1.12-.216l-.694-.111a1.187,1.187,0,0,1-.236-.05,1.048,1.048,0,0,1,.24.012l.7.073a7.618,7.618,0,0,1,1.133.182,13.73,13.73,0,0,1,1.521.373,25.536,25.536,0,0,1,4,1.559c1.516.713,3.175,1.651,5.009,2.676a51.864,51.864,0,0,0,6.126,3.065,18.992,18.992,0,0,0,7.629,1.463,26.188,26.188,0,0,0,8.442-1.743,67,67,0,0,0,8.455-3.944c2.825-1.514,5.581-3.019,8.367-4.227a42.023,42.023,0,0,1,4.184-1.573,28.253,28.253,0,0,1,4.188-.937,21.023,21.023,0,0,1,7.894.4,39.39,39.39,0,0,1,6.514,2.253c3.849,1.705,6.906,3.19,9.041,4.178l2.445,1.163.632.311A1.264,1.264,0,0,1,2409.675,7969.7Z" fill="#fafafa"/>
          </g>
        </g>
      </g>
    </g>
  </g>
</svg>
