<svg xmlns="http://www.w3.org/2000/svg" width="40" height="43.969" viewBox="0 0 40 43.969">
  <g id="Grupo_3811" data-name="Grupo 3811" transform="translate(-567.394 -1903.022)">
    <path id="Trazado_2686" data-name="Trazado 2686" d="M590.212,1912.828h4.06l-6.259-6.589v4.38A2.214,2.214,0,0,0,590.212,1912.828Z" fill="#fff"/>
    <path id="Trazado_2687" data-name="Trazado 2687" d="M574.8,1920.342h9.283a.917.917,0,0,1,0,1.833H574.8a.917.917,0,1,1,0-1.833Zm0,6.424a.917.917,0,1,1,0-1.833h11.638a12.787,12.787,0,0,1,8.357-3.152c.238,0,.458.027.733.036v-7.157h-5.315a4.04,4.04,0,0,1-4.032-4.041v-5.764H572.306a3.1,3.1,0,0,0-3.079,3.125v27.968a3.071,3.071,0,0,0,3.079,3.088v.009h10.768a12.2,12.2,0,0,1-.9-4.655,12.335,12.335,0,0,1,.348-2.95H574.8a.916.916,0,1,1,0-1.833h8.321a14.586,14.586,0,0,1,1.612-2.841Z" fill="#fff"/>
    <path id="Trazado_2688" data-name="Trazado 2688" d="M600.806,1935.453l-5.37,5.764a.91.91,0,0,1-1.338,0l-5.361-5.764a.912.912,0,0,1,.046-1.292.924.924,0,0,1,1.3.046l3.794,4.059v-10.007a.917.917,0,0,1,1.833,0v10.007l3.766-4.059a.911.911,0,1,1,1.329,1.246Zm-6.021-11.821a10.768,10.768,0,1,0,10.767,10.767A10.772,10.772,0,0,0,594.785,1923.632Z" fill="#db9600"/>
    <path id="Trazado_2689" data-name="Trazado 2689" d="M594.785,1945.167a10.768,10.768,0,1,1,10.767-10.768A10.778,10.778,0,0,1,594.785,1945.167Zm-11.665-15.56H574.8a.916.916,0,1,0,0,1.833h7.725a12.335,12.335,0,0,0-.348,2.95,12.2,12.2,0,0,0,.9,4.656H572.306v-.01a3.07,3.07,0,0,1-3.079-3.088V1907.98a3.1,3.1,0,0,1,3.079-3.125H586.18v5.764a4.04,4.04,0,0,0,4.032,4.041h5.315v7.157c-.275-.009-.495-.036-.733-.036a12.787,12.787,0,0,0-8.357,3.152H574.8a.917.917,0,1,0,0,1.833h9.933A14.586,14.586,0,0,0,583.12,1929.607Zm4.893-23.368,6.259,6.589h-4.06a2.214,2.214,0,0,1-2.2-2.209Zm9.347,15.817v-8.321a.961.961,0,0,0-.266-.632l-9.328-9.8a.93.93,0,0,0-.669-.285H572.306a4.928,4.928,0,0,0-4.912,4.958v27.968a4.9,4.9,0,0,0,4.912,4.921h11.675a12.6,12.6,0,1,0,13.379-18.813Z" fill="#023b5e"/>
    <path id="Trazado_2690" data-name="Trazado 2690" d="M574.8,1922.175h9.283a.917.917,0,0,0,0-1.833H574.8a.917.917,0,1,0,0,1.833Z" fill="#023b5e"/>
    <path id="Trazado_2691" data-name="Trazado 2691" d="M599.477,1934.207l-3.766,4.06V1928.26a.917.917,0,1,0-1.833,0v10.007l-3.794-4.06a.925.925,0,0,0-1.3-.046.912.912,0,0,0-.046,1.292l5.361,5.764a.908.908,0,0,0,1.338,0l5.37-5.764a.911.911,0,1,0-1.329-1.246Z" fill="#fff"/>
  </g>
</svg>
