<svg xmlns="http://www.w3.org/2000/svg" width="372.924" height="200.906" viewBox="0 0 372.924 200.906">
  <g id="Grupo_1140" data-name="Grupo 1140" transform="translate(-2183.315 -13709.164)">
    <path id="Trazado_1908" data-name="Trazado 1908" d="M2375.265,13900.065c-3.474-2.761-5.514-4.381-7.853-6.238,4.107-6.181,8.138-11.9,11.813-17.842,11.021-17.817,13.9-37.692,14-58.134.007-1.479-2.794-4.213-4.357-4.264-11.628-.376-23.274-.176-34.913-.256-4.959-.035-4.642,3.4-4.728,6.7-.491,18.849-3.554,37.286-11.209,54.542-5,11.276-11.226,22.051-17.451,32.729-3.732,6.4-6.3-.152-9.714-1.437,5.364-9.8,10.849-19.131,15.667-28.789,9.1-18.245,12.5-37.858,13.117-58.086.129-4.244-1.515-5.8-5.671-5.717-8.584.167-17.174.146-25.759.009-3.847-.062-5.6,1.537-5.73,5.347-1,29.037-15.016,51.783-35.207,72.23l-6.8-5.982c5.271-6.434,10.332-12.34,15.092-18.479a81.276,81.276,0,0,0,17.3-46.967c.213-4.388-.887-6.274-5.568-6.158-9.153.226-18.328-.235-27.468.172a10.66,10.66,0,0,0-6.972,3.689,126.6,126.6,0,0,1-58.739,41.879c-1.431.5-3.068,1.325-4.384,1.022-2.215-.51-4.78-1.351-6.145-2.951-.734-.861.192-3.987,1.268-5.413a67.5,67.5,0,0,0,13.839-45.548c-.717-13.629-4.648-26.157-12.966-37.245-1.431-1.907-1.295-4.991-1.882-7.531,2.78-.49,5.838-1.991,8.3-1.314,22.391,6.166,40.529,19.29,55.657,36.408,4.786,5.415,9.243,8.045,16.407,7.461a184.85,184.85,0,0,1,22.312-.061c4.888.193,6.716-1.223,6.418-6.475-1.044-18.448-7.914-34.381-19.693-48.383-4.143-4.925-8.32-9.821-12.408-14.644,5.917-7.47,5.731-7.3,11.763-.751,10.162,11.03,19.484,22.711,24.211,37.068,2.827,8.591,4.165,17.736,5.482,26.732.67,4.573,1.781,6.771,6.923,6.5,8.183-.427,16.41-.3,24.608-.045,4.57.144,5.982-1.68,5.873-6.059-.628-25.326-6.916-48.946-20.591-70.45-2.852-4.484-5.422-9.147-8.071-13.644,6.058-6.243,6.911-6.065,11.371.677,12.123,18.329,21.337,37.857,24.575,59.784,1.138,7.709,1.8,15.512,2.181,23.3.217,4.473,1.482,6.547,6.354,6.421,10.679-.275,21.376-.314,32.053,0,5,.15,6.088-1.86,5.978-6.4-.583-24.05-5.982-46.451-21.435-65.621-1.657-2.056-3.094-4.287-4.574-6.355,6.08-7,6.649-6.883,11.864-.052,15.992,20.944,23.186,44.817,23.491,70.883.066,5.613,1.667,7.812,7.532,7.563,9.906-.421,19.844-.271,29.762-.071,4.563.091,6.175-1.647,5.662-6.133-3.027-26.444-10.218-51.155-28.575-71.519-1.46-1.619-2.338-5.4-1.429-7.039.838-1.5,4.622-2.383,6.812-1.969,25.5,4.826,48.321,16.064,70.023,29.859,18.079,11.491,35.034,24.4,49.642,40.167a104.323,104.323,0,0,1,9.262,11.567c6.178,8.942,6.316,11.492-.161,20.514-11.132,15.5-25.586,27.714-40.831,38.889-23.181,16.991-47.909,31.2-75.748,39.273a80.684,80.684,0,0,1-13.4,2.806c-1.915.215-5.293-.759-5.732-2-.671-1.895.013-4.9,1.214-6.7,3.046-4.58,6.925-8.6,10.068-13.121,12.234-17.6,16.836-37.717,18.98-58.625.473-4.613-1.012-6.642-5.943-6.518q-15.16.381-30.336,0c-4.922-.132-6.57,1.516-6.71,6.549-.473,17.033-2.383,34.01-9.8,49.545C2388.233,13879.729,2381.632,13889.289,2375.265,13900.065Zm58.936-14,1.263.934c1.775-.473,3.589-.833,5.318-1.436,37.413-13.054,69.68-34.3,97-62.736,12.41-12.917,11.72-15.916-.425-28.651-26.022-27.286-57.13-47.234-92.163-61.068-3.244-1.281-6.732-1.945-11.943-3.412C2462.387,13782.755,2463.819,13834.406,2434.2,13886.068ZM2199.963,13773.3c10.961,24.86,10.661,48.306.386,72.359,2.439-.446,3.428-.408,4.2-.8,14.369-7.334,27.476-16.4,38.082-28.685,5.014-5.809,4.947-7.553-.091-13.214-10.12-11.372-22.239-20.2-35.637-27.315C2205.367,13774.829,2203.579,13774.5,2199.963,13773.3Z" fill="#023b5e"/>
    <path id="Trazado_1909" data-name="Trazado 1909" d="M2434.2,13886.068c29.618-51.662,28.186-103.313-.95-156.37,5.211,1.467,8.7,2.131,11.943,3.412,35.033,13.834,66.141,33.782,92.163,61.068,12.145,12.735,12.835,15.734.425,28.651-27.32,28.434-59.587,49.683-97,62.736-1.729.6-3.543.963-5.318,1.436Zm64.261-115.545a16.29,16.29,0,0,0-15.888,16.146c.151,8.11,7.952,15.623,16.086,15.492,8.255-.133,15.6-7.645,15.58-15.939C2514.223,13777.978,2506.706,13770.5,2498.462,13770.523Z" fill="#fff"/>
    <path id="Trazado_1910" data-name="Trazado 1910" d="M2199.963,13773.3c3.616,1.2,5.4,1.532,6.937,2.346,13.4,7.112,25.517,15.943,35.637,27.315,5.038,5.661,5.1,7.405.091,13.214-10.606,12.287-23.713,21.351-38.082,28.685-.769.392-1.758.354-4.2.8C2210.624,13821.6,2210.924,13798.157,2199.963,13773.3Z" fill="#fff"/>
    <path id="Trazado_1911" data-name="Trazado 1911" d="M2498.462,13770.523c8.244-.025,15.761,7.454,15.778,15.7.016,8.295-7.325,15.807-15.58,15.939-8.134.131-15.935-7.382-16.086-15.492A16.29,16.29,0,0,1,2498.462,13770.523Zm-.257,9.532c-4.132.041-6.365,2.281-6.422,6.265-.063,4.477,2.867,6.451,6.953,6.4,3.633-.046,6.134-1.923,6.033-5.943C2504.665,13782.6,2502.784,13779.975,2498.205,13780.056Z" fill="#023b5e"/>
    <path id="Trazado_1912" data-name="Trazado 1912" d="M2498.205,13780.056c4.579-.081,6.46,2.544,6.564,6.721.1,4.021-2.4,5.9-6.033,5.943-4.086.052-7.016-1.923-6.953-6.4C2491.84,13782.337,2494.073,13780.1,2498.205,13780.056Z" fill="#fff"/>
  </g>
</svg>
