<svg xmlns="http://www.w3.org/2000/svg" width="134.504" height="134.505" viewBox="0 0 134.504 134.505">
  <g id="Grupo_3868" data-name="Grupo 3868" transform="translate(-318.884 -8380.443)">
    <g id="Grupo_3840" data-name="Grupo 3840">
      <path id="Trazado_2901" data-name="Trazado 2901" d="M386.136,8380.443q3.3,0,6.591.323t6.529.97q3.24.643,6.4,1.6t6.214,2.225q3.053,1.264,5.966,2.821t5.661,3.393q2.746,1.835,5.3,3.932t4.89,4.432q2.337,2.338,4.432,4.891t3.932,5.3q1.835,2.748,3.393,5.661t2.822,5.966q1.263,3.053,2.223,6.214t1.6,6.4q.643,3.242.968,6.528t.324,6.593q0,3.3-.324,6.591t-.968,6.529q-.645,3.239-1.6,6.4t-2.223,6.214q-1.265,3.053-2.822,5.967t-3.393,5.66q-1.836,2.747-3.932,5.3t-4.432,4.89q-2.336,2.336-4.89,4.432t-5.3,3.933q-2.746,1.835-5.661,3.393t-5.966,2.821q-3.053,1.264-6.214,2.224t-6.4,1.6q-3.24.645-6.529.969t-6.591.324q-3.3,0-6.592-.324t-6.529-.969q-3.24-.645-6.4-1.6t-6.214-2.224q-3.052-1.264-5.966-2.821t-5.661-3.393q-2.746-1.837-5.3-3.933t-4.89-4.432q-2.336-2.335-4.432-4.89t-3.931-5.3q-1.836-2.748-3.393-5.66T324,8473.432q-1.264-3.051-2.224-6.214t-1.6-6.4q-.645-3.24-.969-6.529t-.323-6.591q0-3.3.323-6.593t.969-6.528q.644-3.24,1.6-6.4t2.224-6.214q1.265-3.053,2.822-5.966t3.393-5.661q1.835-2.747,3.931-5.3t4.432-4.891q2.337-2.335,4.89-4.432t5.3-3.932q2.748-1.835,5.661-3.393t5.966-2.821q3.053-1.266,6.214-2.225t6.4-1.6q3.241-.646,6.529-.97T386.136,8380.443Z" fill="#6595bf"/>
    </g>
    <circle id="Elipse_51" data-name="Elipse 51" cx="63.171" cy="63.171" r="63.171" transform="translate(322.964 8384.524)" fill="#fff"/>
    <g id="Grupo_3841" data-name="Grupo 3841">
      <circle id="Elipse_52" data-name="Elipse 52" cx="57.466" cy="57.466" r="57.466" transform="translate(328.121 8390.229)" fill="#aed3f2"/>
    </g>
    <g id="Grupo_3852" data-name="Grupo 3852">
      <path id="Trazado_2919" data-name="Trazado 2919" d="M427.537,8439.444H410.708a24.844,24.844,0,0,0-47.445,0h-16.83v14.746h16.83a24.845,24.845,0,0,0,47.445,0h16.829Z" fill="#5b6ea2"/>
      <path id="Trazado_2920" data-name="Trazado 2920" d="M427.537,8448.175H406.388a1.358,1.358,0,1,1,0-2.716h21.149a1.358,1.358,0,1,1,0,2.716Z" fill="#4a5983"/>
      <path id="Trazado_2921" data-name="Trazado 2921" d="M367.582,8448.175H346.433a1.358,1.358,0,1,1,0-2.716h21.149a1.358,1.358,0,1,1,0,2.716Z" fill="#4a5983"/>
      <circle id="Elipse_61" data-name="Elipse 61" cx="19.403" cy="19.403" r="19.403" transform="translate(367.582 8427.414)" fill="#eef0f1"/>
      <rect id="Rect치ngulo_1810" data-name="Rect치ngulo 1810" width="7.761" height="26.129" rx="2.328" transform="translate(427.537 8433.753)" fill="#86dbd5"/>
      <rect id="Rect치ngulo_1811" data-name="Rect치ngulo 1811" width="7.761" height="26.129" rx="2.328" transform="translate(338.672 8433.752)" fill="#86dbd5"/>
      <path id="Trazado_2922" data-name="Trazado 2922" d="M373.791,8446.817a13.158,13.158,0,0,0,.585,3.881H399.6a13.181,13.181,0,0,0,0-7.762H374.376a13.158,13.158,0,0,0-.585,3.881Z" fill="#f7d56b"/>
      <path id="Trazado_2923" data-name="Trazado 2923" d="M380.97,8442.937H393v7.762H380.97Z" fill="#ec7887"/>
      <g id="Grupo_3851" data-name="Grupo 3851">
        <path id="Trazado_2924" data-name="Trazado 2924" d="M397.414,8457.44H376.653a1.358,1.358,0,0,1,0-2.717h20.761a1.358,1.358,0,0,1,0,2.717Z" fill="#d6d8d8"/>
        <path id="Trazado_2925" data-name="Trazado 2925" d="M390.639,8462.1h-7.211a1.358,1.358,0,1,1,0-2.716h7.211a1.358,1.358,0,1,1,0,2.716Z" fill="#d6d8d8"/>
        <path id="Trazado_2926" data-name="Trazado 2926" d="M397.414,8438.911H376.653a1.358,1.358,0,0,1,0-2.717h20.761a1.358,1.358,0,0,1,0,2.717Z" fill="#d6d8d8"/>
        <path id="Trazado_2927" data-name="Trazado 2927" d="M390.639,8434.254h-7.211a1.358,1.358,0,1,1,0-2.716h7.211a1.358,1.358,0,1,1,0,2.716Z" fill="#d6d8d8"/>
      </g>
      <path id="Trazado_2928" data-name="Trazado 2928" d="M378.983,8424.657a1.353,1.353,0,0,0,.437-.072c.615-.209,1.247-.395,1.878-.551a1.36,1.36,0,0,0-.655-2.64c-.705.176-1.41.383-2.1.615a1.358,1.358,0,0,0,.437,2.645Z"/>
      <path id="Trazado_2929" data-name="Trazado 2929" d="M435.3,8449.533a1.356,1.356,0,0,0,1.358-1.356v-12.1a3.69,3.69,0,0,0-3.686-3.687h-3.105a3.69,3.69,0,0,0-3.686,3.687v2H411.688a26.062,26.062,0,0,0-24.7-17.463,1.358,1.358,0,0,0,0,2.717,23.368,23.368,0,0,1,22.43,16.507,1.356,1.356,0,0,0,1.3.955h15.468v4.657H407.7a20.756,20.756,0,0,0-41.424,0H347.792V8440.8h15.471a1.357,1.357,0,0,0,1.3-.955,23.569,23.569,0,0,1,9.459-12.6,1.359,1.359,0,0,0-1.5-2.264,26.319,26.319,0,0,0-10.233,13.107H347.792v-2a3.692,3.692,0,0,0-3.687-3.687H341a3.692,3.692,0,0,0-3.687,3.687v21.472A3.693,3.693,0,0,0,341,8461.24h3.1a3.693,3.693,0,0,0,3.687-3.687v-2h14.49a26.2,26.2,0,0,0,49.406,0h14.491v2a3.691,3.691,0,0,0,3.686,3.688h3.105a3.691,3.691,0,0,0,3.686-3.687v-2.829a1.358,1.358,0,0,0-2.716,0v2.829a.973.973,0,0,1-.97.971h-3.105a.973.973,0,0,1-.97-.971v-21.472a.972.972,0,0,1,.97-.97h3.105a.972.972,0,0,1,.97.97v12.094a1.357,1.357,0,0,0,1.357,1.358Zm-48.313-20.761a18.045,18.045,0,1,1-18.044,18.045A18.044,18.044,0,0,1,386.985,8428.772Zm-41.91,28.78a.972.972,0,0,1-.97.971H341a.971.971,0,0,1-.97-.971v-21.472a.971.971,0,0,1,.97-.97h3.1a.971.971,0,0,1,.97.97Zm65.632-4.721a1.356,1.356,0,0,0-1.3.955,23.486,23.486,0,0,1-44.851,0,1.357,1.357,0,0,0-1.3-.955H347.792v-4.657h18.481a20.756,20.756,0,0,0,41.424,0h18.482v4.657Z" fill="#023b5e"/>
      <path id="Trazado_2930" data-name="Trazado 2930" d="M380.97,8452.056H399.6a1.359,1.359,0,0,0,1.3-.958,14.528,14.528,0,0,0,0-8.562,1.359,1.359,0,0,0-1.3-.958H374.376a1.359,1.359,0,0,0-1.3.958,14.528,14.528,0,0,0,0,8.562,1.359,1.359,0,0,0,1.3.958Zm17.851-5.238a11.811,11.811,0,0,1-.272,2.521h-4.191v-5.044h4.191A11.689,11.689,0,0,1,398.821,8446.817Zm-7.179-2.522v5.044h-9.313v-5.044Zm-16.221,0h4.191v5.044h-4.191A11.818,11.818,0,0,1,375.421,8444.295Z"/>
      <path id="Trazado_2931" data-name="Trazado 2931" d="M397.414,8454.724H376.653a1.358,1.358,0,0,0,0,2.717h20.761a1.358,1.358,0,0,0,0-2.717Z"/>
      <path id="Trazado_2932" data-name="Trazado 2932" d="M390.639,8459.381h-7.211a1.358,1.358,0,1,0,0,2.716h7.211a1.358,1.358,0,1,0,0-2.716Z"/>
      <path id="Trazado_2933" data-name="Trazado 2933" d="M376.653,8438.911h20.761a1.358,1.358,0,0,0,0-2.717H376.653a1.358,1.358,0,0,0,0,2.717Z"/>
      <path id="Trazado_2934" data-name="Trazado 2934" d="M383.428,8434.254h7.211a1.358,1.358,0,1,0,0-2.716h-7.211a1.358,1.358,0,1,0,0,2.716Z"/>
    </g>
  </g>
</svg>
