<svg xmlns="http://www.w3.org/2000/svg" width="134.504" height="134.504" viewBox="0 0 134.504 134.504">
  <g id="Grupo_3870" data-name="Grupo 3870" transform="translate(-318.884 -8692.19)">
    <g id="Grupo_3844" data-name="Grupo 3844">
      <path id="Trazado_2903" data-name="Trazado 2903" d="M386.136,8692.19q3.3,0,6.591.322t6.529.97q3.24.645,6.4,1.6t6.214,2.224q3.053,1.266,5.966,2.822t5.661,3.394q2.746,1.834,5.3,3.931t4.89,4.432q2.337,2.338,4.432,4.891t3.932,5.3q1.835,2.747,3.393,5.66t2.822,5.967q1.263,3.051,2.223,6.214t1.6,6.4q.643,3.24.968,6.527t.324,6.593q0,3.3-.324,6.592t-.968,6.527q-.645,3.24-1.6,6.4t-2.223,6.214q-1.265,3.053-2.822,5.966t-3.393,5.661q-1.836,2.747-3.932,5.3T433.69,8807q-2.336,2.336-4.89,4.432t-5.3,3.933q-2.746,1.835-5.661,3.393t-5.966,2.822q-3.053,1.263-6.214,2.223t-6.4,1.6q-3.24.645-6.529.968t-6.591.324q-3.3,0-6.592-.324t-6.529-.968q-3.24-.646-6.4-1.6t-6.214-2.223q-3.052-1.264-5.966-2.822t-5.661-3.393q-2.746-1.837-5.3-3.933t-4.89-4.432q-2.336-2.335-4.432-4.89t-3.931-5.3q-1.836-2.747-3.393-5.661T324,8785.178q-1.264-3.053-2.224-6.214t-1.6-6.4q-.645-3.239-.969-6.527t-.323-6.592q0-3.3.323-6.593t.969-6.527q.644-3.242,1.6-6.4t2.224-6.214q1.265-3.053,2.822-5.967t3.393-5.66q1.835-2.748,3.931-5.3t4.432-4.891q2.337-2.335,4.89-4.432t5.3-3.931q2.748-1.837,5.661-3.394t5.966-2.822q3.053-1.264,6.214-2.224t6.4-1.6q3.241-.646,6.529-.97T386.136,8692.19Z" fill="#6595bf"/>
    </g>
    <circle id="Elipse_55" data-name="Elipse 55" cx="63.171" cy="63.171" r="63.171" transform="translate(322.964 8696.271)" fill="#fff"/>
    <g id="Grupo_3845" data-name="Grupo 3845">
      <circle id="Elipse_56" data-name="Elipse 56" cx="57.466" cy="57.466" r="57.466" transform="translate(328.121 8701.976)" fill="#aed3f2"/>
    </g>
    <g id="Grupo_3849" data-name="Grupo 3849">
      <path id="Trazado_2904" data-name="Trazado 2904" d="M414.2,8762.061h-57.62a5.85,5.85,0,0,0-5.849,5.85v18.78h9.46a2.525,2.525,0,0,0,2.524-2.524v-.2a6.6,6.6,0,0,1,6.6-6.6h32.146a6.6,6.6,0,0,1,6.6,6.6v.2a2.525,2.525,0,0,0,2.524,2.524h9.46v-18.78A5.849,5.849,0,0,0,414.2,8762.061Z" fill="none" stroke="#344154" stroke-linecap="round" stroke-linejoin="round" stroke-width="3"/>
      <g id="Grupo_3846" data-name="Grupo 3846">
        <line id="Línea_70" data-name="Línea 70" y2="12.653" transform="translate(393.039 8749.408)" fill="none" stroke="#344154" stroke-linecap="round" stroke-linejoin="round" stroke-width="3"/>
        <line id="Línea_71" data-name="Línea 71" y2="12.653" transform="translate(377.541 8749.408)" fill="none" stroke="#344154" stroke-linecap="round" stroke-linejoin="round" stroke-width="3"/>
        <circle id="Elipse_57" data-name="Elipse 57" cx="7.194" cy="7.194" r="7.194" transform="translate(375.995 8723.656) rotate(-22.5)" fill="none" stroke="#344154" stroke-linecap="round" stroke-linejoin="round" stroke-width="3"/>
        <path id="Trazado_2905" data-name="Trazado 2905" d="M371.7,8762.061v-18.175a4.679,4.679,0,0,1,4.679-4.679H394.41a4.679,4.679,0,0,1,4.679,4.679v18.175" fill="none" stroke="#344154" stroke-linecap="round" stroke-linejoin="round" stroke-width="3"/>
        <line id="Línea_72" data-name="Línea 72" y2="8.338" transform="translate(385.395 8739.207)" fill="none" stroke="#344154" stroke-linecap="round" stroke-linejoin="round" stroke-width="3"/>
      </g>
      <g id="Grupo_3847" data-name="Grupo 3847">
        <line id="Línea_73" data-name="Línea 73" y2="9.777" transform="translate(411.052 8745.047)" fill="none" stroke="#344154" stroke-linecap="round" stroke-linejoin="round" stroke-width="3"/>
        <circle id="Elipse_58" data-name="Elipse 58" cx="5.559" cy="5.559" r="5.559" transform="matrix(0.23, -0.973, 0.973, 0.23, 398.459, 8732.291)" fill="none" stroke="#344154" stroke-linecap="round" stroke-linejoin="round" stroke-width="3"/>
        <path id="Trazado_2906" data-name="Trazado 2906" d="M399.078,8737.165h13.033a3.616,3.616,0,0,1,3.616,3.615v14.043" fill="none" stroke="#344154" stroke-linecap="round" stroke-linejoin="round" stroke-width="3"/>
        <line id="Línea_74" data-name="Línea 74" y2="6.442" transform="translate(405.146 8737.165)" fill="none" stroke="#344154" stroke-linecap="round" stroke-linejoin="round" stroke-width="3"/>
      </g>
      <g id="Grupo_3848" data-name="Grupo 3848">
        <line id="Línea_75" data-name="Línea 75" y2="9.777" transform="translate(359.588 8745.047)" fill="none" stroke="#344154" stroke-linecap="round" stroke-linejoin="round" stroke-width="3"/>
        <circle id="Elipse_59" data-name="Elipse 59" cx="5.559" cy="5.559" r="5.559" transform="translate(358.393 8725.149) rotate(-22.5)" fill="none" stroke="#344154" stroke-linecap="round" stroke-linejoin="round" stroke-width="3"/>
        <path id="Trazado_2907" data-name="Trazado 2907" d="M355.075,8754.823V8740.78a3.615,3.615,0,0,1,3.615-3.615h13.55" fill="none" stroke="#344154" stroke-linecap="round" stroke-linejoin="round" stroke-width="3"/>
        <line id="Línea_76" data-name="Línea 76" y2="6.442" transform="translate(365.656 8737.165)" fill="none" stroke="#344154" stroke-linecap="round" stroke-linejoin="round" stroke-width="3"/>
      </g>
      <path id="Trazado_2908" data-name="Trazado 2908" d="M416.836,8767.91a2.633,2.633,0,0,0-2.631-2.631h-57.62a2.633,2.633,0,0,0-2.631,2.631v2.052h62.882Z" fill="#db9600"/>
    </g>
  </g>
</svg>
