<svg xmlns="http://www.w3.org/2000/svg" width="152.443" height="152.442" viewBox="0 0 152.443 152.442">
  <g id="Grupo_3874" data-name="Grupo 3874" transform="translate(-438.44 -10201.161)">
    <path id="Trazado_3028" data-name="Trazado 3028" d="M514.662,10201.161q3.744,0,7.471.367t7.4,1.1q3.672.731,7.256,1.817t7.043,2.52q3.459,1.434,6.761,3.2t6.416,3.846q3.114,2.08,6.008,4.456t5.543,5.023q2.647,2.647,5.023,5.542t4.456,6.008q2.08,3.114,3.845,6.416t3.2,6.762q1.434,3.458,2.52,7.043t1.818,7.256q.73,3.672,1.1,7.4t.367,7.471q0,3.744-.367,7.471t-1.1,7.4q-.73,3.672-1.818,7.256t-2.52,7.043q-1.433,3.46-3.2,6.763t-3.845,6.414q-2.081,3.114-4.456,6.009t-5.023,5.542q-2.649,2.648-5.543,5.023t-6.008,4.456q-3.113,2.082-6.416,3.845t-6.761,3.2q-3.461,1.434-7.043,2.521t-7.256,1.817q-3.673.731-7.4,1.1t-7.471.366q-3.746,0-7.471-.366t-7.4-1.1q-3.674-.729-7.256-1.817t-7.043-2.521q-3.459-1.433-6.762-3.2t-6.416-3.845q-3.113-2.08-6.008-4.456t-5.542-5.023q-2.648-2.647-5.023-5.542t-4.456-6.009q-2.081-3.111-3.846-6.414t-3.2-6.763q-1.433-3.46-2.52-7.043t-1.817-7.256q-.73-3.672-1.1-7.4t-.367-7.471q0-3.744.367-7.471t1.1-7.4q.73-3.672,1.817-7.256t2.52-7.043q1.434-3.458,3.2-6.762t3.846-6.416q2.08-3.113,4.456-6.008t5.023-5.542q2.647-2.648,5.542-5.023t6.008-4.456q3.114-2.08,6.416-3.846t6.762-3.2q3.459-1.433,7.043-2.52t7.256-1.817q3.672-.731,7.4-1.1T514.662,10201.161Z" fill="#db9600"/>
    <circle id="Elipse_62" data-name="Elipse 62" cx="71.597" cy="71.597" r="71.597" transform="translate(443.065 10205.786)" fill="#fff"/>
    <circle id="Elipse_63" data-name="Elipse 63" cx="65.13" cy="65.13" r="65.13" transform="translate(449.532 10212.253)" fill="#f2f2f2"/>
    <circle id="Elipse_66" data-name="Elipse 66" cx="65.478" cy="65.478" r="65.478" transform="translate(449.532 10212.977)" fill="#00c2db"/>
    <g id="Grupo_3866" data-name="Grupo 3866">
      <rect id="Rectángulo_1818" data-name="Rectángulo 1818" width="6.704" height="4.75" rx="1.061" transform="translate(489.671 10250.176)" fill="none" stroke="#023b5e" stroke-linecap="round" stroke-linejoin="round" stroke-width="3"/>
      <rect id="Rectángulo_1819" data-name="Rectángulo 1819" width="6.704" height="4.75" rx="1.061" transform="translate(501.373 10250.176)" fill="none" stroke="#023b5e" stroke-linecap="round" stroke-linejoin="round" stroke-width="3"/>
      <line id="Línea_91" data-name="Línea 91" x2="4.998" transform="translate(496.375 10251.923)" fill="none" stroke="#023b5e" stroke-linecap="round" stroke-linejoin="round" stroke-width="3"/>
      <line id="Línea_92" data-name="Línea 92" x2="3.416" y2="0.988" transform="translate(485.544 10250.717)" fill="none" stroke="#023b5e" stroke-linecap="round" stroke-linejoin="round" stroke-width="3"/>
      <line id="Línea_93" data-name="Línea 93" y1="1.011" x2="3.34" transform="translate(508.787 10250.693)" fill="none" stroke="#023b5e" stroke-linecap="round" stroke-linejoin="round" stroke-width="3"/>
      <path id="Trazado_3048" data-name="Trazado 3048" d="M511.534,10246.764a63.177,63.177,0,0,1,1.043,9.811,12.449,12.449,0,0,1-2.83,7.882,7.6,7.6,0,0,0-1.593,5.677l.11.938a2.48,2.48,0,0,0,1.079,1.772" fill="none" stroke="#023b5e" stroke-linecap="round" stroke-linejoin="round" stroke-width="3"/>
      <path id="Trazado_3049" data-name="Trazado 3049" d="M498.836,10224.258c6.663,0,13.644,3.707,16.434,9.942a29.63,29.63,0,0,1,2.075,8.74c.489,4.211.705,8.217,2.722,12.015" fill="none" stroke="#023b5e" stroke-linecap="round" stroke-linejoin="round" stroke-width="3"/>
      <path id="Trazado_3050" data-name="Trazado 3050" d="M498.836,10224.258c-6.663,0-13.645,3.707-16.435,9.942a29.662,29.662,0,0,0-2.075,8.74c-.489,4.211-.7,8.217-2.722,12.015a9.1,9.1,0,0,1-7.3,5.15,13.46,13.46,0,0,0,13.85,5.85" fill="none" stroke="#023b5e" stroke-linecap="round" stroke-linejoin="round" stroke-width="3"/>
      <path id="Trazado_3051" data-name="Trazado 3051" d="M488.328,10272.844l10.508,7.846,6.9-5.152" fill="none" stroke="#023b5e" stroke-linecap="round" stroke-linejoin="round" stroke-width="3"/>
      <path id="Trazado_3052" data-name="Trazado 3052" d="M511.539,10246.636a9.86,9.86,0,0,1-8.56-2.812c-1.336-1.38-2.232-3.122-3.442-4.615l-.036-.045a6.087,6.087,0,0,0-7.162-1.647h0a10.14,10.14,0,0,0-5.891,7.471,71.693,71.693,0,0,0-1.354,11.588,12.462,12.462,0,0,0,2.708,7.729,7.927,7.927,0,0,1,1.715,5.829l-.109.938a2.488,2.488,0,0,1-1.776,2.1l-11.411,3.313a10.772,10.772,0,0,0-4.424,2.321,13.172,13.172,0,0,0-4.513,7.547v20.959a5.227,5.227,0,0,0,5.227,5.228h38.048a5.228,5.228,0,0,0,5.228-5.228v-33.81a7.425,7.425,0,0,1,7.425-7.425h26.9" fill="none" stroke="#023b5e" stroke-linecap="round" stroke-linejoin="round" stroke-width="3"/>
      <circle id="Elipse_68" data-name="Elipse 68" cx="7.409" cy="7.409" r="7.409" transform="translate(541.754 10301.054)" fill="none" stroke="#023b5e" stroke-linecap="round" stroke-linejoin="round" stroke-width="3"/>
      <path id="Trazado_3053" data-name="Trazado 3053" d="M549.163,10308.463a3.133,3.133,0,0,1,2.708,1.573,3.109,3.109,0,0,0,.438-1.573,3.146,3.146,0,1,0-5.854,1.573A3.135,3.135,0,0,1,549.163,10308.463Z" fill="#fff"/>
      <path id="Trazado_3054" data-name="Trazado 3054" d="M549.163,10315.879l-7.11,7.109-.866-5.595-5.6-.867,6.361-6.36" fill="none" stroke="#023b5e" stroke-linecap="round" stroke-linejoin="round" stroke-width="3"/>
      <path id="Trazado_3055" data-name="Trazado 3055" d="M549.163,10315.879l7.11,7.109.866-5.595,5.6-.867-6.363-6.352" fill="none" stroke="#023b5e" stroke-linecap="round" stroke-linejoin="round" stroke-width="3"/>
      <line id="Línea_94" data-name="Línea 94" x2="19.614" transform="translate(525.266 10281.605)" fill="none" stroke="#023b5e" stroke-linecap="round" stroke-linejoin="round" stroke-width="3"/>
      <line id="Línea_95" data-name="Línea 95" y1="16.755" transform="translate(550.113 10280.103)" fill="none" stroke="#023b5e" stroke-linecap="round" stroke-linejoin="round" stroke-width="3"/>
      <path id="Trazado_3056" data-name="Trazado 3056" d="M550.113,10266.076a6.1,6.1,0,0,1,4.335,10.4H522.337a6.116,6.116,0,0,0,1.593-5.749" fill="none" stroke="#023b5e" stroke-linecap="round" stroke-linejoin="round" stroke-width="3"/>
      <line id="Línea_96" data-name="Línea 96" y1="8.247" transform="translate(536.5 10251.452)" fill="none" stroke="#023b5e" stroke-linecap="round" stroke-linejoin="round" stroke-width="3"/>
      <g id="Grupo_3865" data-name="Grupo 3865">
        <line id="Línea_97" data-name="Línea 97" y1="7.541" x2="3.933" transform="translate(543.002 10252.158)" fill="none" stroke="#023b5e" stroke-linecap="round" stroke-linejoin="round" stroke-width="3"/>
        <line id="Línea_98" data-name="Línea 98" x1="3.933" y1="7.541" transform="translate(526.066 10252.158)" fill="none" stroke="#023b5e" stroke-linecap="round" stroke-linejoin="round" stroke-width="3"/>
      </g>
      <line id="Línea_99" data-name="Línea 99" x2="15.871" transform="translate(520.748 10305.729)" fill="none" stroke="#023b5e" stroke-linecap="round" stroke-linejoin="round" stroke-width="3"/>
      <line id="Línea_100" data-name="Línea 100" y2="20.364" transform="translate(498.836 10280.689)" fill="none" stroke="#023b5e" stroke-linecap="round" stroke-linejoin="round" stroke-width="3"/>
      <path id="Trazado_3057" data-name="Trazado 3057" d="M477.41,10280.578l-.136.039-.139.031a6.486,6.486,0,0,0-2.629,1.449,8.892,8.892,0,0,0-2.958,4.72v20.492a.964.964,0,0,0,.964.965H477.5v-8.206a16.571,16.571,0,0,1,10.885-15.565l5.66-2.067-6.451-4.815Z" fill="#ffc524"/>
    </g>
  </g>
</svg>
