<svg xmlns="http://www.w3.org/2000/svg" xmlns:xlink="http://www.w3.org/1999/xlink" width="381.484" height="242.769" viewBox="0 0 381.484 242.769">
  <defs>
    <linearGradient id="linear-gradient" y1="0.5" x2="1" y2="0.5" gradientUnits="objectBoundingBox">
      <stop offset="0" stop-color="#fff"/>
      <stop offset="0.354" stop-color="#e8f5ff"/>
      <stop offset="0.702" stop-color="#daefff"/>
      <stop offset="1" stop-color="#d6edff"/>
    </linearGradient>
    <linearGradient id="linear-gradient-2" x1="0" y1="0.5" x2="1" y2="0.5" xlink:href="#linear-gradient"/>
  </defs>
  <g id="Grupo_955" data-name="Grupo 955" transform="translate(-2196.802 -9441.337)">
    <g id="Grupo_866" data-name="Grupo 866">
      <path id="Trazado_1116" data-name="Trazado 1116" d="M2273.432,9482.746l-7.031,9.935c-.02-.045-.047-.086-.066-.131-.657-1.492-1.164-3.015-1.716-4.5a.448.448,0,0,0-.014-.244,7.152,7.152,0,0,1-.489-3.8c.2-.938.579-1.818.754-2.765a7.688,7.688,0,0,0-2.449-7.654c-.442-.354-1,.325-.555.678,2.523,2.017,2.7,5.35,1.788,8.249a8.875,8.875,0,0,0-.425,2.313,13.075,13.075,0,0,0-2.6-3.522c-.411-.388-.964.291-.555.68,3.288,3.113,3.922,7.588,5.74,11.538l-.013.019a9.005,9.005,0,0,0-2.366-.913c-2.075-.485-4.924-.036-6.076-2.275-.255-.5-1.083-.2-.826.3.957,1.856,2.717,2.313,4.662,2.546a12,12,0,0,1,4.065,1.108l-6.044,8.54c-2.148-2.012-5.826-1.4-7.853-10.184-.91-3.939-2.65-13.125-4.286-15.189-1.672-1.859-4.833-6.406-3.216-8.6,2.682-3.644,7.391.774,10.262.346,10.413-1.545,16.242,7.1,17.808,10.771A15.567,15.567,0,0,0,2273.432,9482.746Z" fill="#ffd4b3"/>
      <path id="Trazado_1117" data-name="Trazado 1117" d="M2265.8,9493.533l-.541.765a12,12,0,0,0-4.065-1.108c-1.945-.233-3.7-.689-4.662-2.546-.257-.5.571-.795.826-.3,1.152,2.239,4,1.79,6.076,2.275A9.005,9.005,0,0,1,2265.8,9493.533Z" fill="#fff"/>
      <path id="Trazado_1118" data-name="Trazado 1118" d="M2264.87,9481.234c-.175.946-.556,1.826-.754,2.765a7.152,7.152,0,0,0,.489,3.8.448.448,0,0,1,.014.244c.552,1.487,1.059,3.01,1.716,4.5.019.045.046.086.066.131l-.59.834c-1.818-3.95-2.452-8.425-5.74-11.538-.409-.389.144-1.067.555-.68a13.075,13.075,0,0,1,2.6,3.522,8.875,8.875,0,0,1,.425-2.312c.907-2.9.735-6.232-1.788-8.249-.444-.353.113-1.031.555-.678A7.688,7.688,0,0,1,2264.87,9481.234Z" fill="#fff"/>
    </g>
    <g id="Grupo_867" data-name="Grupo 867">
      <path id="Trazado_1119" data-name="Trazado 1119" d="M2502.257,9496.336l3.053-11.782c.035.035.074.064.109.1,1.143,1.162,2.157,2.406,3.2,3.6a.442.442,0,0,0,.1.223,7.145,7.145,0,0,1,1.806,3.386c.147.946.1,1.9.275,2.853a7.689,7.689,0,0,0,5,6.289.438.438,0,0,0,.278-.831c-3.073-.991-4.416-4.047-4.595-7.08a8.912,8.912,0,0,0-.422-2.312,13.1,13.1,0,0,0,3.682,2.37c.522.218.8-.613.278-.832-4.178-1.745-6.356-5.705-9.456-8.755l.005-.021a9.006,9.006,0,0,0,2.537.015c2.111-.281,4.616-1.712,6.488-.025.414.373,1.083-.194.666-.572-1.553-1.4-3.36-1.2-5.262-.728a12.022,12.022,0,0,1-4.194.4l2.625-10.128c2.722,1.12,5.943-.758,10.953,6.739,2.247,3.361,7.129,11.334,9.39,12.684,2.223,1.147,6.791,4.278,6.057,6.907-1.216,4.358-7.185,1.9-9.718,3.313-9.189,5.136-17.7-.88-20.47-3.761A15.5,15.5,0,0,0,2502.257,9496.336Z" fill="#ffd4b3"/>
      <path id="Trazado_1120" data-name="Trazado 1120" d="M2505.572,9483.544l.235-.907a12.022,12.022,0,0,0,4.194-.4c1.9-.472,3.709-.669,5.262.728.417.378-.252.945-.666.572-1.872-1.687-4.377-.256-6.488.025A9.006,9.006,0,0,1,2505.572,9483.544Z" fill="#fff"/>
      <path id="Trazado_1121" data-name="Trazado 1121" d="M2510.8,9494.716c-.172-.948-.128-1.906-.275-2.853a7.145,7.145,0,0,0-1.806-3.386.442.442,0,0,1-.1-.223c-1.043-1.2-2.057-2.439-3.2-3.6-.035-.035-.074-.064-.109-.1l.257-.988c3.1,3.05,5.278,7.01,9.456,8.755.521.219.244,1.05-.278.832a13.1,13.1,0,0,1-3.682-2.37,8.912,8.912,0,0,1,.422,2.312c.179,3.033,1.522,6.089,4.595,7.08a.438.438,0,0,1-.278.831A7.689,7.689,0,0,1,2510.8,9494.716Z" fill="#fff"/>
    </g>
    <g id="Grupo_868" data-name="Grupo 868">
      <path id="Trazado_1122" data-name="Trazado 1122" d="M2267.407,9566.41c-.223.051-.447.1-.669.153a.435.435,0,0,0-.243-.018,7.141,7.141,0,0,1-3.837.013c-.905-.312-1.731-.8-2.65-1.092a7.689,7.689,0,0,0-7.9,1.48c-.4.394.2,1.029.606.634,2.313-2.252,5.642-2.009,8.407-.749a8.9,8.9,0,0,0,2.241.709,13.087,13.087,0,0,0-3.818,2.145c-.437.36.168.993.6.636a16.686,16.686,0,0,1,7.258-3.059v13.24c-4.538.407-11.453,1-13.348,2.154-2.055,1.428-6.959,4-8.939,2.122-3.281-3.113,1.687-7.237,1.619-10.141-.241-10.522,9.06-15.233,12.9-16.331,4.831-1.379,6.927-4.045,7.768-6.629Z" fill="#ffd4b3"/>
      <path id="Trazado_1123" data-name="Trazado 1123" d="M2262.658,9566.559a7.141,7.141,0,0,0,3.837-.013.435.435,0,0,1,.243.018c.222-.053.446-.1.669-.153v.853a16.686,16.686,0,0,0-7.258,3.059c-.437.357-1.042-.275-.6-.636a13.087,13.087,0,0,1,3.818-2.145,8.9,8.9,0,0,1-2.241-.709c-2.765-1.26-6.094-1.5-8.407.749-.407.4-1.009-.24-.606-.634a7.689,7.689,0,0,1,7.9-1.48C2260.927,9565.758,2261.753,9566.246,2262.658,9566.559Z" fill="#fff"/>
    </g>
    <g id="Grupo_869" data-name="Grupo 869">
      <path id="Trazado_1124" data-name="Trazado 1124" d="M2231.677,9476.037c10.466-1.124,15.943,7.748,17.359,11.481,3.259,8.6,10.048,7.714,12.752,7.061a10.879,10.879,0,0,1,5.619.666v21.921c-.617-.533-1.239-1.057-1.866-1.56a23.948,23.948,0,0,0-5.425-3.236c-.447-.2-.9-.367-1.363-.526a.425.425,0,0,0-.207-.108c-.172-.037-.338-.081-.5-.127l-.249-.08c-5.308-1.717-5.663-8.173-2.669-12.384.323-.455-.327-1.045-.656-.585a10.721,10.721,0,0,0-2.008,8.237,7.283,7.283,0,0,0,2.074,3.815c-.408-.113-.816-.229-1.219-.354-2.222-.682-4.153-2.611-5.843-4.149a21.016,21.016,0,0,1-2.274-2.409c-.007-.016-.012-.029-.02-.044a8.364,8.364,0,0,0-.918-1.253,14.26,14.26,0,0,1-1.324-2.548c-.595-1.518-1.04-3.061-1.532-4.568a.434.434,0,0,0,0-.244,7.143,7.143,0,0,1-.335-3.822c.236-.929.652-1.793.865-2.731a7.69,7.69,0,0,0-2.139-7.748c-.426-.369-1.011.286-.581.656,2.439,2.115,2.477,5.453,1.453,8.314a8.918,8.918,0,0,0-.518,2.293,13.092,13.092,0,0,0-2.458-3.625c-.4-.4-.975.253-.582.658,3.16,3.242,3.612,7.74,5.27,11.761a.285.285,0,0,1,.014.031,9.092,9.092,0,0,0-2.356-1.023c-2.053-.567-4.918-.233-5.98-2.518-.234-.5-1.072-.246-.836.266.882,1.894,2.621,2.419,4.555,2.73a9.559,9.559,0,0,1,5.714,2.578,21.784,21.784,0,0,0,2.566,3.092,28.911,28.911,0,0,0,4.956,4.167c1.846,1.178,4.121,1.6,6.221,2.143a8.771,8.771,0,0,0,1.056.311,22.35,22.35,0,0,1,5.491,2.813,28.71,28.71,0,0,1,2.85,2.3,9.761,9.761,0,0,0-6.748,1.046,9.228,9.228,0,0,0-2.179,1.7c-.943.974-1.54,2.227-2.628,3.068-2.388,1.85-4.944-.441-6.975-1.613-.49-.283-.883.5-.4.783,1.738,1,3.3,2.389,5.412,2.372,2.626-.019,3.71-2.337,5.243-4.026a8.4,8.4,0,0,1,9.048-2.134v7.343a20.647,20.647,0,0,1-13.164,3.833c-16.592-1.433-15.333-13.188-17.995-18.994-1.694-3.693-6.342-1.463-8.275-11.71-.75-3.974-2.118-13.223-3.67-15.351-1.6-1.926-4.571-6.6-2.866-8.727C2224.264,9471.745,2228.79,9476.35,2231.677,9476.037Z" fill="#b3deff"/>
      <path id="Trazado_1125" data-name="Trazado 1125" d="M2248.323,9506.885a14.143,14.143,0,0,0,5,3.374c.4.124.811.24,1.219.354a7.283,7.283,0,0,1-2.074-3.815,8.572,8.572,0,0,1-.163-1.569c-.2.063-.413.134-.655.214A18.641,18.641,0,0,0,2248.323,9506.885Z" fill="#225d6b"/>
      <path id="Trazado_1126" data-name="Trazado 1126" d="M2261.768,9505.585a28.9,28.9,0,0,0,5.639.214v11.367c-.617-.533-1.239-1.057-1.866-1.56a23.948,23.948,0,0,0-5.425-3.236c-.447-.2-.9-.367-1.363-.526a.425.425,0,0,0-.207-.108c-.172-.037-.338-.081-.5-.127l-.249-.08a6.524,6.524,0,0,1-4.54-6.582,7.088,7.088,0,0,1,2.511-.2C2257.769,9504.836,2259.785,9505.312,2261.768,9505.585Z" fill="#225d6b"/>
      <path id="Trazado_1127" data-name="Trazado 1127" d="M2257.232,9512.265a8.771,8.771,0,0,0,1.056.311,22.35,22.35,0,0,1,5.491,2.813,28.71,28.71,0,0,1,2.85,2.3,9.761,9.761,0,0,0-6.748,1.046,9.228,9.228,0,0,0-2.179,1.7c-.943.974-1.54,2.227-2.628,3.068-2.388,1.85-4.944-.441-6.975-1.613-.49-.283-.883.5-.4.783,1.738,1,3.3,2.389,5.412,2.372,2.626-.019,3.71-2.337,5.243-4.026a8.4,8.4,0,0,1,9.048-2.134v7.343a20.647,20.647,0,0,1-13.164,3.833c-12.368-1.068-14.817-7.871-16.364-13.673,2.481-2.565,4.939-5.155,7.633-7.506a17.1,17.1,0,0,1,2.005-1.512,25.768,25.768,0,0,0,3.494,2.753C2252.857,9511.3,2255.132,9511.72,2257.232,9512.265Z" fill="#225d6b"/>
      <path id="Trazado_1128" data-name="Trazado 1128" d="M2241.933,9488.489c-.213.938-.629,1.8-.865,2.731a7.143,7.143,0,0,0,.335,3.822.434.434,0,0,1,0,.244c.492,1.508.937,3.051,1.532,4.568a14.26,14.26,0,0,0,1.324,2.548,8.364,8.364,0,0,1,.918,1.253c.008.015.013.028.02.044a21.016,21.016,0,0,0,2.274,2.409c1.69,1.538,3.621,3.468,5.843,4.149.4.124.811.24,1.219.354a7.283,7.283,0,0,1-2.074-3.815,10.721,10.721,0,0,1,2.008-8.237c.329-.46.979.13.656.585-2.994,4.211-2.639,10.667,2.669,12.384l.249.08c.163.046.329.09.5.127a.425.425,0,0,1,.207.108c.46.159.916.331,1.363.526a23.948,23.948,0,0,1,5.425,3.236c.627.5,1.249,1.026,1.866,1.56v1.718a8.4,8.4,0,0,0-9.048,2.134c-1.533,1.689-2.617,4.008-5.243,4.026-2.11.017-3.674-1.37-5.412-2.372-.488-.282-.1-1.066.4-.783,2.031,1.172,4.587,3.463,6.975,1.613,1.088-.842,1.685-2.095,2.628-3.068a9.228,9.228,0,0,1,2.179-1.7,9.761,9.761,0,0,1,6.748-1.046,28.71,28.71,0,0,0-2.85-2.3,22.35,22.35,0,0,0-5.491-2.812,8.771,8.771,0,0,1-1.056-.311c-2.1-.545-4.375-.965-6.221-2.143a28.911,28.911,0,0,1-4.956-4.167,21.784,21.784,0,0,1-2.566-3.092,9.559,9.559,0,0,0-5.714-2.578c-1.934-.312-3.673-.837-4.555-2.73-.236-.512.6-.771.836-.266,1.062,2.284,3.927,1.95,5.98,2.518a9.092,9.092,0,0,1,2.356,1.023.285.285,0,0,0-.014-.031c-1.658-4.021-2.11-8.519-5.27-11.761-.393-.405.187-1.062.582-.658a13.092,13.092,0,0,1,2.458,3.625,8.918,8.918,0,0,1,.518-2.293c1.024-2.861.986-6.2-1.453-8.314-.43-.37.155-1.025.581-.656A7.69,7.69,0,0,1,2241.933,9488.489Z" fill="#fff"/>
    </g>
    <g id="Grupo_870" data-name="Grupo 870">
      <path id="Trazado_1129" data-name="Trazado 1129" d="M2267.407,9512.792v11.03c-.708-.323-1.407-.654-2.108-.972a.439.439,0,0,0-.183-.161,7.15,7.15,0,0,1-3.047-2.331c-.526-.8-.884-1.69-1.433-2.482a7.693,7.693,0,0,0-7.163-3.647.439.439,0,0,0,.093.872c3.207-.373,5.7,1.851,7.118,4.536a8.938,8.938,0,0,0,1.343,1.93,13.047,13.047,0,0,0-4.333-.631c-.566.02-.473.891.091.873,3.541-.113,6.531,1.514,9.622,2.94v2.366c-1.692,1.185-3.321,3.227-5.588,2.512-.531-.168-.905.626-.368.8,1.992.626,3.554-.3,5.088-1.521.287-.228.576-.441.868-.646v9.865c-1.866.187-4.322-.232-8.167-2.61-3.439-2.126-11.189-7.355-13.806-7.645-2.5-.122-7.954-1.075-8.377-3.772-.7-4.47,5.752-4.705,7.469-7.047,6.23-8.484,16.473-6.543,20.185-5.07A15.771,15.771,0,0,0,2267.407,9512.792Z" fill="#ffd4b3"/>
      <path id="Trazado_1130" data-name="Trazado 1130" d="M2267.407,9527.115v1.142c-.292.205-.581.419-.868.646-1.534,1.218-3.1,2.146-5.088,1.521-.537-.171-.163-.965.368-.8C2264.086,9530.342,2265.715,9528.3,2267.407,9527.115Z" fill="#fff"/>
      <path id="Trazado_1131" data-name="Trazado 1131" d="M2260.636,9517.876c.549.792.907,1.682,1.433,2.482a7.15,7.15,0,0,0,3.047,2.331.439.439,0,0,1,.183.161c.7.317,1.4.648,2.108.972v.927c-3.091-1.427-6.081-3.054-9.622-2.94-.564.018-.657-.854-.091-.873a13.047,13.047,0,0,1,4.333.631,8.938,8.938,0,0,1-1.343-1.93c-1.421-2.686-3.911-4.909-7.118-4.536a.439.439,0,0,1-.093-.872A7.693,7.693,0,0,1,2260.636,9517.876Z" fill="#fff"/>
    </g>
    <g id="Grupo_871" data-name="Grupo 871">
      <path id="Trazado_1132" data-name="Trazado 1132" d="M2544.334,9465.631c-5.275,9.109-15.669,8.287-19.518,7.225-8.866-2.452-12.159,3.551-13.229,6.118a10.891,10.891,0,0,1-3.857,4.141l-17.687-12.949c.793-.183,1.584-.376,2.361-.585a23.987,23.987,0,0,0,5.815-2.465c.421-.246.829-.513,1.23-.789a.427.427,0,0,0,.21-.1c.131-.116.265-.225.4-.329l.211-.153c4.521-3.27,9.94.259,11.569,5.162.177.528,1.036.353.859-.185a10.72,10.72,0,0,0-5.459-6.485,7.278,7.278,0,0,0-4.3-.58c.332-.264.667-.523,1-.775,1.863-1.391,4.561-1.808,6.8-2.263a20.841,20.841,0,0,1,3.287-.412.4.4,0,0,0,.047.01,8.428,8.428,0,0,0,1.554,0,14.2,14.2,0,0,1,2.838.438c1.576.415,3.083.967,4.591,1.462a.446.446,0,0,0,.2.141,7.138,7.138,0,0,1,3.282,1.987c.61.738,1.061,1.585,1.693,2.312a7.689,7.689,0,0,0,7.515,2.852.439.439,0,0,0-.186-.857c-3.148.718-5.864-1.223-7.568-3.739a8.834,8.834,0,0,0-1.544-1.771,13.1,13.1,0,0,0,4.377.157c.56-.079.373-.937-.186-.858-4.484.635-8.38-1.657-12.6-2.7a.179.179,0,0,1-.033-.007,9.086,9.086,0,0,0,2.217-1.3c1.671-1.321,3.094-3.829,5.565-3.337.546.11.832-.72.279-.832-2.048-.407-3.5.686-4.894,2.063a9.564,9.564,0,0,1-5.455,3.088,21.9,21.9,0,0,0-4.011.243,28.9,28.9,0,0,0-6.29,1.538c-2.041.793-3.724,2.38-5.4,3.753a8.81,8.81,0,0,0-.874.669,22.36,22.36,0,0,1-5.514,2.77,28.8,28.8,0,0,1-3.541.938,9.753,9.753,0,0,0,3.143-6.062,9.193,9.193,0,0,0-.083-2.761c-.228-1.336-.886-2.559-.923-3.934-.082-3.02,3.276-3.729,5.423-4.676.517-.227.116-1.008-.4-.781-1.835.811-3.877,1.253-5.11,2.967-1.536,2.13-.306,4.373.151,6.608a8.393,8.393,0,0,1-3.623,8.561l-5.925-4.338a20.655,20.655,0,0,1,4.684-12.886c10.957-12.541,19.7-4.58,25.957-3.3,3.98.815,4.925-4.253,14.336.241,3.649,1.742,11.919,6.1,14.553,6.106,2.5-.149,8.023.208,8.736,2.844C2552.177,9462.185,2545.788,9463.117,2544.334,9465.631Z" fill="#b3deff"/>
      <path id="Trazado_1133" data-name="Trazado 1133" d="M2509.611,9460.839a14.17,14.17,0,0,0-5.673,2.038c-.338.252-.673.512-1,.775a7.278,7.278,0,0,1,4.3.58,8.645,8.645,0,0,1,1.362.795c.068-.2.137-.411.215-.654A18.69,18.69,0,0,0,2509.611,9460.839Z" fill="#225d6b"/>
      <path id="Trazado_1134" data-name="Trazado 1134" d="M2502.718,9472.456a28.9,28.9,0,0,0-3.5,4.424l-9.171-6.715c.793-.183,1.584-.376,2.361-.585a23.987,23.987,0,0,0,5.815-2.465c.421-.246.829-.513,1.23-.789a.427.427,0,0,0,.21-.1c.131-.116.265-.225.4-.329l.211-.153a6.526,6.526,0,0,1,7.994.225,7.073,7.073,0,0,1-1.326,2.143C2505.684,9469.672,2504.11,9471.017,2502.718,9472.456Z" fill="#225d6b"/>
      <path id="Trazado_1135" data-name="Trazado 1135" d="M2500.007,9464.85a8.81,8.81,0,0,0-.874.669,22.36,22.36,0,0,1-5.514,2.77,28.8,28.8,0,0,1-3.541.938,9.753,9.753,0,0,0,3.143-6.062,9.193,9.193,0,0,0-.083-2.761c-.228-1.336-.886-2.559-.923-3.934-.082-3.02,3.276-3.729,5.423-4.676.517-.227.116-1.008-.4-.781-1.835.811-3.877,1.253-5.11,2.967-1.536,2.13-.306,4.373.151,6.608a8.393,8.393,0,0,1-3.623,8.561l-5.925-4.338a20.655,20.655,0,0,1,4.684-12.886c8.169-9.348,15.1-7.3,20.7-5.126.6,3.518,1.243,7.031,1.547,10.592a17.138,17.138,0,0,1,.036,2.513,25.586,25.586,0,0,0-4.286,1.192C2503.37,9461.89,2501.687,9463.477,2500.007,9464.85Z" fill="#225d6b"/>
      <path id="Trazado_1136" data-name="Trazado 1136" d="M2528.229,9466.551c-.632-.727-1.083-1.573-1.693-2.312a7.138,7.138,0,0,0-3.282-1.987.446.446,0,0,1-.2-.141c-1.508-.5-3.015-1.047-4.591-1.462a14.2,14.2,0,0,0-2.838-.438,8.428,8.428,0,0,1-1.554,0,.4.4,0,0,1-.047-.01,20.841,20.841,0,0,0-3.287.412c-2.239.455-4.937.872-6.8,2.263-.338.252-.673.512-1,.775a7.278,7.278,0,0,1,4.3.58,10.72,10.72,0,0,1,5.459,6.485c.177.537-.682.713-.859.185-1.629-4.9-7.048-8.432-11.569-5.162l-.211.153c-.133.1-.267.213-.4.329a.427.427,0,0,1-.21.1c-.4.276-.809.543-1.23.789a23.987,23.987,0,0,1-5.815,2.465c-.777.209-1.568.4-2.361.585l-1.387-1.016a8.393,8.393,0,0,0,3.623-8.561c-.457-2.235-1.687-4.479-.151-6.608,1.233-1.714,3.275-2.156,5.11-2.967.516-.227.917.555.4.781-2.147.947-5.5,1.656-5.423,4.676.037,1.375.695,2.6.923,3.934a9.193,9.193,0,0,1,.083,2.761,9.753,9.753,0,0,1-3.143,6.062,28.8,28.8,0,0,0,3.541-.938,22.36,22.36,0,0,0,5.514-2.77,8.81,8.81,0,0,1,.874-.669c1.68-1.373,3.363-2.96,5.4-3.753a28.9,28.9,0,0,1,6.29-1.538,21.9,21.9,0,0,1,4.011-.243,9.564,9.564,0,0,0,5.455-3.088c1.394-1.377,2.846-2.47,4.894-2.062.553.112.267.942-.279.832-2.471-.492-3.894,2.016-5.565,3.337a9.086,9.086,0,0,1-2.217,1.3.179.179,0,0,0,.033.007c4.224,1.038,8.12,3.33,12.6,2.7.559-.078.746.779.186.858a13.1,13.1,0,0,1-4.377-.157,8.834,8.834,0,0,1,1.544,1.771c1.7,2.517,4.42,4.457,7.568,3.739a.439.439,0,0,1,.186.857A7.689,7.689,0,0,1,2528.229,9466.551Z" fill="#fff"/>
    </g>
    <g id="Grupo_872" data-name="Grupo 872">
      <path id="Trazado_1137" data-name="Trazado 1137" d="M2493.571,9472.748l-8.9-6.515c.679-.382,1.358-.75,2.029-1.128a.437.437,0,0,0,.238-.052,7.14,7.14,0,0,1,3.681-1.082c.957.048,1.886.285,2.849.311a7.692,7.692,0,0,0,7.174-3.625.439.439,0,0,0-.758-.441c-1.593,2.81-4.859,3.5-7.865,3.065a8.884,8.884,0,0,0-2.35-.057,13.088,13.088,0,0,0,3.069-3.125c.318-.467-.44-.906-.759-.44-2,2.924-5.079,4.375-8.056,6.025l-1.909-1.4c.043-2.065-.642-4.585,1.274-5.992.449-.33.029-1.1-.425-.768-1.683,1.236-1.856,3.047-1.779,5,.014.366.015.725.009,1.082l-7.961-5.828c.952-1.615,2.741-3.351,6.931-5.048,3.747-1.519,12.544-4.683,14.324-6.623,1.575-1.945,5.567-5.783,7.992-4.531,4.021,2.074.4,7.42,1.274,10.189,3.166,10.038-4.452,17.156-7.833,19.281A15.818,15.818,0,0,0,2493.571,9472.748Z" fill="#ffd4b3"/>
      <path id="Trazado_1138" data-name="Trazado 1138" d="M2482.015,9464.287l-.921-.674c.006-.357.005-.716-.009-1.082-.077-1.957.1-3.768,1.779-5,.454-.333.874.438.425.768C2481.373,9459.7,2482.058,9462.222,2482.015,9464.287Z" fill="#fff"/>
      <path id="Trazado_1139" data-name="Trazado 1139" d="M2493.469,9464.282c-.963-.025-1.892-.263-2.849-.311a7.14,7.14,0,0,0-3.681,1.082.437.437,0,0,1-.238.052c-.671.378-1.35.746-2.029,1.128l-.748-.549c2.977-1.65,6.056-3.1,8.056-6.025.319-.466,1.077-.026.759.44a13.088,13.088,0,0,1-3.069,3.125,8.884,8.884,0,0,1,2.35.057c3.006.438,6.272-.256,7.865-3.065a.439.439,0,0,1,.758.441A7.692,7.692,0,0,1,2493.469,9464.282Z" fill="#fff"/>
    </g>
    <g id="Grupo_891" data-name="Grupo 891">
      <path id="Trazado_1140" data-name="Trazado 1140" d="M2280.156,9658.762c0,3.239-6.193,4.858,33.667,6.32,18.486.679-2.5,4.974,20.11,4.974,13.577,0,94.475.841,122.293-.186,4.339-.16,8.523-3.938,12.536-4.129,32.683-1.559,47.337-4.1,47.337-6.979,0-4.74-51.209-8.585-122.567-8.585S2280.156,9654.021,2280.156,9658.762Z" fill="url(#linear-gradient)"/>
      <g id="Grupo_873" data-name="Grupo 873">
        <path id="Trazado_1141" data-name="Trazado 1141" d="M2346.478,9653.669h78.443c-8.51,0-20.491-25.062-20.491-25.062h-35.41S2357.146,9653.669,2346.478,9653.669Z" fill="#fff"/>
      </g>
      <g id="Grupo_874" data-name="Grupo 874">
        <path id="Trazado_1142" data-name="Trazado 1142" d="M2320.808,9656.9a6.274,6.274,0,0,0,6.276,6.274H2438.66a6.272,6.272,0,0,0,6.274-6.274h0a6.273,6.273,0,0,0-6.274-6.273H2327.084a6.275,6.275,0,0,0-6.276,6.273Z" fill="#fff"/>
      </g>
      <g id="Grupo_875" data-name="Grupo 875">
        <path id="Rectángulo_67" data-name="Rectángulo 67" d="M5.126,0H233.917a5.129,5.129,0,0,1,5.129,5.129V149.991a5.129,5.129,0,0,1-5.129,5.129H5.13A5.13,5.13,0,0,1,0,149.99V5.126A5.126,5.126,0,0,1,5.126,0Z" transform="translate(2265.176 9477.277)" fill="#fff"/>
      </g>
      <g id="Grupo_876" data-name="Grupo 876">
        <path id="Trazado_1143" data-name="Trazado 1143" d="M2346.478,9653.669h78.443c-8.51,0-20.491-25.062-20.491-25.062h-35.41S2357.146,9653.669,2346.478,9653.669Z" fill="#003aa3"/>
      </g>
      <g id="Grupo_878" data-name="Grupo 878">
        <g id="Grupo_877" data-name="Grupo 877">
          <path id="Trazado_1144" data-name="Trazado 1144" d="M2320.808,9656.9a6.274,6.274,0,0,0,6.276,6.274H2438.66a6.272,6.272,0,0,0,6.274-6.274h0a6.273,6.273,0,0,0-6.274-6.273H2327.084a6.275,6.275,0,0,0-6.276,6.273Z" fill="#003aa3"/>
        </g>
      </g>
      <g id="Grupo_879" data-name="Grupo 879">
        <path id="Rectángulo_68" data-name="Rectángulo 68" d="M5.126,0H233.917a5.129,5.129,0,0,1,5.129,5.129V149.991a5.129,5.129,0,0,1-5.129,5.129H5.13A5.13,5.13,0,0,1,0,149.99V5.126A5.126,5.126,0,0,1,5.126,0Z" transform="translate(2265.176 9477.277)" fill="#bec3ce"/>
      </g>
      <g id="Grupo_880" data-name="Grupo 880">
        <path id="Trazado_1145" data-name="Trazado 1145" d="M2265.176,9608.673v5.129h239.046V9463.81a5.128,5.128,0,0,0-5.129-5.128H2270.3a5.13,5.13,0,0,0-5.129,5.128Z" fill="#151a23"/>
      </g>
      <g id="Grupo_882" data-name="Grupo 882">
        <g id="Grupo_881" data-name="Grupo 881">
          <path id="Trazado_1146" data-name="Trazado 1146" d="M2350.5,9653.669h78.442c-8.509,0-20.49-25.062-20.49-25.062h-35.41S2361.171,9653.669,2350.5,9653.669Z" fill="#64bdff"/>
        </g>
      </g>
      <g id="Grupo_883" data-name="Grupo 883">
        <path id="Trazado_1147" data-name="Trazado 1147" d="M2373.047,9628.607h35.41s.9,2.036,3.052,5.836c-4.9.981-26.357.823-32.19,1.163-3.393.2-7.515.132-10.311,6.764-.679,1.6-2.73,5.944-.3,6.27,2.728.361,51.777,1.335,53.951,1.595,2.154,2.074,4.314,3.435,6.287,3.435H2350.5C2361.171,9653.669,2373.047,9628.607,2373.047,9628.607Z" fill="#003aa3"/>
      </g>
      <g id="Grupo_885" data-name="Grupo 885">
        <g id="Grupo_884" data-name="Grupo 884">
          <path id="Trazado_1148" data-name="Trazado 1148" d="M2327.519,9656.9a6.275,6.275,0,0,0,6.278,6.274h111.574a6.273,6.273,0,0,0,6.275-6.274h0a6.274,6.274,0,0,0-6.275-6.273H2333.8a6.276,6.276,0,0,0-6.278,6.273Z" fill="#64bdff"/>
        </g>
      </g>
      <g id="Grupo_887" data-name="Grupo 887">
        <g id="Grupo_886" data-name="Grupo 886">
          <path id="Trazado_1149" data-name="Trazado 1149" d="M2271.118,9627.27a5.13,5.13,0,0,0,5.13,5.128h228.789a5.128,5.128,0,0,0,5.127-5.128l-1.305-144.722c0-2.832-.991-5.27-3.822-5.27H2276.248a5.13,5.13,0,0,0-5.13,5.128Z" fill="#64bdff"/>
        </g>
      </g>
      <g id="Grupo_889" data-name="Grupo 889">
        <g id="Grupo_888" data-name="Grupo 888">
          <path id="Trazado_1150" data-name="Trazado 1150" d="M2270.347,9608.7v5.1h239.242V9463.81a5.127,5.127,0,0,0-5.127-5.128H2275.674a5.36,5.36,0,0,0-5.327,5.2Z" fill="#0f3871"/>
        </g>
      </g>
      <g id="Grupo_890" data-name="Grupo 890">
        <rect id="Rectángulo_69" data-name="Rectángulo 69" width="219.572" height="136.001" transform="translate(2280.283 9467.785)" fill="#fff"/>
      </g>
      <rect id="Rectángulo_70" data-name="Rectángulo 70" width="219.503" height="135.97" transform="translate(2280.284 9467.785)" fill="#44526b"/>
      <path id="Trazado_1151" data-name="Trazado 1151" d="M2279.678,9564.819v-4.8q10.292,3.652,20.585,7.306l102.655,36.432h-13.527Z" fill="#e2ffff" opacity="0.1"/>
      <path id="Trazado_1152" data-name="Trazado 1152" d="M2334.25,9467.91h165.237v68.561Z" fill="#e2ffff" opacity="0.1"/>
      <path id="Trazado_1153" data-name="Trazado 1153" d="M2279.678,9540.424v-38.4l8.569,3.007q105.478,37,210.955,73.993c.373.132.776.245,1.19.353v24.414h-40.073Z" fill="#e2ffff" opacity="0.1"/>
    </g>
    <path id="Trazado_1154" data-name="Trazado 1154" d="M2256.215,9588.69c.011.92-1.114,1.679-2.516,1.7s-2.546-.714-2.558-1.633,1.116-1.68,2.516-1.7S2256.2,9587.771,2256.215,9588.69Z" fill="#fbda70"/>
    <path id="Trazado_1155" data-name="Trazado 1155" d="M2459.865,9510.084h-9.991v-4.9h.064v-37.73a7.4,7.4,0,0,0-8.752-7.3H2387.3s-68.961-1.1-81.331-1.4c6.245.8,6.78,8.2,6.78,8.2.011.165.023.33.023.5h0v37.73h.041v34.466c-.024.382-.041.766-.041,1.153s.017.773.041,1.155v.046h0c0,11.565,3.376,16.477,11.321,16.477l31.209-.563-1.017,74.269H2477.54V9527.76A17.676,17.676,0,0,0,2459.865,9510.084Z" fill="#aacaf9"/>
    <path id="Trazado_1156" data-name="Trazado 1156" d="M2401.4,9550.551h-69.637l13.487-48.251h56.15Z" fill="#7189ad"/>
    <rect id="Rectángulo_71" data-name="Rectángulo 71" width="147.367" height="113.89" transform="translate(2361.846 9519.826)" fill="#fff"/>
    <path id="Trazado_1157" data-name="Trazado 1157" d="M2394.925,9459.025h-88.194s-.06-6.8,7.564-6.8h80.63Z" fill="#7189ad"/>
    <g id="Grupo_901" data-name="Grupo 901">
      <rect id="Rectángulo_72" data-name="Rectángulo 72" width="111.932" height="153.285" transform="translate(2213.868 9510.386)" fill="#7b4d42"/>
      <rect id="Rectángulo_73" data-name="Rectángulo 73" width="111.932" height="153.285" transform="translate(2213.868 9510.386)" fill="#0f3871"/>
      <rect id="Rectángulo_74" data-name="Rectángulo 74" width="109.847" height="153.285" transform="translate(2219.827 9508.359)" fill="#aacaf9"/>
      <rect id="Rectángulo_75" data-name="Rectángulo 75" width="109.847" height="153.285" transform="translate(2215.099 9510.386)" fill="#b3deff"/>
      <path id="Trazado_1158" data-name="Trazado 1158" d="M2322.423,9658.881l-102.994-.409V9517.965l88.391-.82,14.6,14.189Z" fill="#0f3871"/>
      <path id="Trazado_1159" data-name="Trazado 1159" d="M2327.261,9655.928l-105.865-.41-2.871-138.457h87.981l15.013,14.6Z" fill="#fff"/>
      <path id="Trazado_1160" data-name="Trazado 1160" d="M2257.893,9569.358a1.629,1.629,0,0,1-1.683,1.567h-21.973a1.628,1.628,0,0,1-1.682-1.567h0a1.628,1.628,0,0,1,1.682-1.568h21.973a1.629,1.629,0,0,1,1.683,1.568Z" fill="#5e98ff"/>
      <path id="Trazado_1161" data-name="Trazado 1161" d="M2277.434,9573.826a1.091,1.091,0,0,1-1.128,1.052h-42.532a1.092,1.092,0,0,1-1.128-1.052h0a1.092,1.092,0,0,1,1.128-1.051h42.532a1.09,1.09,0,0,1,1.128,1.051Z" fill="#bcbcbc"/>
      <path id="Trazado_1162" data-name="Trazado 1162" d="M2277.434,9577.516a1.092,1.092,0,0,1-1.128,1.053h-42.532a1.093,1.093,0,0,1-1.128-1.053h0a1.092,1.092,0,0,1,1.128-1.052h42.532a1.091,1.091,0,0,1,1.128,1.052Z" fill="#bcbcbc"/>
      <path id="Trazado_1163" data-name="Trazado 1163" d="M2248.5,9581.174a1.092,1.092,0,0,1-1.128,1.052h-13.6a1.092,1.092,0,0,1-1.128-1.052h0a1.092,1.092,0,0,1,1.128-1.052h13.6a1.092,1.092,0,0,1,1.128,1.052Z" fill="#bcbcbc"/>
      <path id="Trazado_1164" data-name="Trazado 1164" d="M2257.893,9590.045a1.629,1.629,0,0,1-1.683,1.568h-21.973a1.628,1.628,0,0,1-1.682-1.568h0a1.628,1.628,0,0,1,1.682-1.568h21.973a1.629,1.629,0,0,1,1.683,1.568Z" fill="#5e98ff"/>
      <path id="Trazado_1165" data-name="Trazado 1165" d="M2277.434,9594.514a1.093,1.093,0,0,1-1.128,1.053h-42.532a1.094,1.094,0,0,1-1.128-1.053h0a1.092,1.092,0,0,1,1.128-1.052h42.532a1.091,1.091,0,0,1,1.128,1.052Z" fill="#bcbcbc"/>
      <path id="Trazado_1166" data-name="Trazado 1166" d="M2277.434,9598.2a1.091,1.091,0,0,1-1.128,1.052h-42.532a1.092,1.092,0,0,1-1.128-1.052h0a1.093,1.093,0,0,1,1.128-1.052h42.532a1.092,1.092,0,0,1,1.128,1.052Z" fill="#bcbcbc"/>
      <path id="Trazado_1167" data-name="Trazado 1167" d="M2248.5,9601.862a1.092,1.092,0,0,1-1.128,1.051h-13.6a1.092,1.092,0,0,1-1.128-1.051h0a1.093,1.093,0,0,1,1.128-1.053h13.6a1.092,1.092,0,0,1,1.128,1.053Z" fill="#bcbcbc"/>
      <path id="Trazado_1168" data-name="Trazado 1168" d="M2257.893,9611.827a1.628,1.628,0,0,1-1.683,1.567h-21.973a1.627,1.627,0,0,1-1.682-1.567h0a1.628,1.628,0,0,1,1.682-1.568h21.973a1.629,1.629,0,0,1,1.683,1.568Z" fill="#5e98ff"/>
      <path id="Trazado_1169" data-name="Trazado 1169" d="M2277.434,9616.3a1.091,1.091,0,0,1-1.128,1.052h-42.532a1.092,1.092,0,0,1-1.128-1.052h0a1.092,1.092,0,0,1,1.128-1.052h42.532a1.091,1.091,0,0,1,1.128,1.052Z" fill="#bcbcbc"/>
      <path id="Trazado_1170" data-name="Trazado 1170" d="M2277.434,9619.986a1.091,1.091,0,0,1-1.128,1.052h-42.532a1.092,1.092,0,0,1-1.128-1.052h0a1.093,1.093,0,0,1,1.128-1.053h42.532a1.092,1.092,0,0,1,1.128,1.053Z" fill="#bcbcbc"/>
      <path id="Trazado_1171" data-name="Trazado 1171" d="M2248.5,9623.644a1.092,1.092,0,0,1-1.128,1.052h-13.6a1.093,1.093,0,0,1-1.128-1.052h0a1.093,1.093,0,0,1,1.128-1.052h13.6a1.092,1.092,0,0,1,1.128,1.052Z" fill="#bcbcbc"/>
      <path id="Trazado_1172" data-name="Trazado 1172" d="M2321.419,9531.633l-13.29,3.294-1.435-17.866Z" fill="#d7c4a6"/>
      <path id="Trazado_1173" data-name="Trazado 1173" d="M2321.519,9531.661l-15.181.077.168-14.678Z" fill="#5e98ff"/>
      <g id="Grupo_892" data-name="Grupo 892">
        <path id="Trazado_1174" data-name="Trazado 1174" d="M2287.1,9559.56v-14.423h14.424v14.423Zm12.4-2.023v-10.375H2289.13v10.375Z" fill="#5e98ff"/>
        <path id="Trazado_1175" data-name="Trazado 1175" d="M2300.966,9559h-13.3V9545.7h13.3Zm-12.4-.9h11.5v-11.5h-11.5Z" fill="#5e98ff"/>
      </g>
      <g id="Grupo_893" data-name="Grupo 893">
        <path id="Trazado_1176" data-name="Trazado 1176" d="M2289.165,9552.021l1.432-1.433,2.93,2.93,4.373-5.655,1.6,1.238-5.78,7.475Z" fill="#5e98ff"/>
        <path id="Trazado_1177" data-name="Trazado 1177" d="M2293.667,9555.725l-3.7-3.7.634-.635,2.984,2.983,4.419-5.717.71.549Z" fill="#5e98ff"/>
      </g>
      <g id="Grupo_894" data-name="Grupo 894">
        <path id="Trazado_1178" data-name="Trazado 1178" d="M2287.552,9581.4v-14.425h14.424V9581.4Zm12.4-2.025V9569h-10.374v10.375Z" fill="#5e98ff"/>
        <path id="Trazado_1179" data-name="Trazado 1179" d="M2301.412,9580.836h-13.3v-13.3h13.3Zm-12.4-.9h11.5v-11.5h-11.5Z" fill="#5e98ff"/>
      </g>
      <g id="Grupo_895" data-name="Grupo 895">
        <path id="Trazado_1180" data-name="Trazado 1180" d="M2289.611,9573.859l1.432-1.432,2.93,2.929,4.373-5.656,1.6,1.24-5.779,7.475Z" fill="#5e98ff"/>
        <path id="Trazado_1181" data-name="Trazado 1181" d="M2294.113,9577.563l-3.7-3.7.635-.635,2.984,2.983,4.42-5.716.709.549Z" fill="#5e98ff"/>
      </g>
      <g id="Grupo_896" data-name="Grupo 896">
        <path id="Trazado_1182" data-name="Trazado 1182" d="M2288.085,9602.374v-14.423h14.425v14.423Zm12.4-2.024v-10.375h-10.374v10.375Z" fill="#5e98ff"/>
        <path id="Trazado_1183" data-name="Trazado 1183" d="M2301.946,9601.811h-13.3v-13.3h13.3Zm-12.4-.9h11.5v-11.5h-11.5Z" fill="#5e98ff"/>
      </g>
      <g id="Grupo_897" data-name="Grupo 897">
        <path id="Trazado_1184" data-name="Trazado 1184" d="M2290.145,9594.833l1.432-1.431,2.93,2.929,4.372-5.655,1.6,1.239-5.779,7.475Z" fill="#5e98ff"/>
        <path id="Trazado_1185" data-name="Trazado 1185" d="M2290.576,9616.539l1.432-1.431,2.93,2.929,4.372-5.655,1.6,1.239-5.779,7.475Z" fill="#5e98ff"/>
        <path id="Trazado_1186" data-name="Trazado 1186" d="M2294.647,9598.538l-3.7-3.705.634-.633,2.984,2.982,4.42-5.716.709.55Z" fill="#5e98ff"/>
      </g>
      <g id="Grupo_898" data-name="Grupo 898">
        <path id="Trazado_1187" data-name="Trazado 1187" d="M2288.532,9623.863V9609.44h14.424v14.423Zm12.4-2.024v-10.373h-10.374v10.373Z" fill="#5e98ff"/>
        <path id="Trazado_1188" data-name="Trazado 1188" d="M2302.392,9623.3h-13.3V9610h13.3Zm-12.4-.9h11.5v-11.5h-11.5Z" fill="#5e98ff"/>
      </g>
      <path id="Trazado_1189" data-name="Trazado 1189" d="M2305.539,9517.6v6.024l-68.572-.821-1.231-.408,1.231-4.795a8.275,8.275,0,0,1,8.275-8.275l50.79-1.23c4.571,0,9.507,4.936,9.507,9.506Z" fill="#b4d0d3"/>
      <path id="Trazado_1190" data-name="Trazado 1190" d="M2296.032,9508.1c-16.176,0-16.839-4.5-17.061-5.294a9.293,9.293,0,0,0-17.878-.068c-.234.816-1.58,5.362-17.081,5.362h0a8.276,8.276,0,0,0-8.276,8.276v6.024h68.573v-6.024A8.277,8.277,0,0,0,2296.032,9508.1Zm-26.009-9.887a3.63,3.63,0,1,1-3.631,3.63A3.63,3.63,0,0,1,2270.023,9498.211Z" fill="#ffd4b3"/>
      <path id="Trazado_1191" data-name="Trazado 1191" d="M2296.032,9508.1c-16.176,0-16.839-4.5-17.061-5.294a9.291,9.291,0,0,0-8.5-6.77c.025.118.044-.173.056-.052,3.67.337,5.55,3.054,6.428,5.308,1.066,2.734,1.889,5.433,6.244,6.561a117.887,117.887,0,0,0,14.1,2.516,4.068,4.068,0,0,1,3.508,3.955c0,6.222,1.054,8.077-2.871,8.077h6.376v-6.024A8.277,8.277,0,0,0,2296.032,9508.1Z" fill="#ffd4b3"/>
      <path id="Trazado_1192" data-name="Trazado 1192" d="M2235.736,9519.081v3.317h68.573v-3.317Z" fill="#e5a67c"/>
      <g id="Grupo_899" data-name="Grupo 899">
        <path id="Trazado_1193" data-name="Trazado 1193" d="M2270.023,9505.471a3.63,3.63,0,1,0-3.631-3.63A3.63,3.63,0,0,0,2270.023,9505.471Z" fill="none"/>
      </g>
      <g id="Grupo_900" data-name="Grupo 900">
        <path id="Trazado_1194" data-name="Trazado 1194" d="M2269.246,9502.659a2.592,2.592,0,0,1-2.739.075,3.624,3.624,0,0,0,5.162,2.34,9.162,9.162,0,0,0-.839-1.36,4.6,4.6,0,0,0-.965-1.108c-.172-.109-.161-.213-.13-.271A3.3,3.3,0,0,1,2269.246,9502.659Z" fill="none"/>
      </g>
      <path id="Trazado_1195" data-name="Trazado 1195" d="M2259.211,9505.907c-6.519,3.485-16.565,3.075-16.565,3.075.9,0,11.632.954,17.244-1.633,4.549-2.1,4.442-6.328,3.123-6.328C2262.112,9501.021,2262.419,9504.192,2259.211,9505.907Z" fill="#e5a67c"/>
      <path id="Trazado_1196" data-name="Trazado 1196" d="M2257.893,9547.25a1.629,1.629,0,0,1-1.683,1.569h-21.973a1.628,1.628,0,0,1-1.682-1.569h0a1.628,1.628,0,0,1,1.682-1.567h21.973a1.629,1.629,0,0,1,1.683,1.567Z" fill="#5e98ff"/>
      <path id="Trazado_1197" data-name="Trazado 1197" d="M2277.434,9551.719a1.092,1.092,0,0,1-1.128,1.053h-42.532a1.093,1.093,0,0,1-1.128-1.053h0a1.092,1.092,0,0,1,1.128-1.051h42.532a1.09,1.09,0,0,1,1.128,1.051Z" fill="#bcbcbc"/>
      <path id="Trazado_1198" data-name="Trazado 1198" d="M2277.434,9555.409a1.091,1.091,0,0,1-1.128,1.052h-42.532a1.092,1.092,0,0,1-1.128-1.052h0a1.092,1.092,0,0,1,1.128-1.052h42.532a1.091,1.091,0,0,1,1.128,1.052Z" fill="#bcbcbc"/>
      <path id="Trazado_1199" data-name="Trazado 1199" d="M2248.5,9559.067a1.092,1.092,0,0,1-1.128,1.052h-13.6a1.092,1.092,0,0,1-1.128-1.052h0a1.093,1.093,0,0,1,1.128-1.053h13.6a1.092,1.092,0,0,1,1.128,1.053Z" fill="#bcbcbc"/>
    </g>
    <path id="Trazado_1200" data-name="Trazado 1200" d="M2481.612,9459.524a7.4,7.4,0,0,0-8.752-7.3H2314.295a7.423,7.423,0,0,1,6.1,7.3h0v37.729h.041v34.466c-.024.382-.041.767-.041,1.154s.017.773.041,1.155v.046h0c0,11.564,3.376,16.476,11.322,16.476,7.72,0,11.355-4.911,11.355-16.523h0v-14.2l138.428-1.522.065-21.05h0Z" fill="#fff"/>
    <path id="Trazado_1201" data-name="Trazado 1201" d="M2392.009,9514.912a1.569,1.569,0,0,1-1.622,1.512h-55.6a1.57,1.57,0,0,1-1.622-1.512h0a1.57,1.57,0,0,1,1.622-1.512h55.6a1.57,1.57,0,0,1,1.622,1.512Z" fill="#bcbcbc"/>
    <path id="Trazado_1202" data-name="Trazado 1202" d="M2392.009,9520.217a1.57,1.57,0,0,1-1.622,1.512h-55.6a1.57,1.57,0,0,1-1.622-1.512h0a1.57,1.57,0,0,1,1.622-1.512h55.6a1.57,1.57,0,0,1,1.622,1.512Z" fill="#bcbcbc"/>
    <path id="Trazado_1203" data-name="Trazado 1203" d="M2343.065,9523.964h-8.277a1.516,1.516,0,1,0,0,3.024h8.277Z" fill="#bcbcbc"/>
    <path id="Trazado_1204" data-name="Trazado 1204" d="M2369.462,9508.488a2.341,2.341,0,0,1-2.419,2.254h-31.591a2.339,2.339,0,0,1-2.417-2.254h0a2.339,2.339,0,0,1,2.417-2.254h31.591a2.34,2.34,0,0,1,2.419,2.254Z" fill="#5e98ff"/>
    <path id="Trazado_1205" data-name="Trazado 1205" d="M2359.707,9501.067c-9.833,0-13.7.168-16.335,10.559l21.873,2.427v6l116.651-1.19v-23.853s-.546,6.053-16.306,6.053Z" fill="#ccd9f2"/>
    <g id="Grupo_902" data-name="Grupo 902">
      <path id="Trazado_1206" data-name="Trazado 1206" d="M2391.489,9525.791v-20.736h20.737v20.736Zm17.826-2.909v-14.914H2394.4v14.914Z" fill="#5e98ff"/>
      <path id="Trazado_1207" data-name="Trazado 1207" d="M2411.416,9524.982H2392.3v-19.115h19.117Zm-17.826-1.291h16.535v-16.533H2393.59Z" fill="#5e98ff"/>
    </g>
    <path id="Trazado_1208" data-name="Trazado 1208" d="M2449.816,9519.826c0,9.761,31.961,17.677,41.723,17.677a17.676,17.676,0,0,0,0-35.353C2481.777,9502.15,2449.816,9510.063,2449.816,9519.826Z" fill="#fff"/>
    <path id="Trazado_1209" data-name="Trazado 1209" d="M2361.846,9529.935h105.645l24.047-27.784H2351.849l4.566,4.927c5.468,5.108,5.431,12.749,5.431,12.749Z" fill="#fff"/>
    <path id="Trazado_1210" data-name="Trazado 1210" d="M2343.126,9514.852c0,6.7-.007,9.347-.007,9.347,4.523,0,16.671,3.285,18.759-.384,0,0-.022-6.78-.022-8.963,0-6.7-2.407-12.139-9.113-12.139S2343.126,9508.147,2343.126,9514.852Z" fill="#7189ad"/>
    <g id="Grupo_903" data-name="Grupo 903">
      <path id="Trazado_1211" data-name="Trazado 1211" d="M2374.33,9595.53v-22.87h22.87v22.87Zm19.66-3.21v-16.45h-16.449v16.45Z" fill="#5e98ff"/>
      <path id="Trazado_1212" data-name="Trazado 1212" d="M2396.307,9594.636h-21.084v-21.082h21.084Zm-19.66-1.423h18.236v-18.237h-18.236Z" fill="#5e98ff"/>
    </g>
    <g id="Grupo_904" data-name="Grupo 904">
      <path id="Trazado_1213" data-name="Trazado 1213" d="M2377.595,9583.574l2.271-2.27,4.645,4.645,6.934-8.968,2.54,1.964-9.164,11.853Z" fill="#5e98ff"/>
      <path id="Trazado_1214" data-name="Trazado 1214" d="M2384.733,9589.447l-5.873-5.873,1.005-1,4.732,4.73,7.008-9.064,1.125.87Z" fill="#5e98ff"/>
    </g>
    <path id="Trazado_1215" data-name="Trazado 1215" d="M2452.265,9576.979a2.051,2.051,0,0,1-2.119,1.976h-37.68a2.05,2.05,0,0,1-2.117-1.976h0a2.049,2.049,0,0,1,2.117-1.974h37.68a2.05,2.05,0,0,1,2.119,1.974Z" fill="#5e98ff"/>
    <path id="Trazado_1216" data-name="Trazado 1216" d="M2483.2,9582.607a1.375,1.375,0,0,1-1.421,1.324h-69.89a1.375,1.375,0,0,1-1.42-1.324h0a1.375,1.375,0,0,1,1.42-1.324h69.89a1.375,1.375,0,0,1,1.421,1.324Z" fill="#bcbcbc"/>
    <path id="Trazado_1217" data-name="Trazado 1217" d="M2483.2,9587.254a1.376,1.376,0,0,1-1.421,1.325h-69.89a1.375,1.375,0,0,1-1.42-1.325h0a1.375,1.375,0,0,1,1.42-1.325h69.89a1.376,1.376,0,0,1,1.421,1.325Z" fill="#bcbcbc"/>
    <path id="Trazado_1218" data-name="Trazado 1218" d="M2435.169,9591.861a1.375,1.375,0,0,1-1.421,1.323h-21.864a1.375,1.375,0,0,1-1.42-1.323h0a1.375,1.375,0,0,1,1.42-1.325h21.864a1.375,1.375,0,0,1,1.421,1.325Z" fill="#bcbcbc"/>
    <g id="Grupo_905" data-name="Grupo 905">
      <path id="Trazado_1219" data-name="Trazado 1219" d="M2374.33,9565.644v-22.868h22.87v22.868Zm19.66-3.21v-16.448h-16.449v16.448Z" fill="#5e98ff"/>
      <path id="Trazado_1220" data-name="Trazado 1220" d="M2396.307,9564.751h-21.084v-21.082h21.084Zm-19.66-1.423h18.236v-18.237h-18.236Z" fill="#5e98ff"/>
    </g>
    <g id="Grupo_906" data-name="Grupo 906">
      <path id="Trazado_1221" data-name="Trazado 1221" d="M2377.595,9553.689l2.271-2.271,4.645,4.646,6.934-8.968,2.54,1.963-9.164,11.853Z" fill="#5e98ff"/>
      <path id="Trazado_1222" data-name="Trazado 1222" d="M2384.733,9559.563l-5.873-5.873,1.005-1,4.732,4.729,7.008-9.064,1.125.87Z" fill="#5e98ff"/>
    </g>
    <path id="Trazado_1223" data-name="Trazado 1223" d="M2452.265,9547.094a2.051,2.051,0,0,1-2.119,1.976h-37.68a2.05,2.05,0,0,1-2.117-1.976h0a2.049,2.049,0,0,1,2.117-1.975h37.68a2.051,2.051,0,0,1,2.119,1.975Z" fill="#5e98ff"/>
    <path id="Trazado_1224" data-name="Trazado 1224" d="M2483.2,9552.722a1.376,1.376,0,0,1-1.421,1.325h-69.89a1.375,1.375,0,0,1-1.42-1.325h0a1.375,1.375,0,0,1,1.42-1.324h69.89a1.375,1.375,0,0,1,1.421,1.324Z" fill="#bcbcbc"/>
    <path id="Trazado_1225" data-name="Trazado 1225" d="M2483.2,9557.369a1.376,1.376,0,0,1-1.421,1.325h-69.89a1.376,1.376,0,0,1-1.42-1.325h0a1.375,1.375,0,0,1,1.42-1.325h69.89a1.375,1.375,0,0,1,1.421,1.325Z" fill="#bcbcbc"/>
    <path id="Trazado_1226" data-name="Trazado 1226" d="M2435.169,9561.975a1.375,1.375,0,0,1-1.421,1.325h-21.864a1.375,1.375,0,0,1-1.42-1.325h0a1.375,1.375,0,0,1,1.42-1.323h21.864a1.375,1.375,0,0,1,1.421,1.323Z" fill="#bcbcbc"/>
    <g id="Grupo_907" data-name="Grupo 907">
      <path id="Trazado_1227" data-name="Trazado 1227" d="M2374.33,9535.742v-22.87h22.87v22.87Zm19.66-3.21v-16.45h-16.449v16.45Z" fill="#5e98ff"/>
      <path id="Trazado_1228" data-name="Trazado 1228" d="M2396.307,9534.848h-21.084v-21.082h21.084Zm-19.66-1.423h18.236v-18.236h-18.236Z" fill="#5e98ff"/>
    </g>
    <g id="Grupo_908" data-name="Grupo 908">
      <path id="Trazado_1229" data-name="Trazado 1229" d="M2377.595,9523.786l2.271-2.27,4.645,4.645,6.934-8.968,2.54,1.964-9.164,11.853Z" fill="#5e98ff"/>
      <path id="Trazado_1230" data-name="Trazado 1230" d="M2384.733,9529.66l-5.873-5.874,1.005-1,4.732,4.73,7.008-9.064,1.125.87Z" fill="#5e98ff"/>
    </g>
    <path id="Trazado_1231" data-name="Trazado 1231" d="M2452.265,9517.191a2.051,2.051,0,0,1-2.119,1.975h-37.68a2.049,2.049,0,0,1-2.117-1.975h0a2.049,2.049,0,0,1,2.117-1.975h37.68a2.051,2.051,0,0,1,2.119,1.975Z" fill="#5e98ff"/>
    <path id="Trazado_1232" data-name="Trazado 1232" d="M2483.2,9522.819a1.375,1.375,0,0,1-1.421,1.324h-69.89a1.375,1.375,0,0,1-1.42-1.324h0a1.375,1.375,0,0,1,1.42-1.324h69.89a1.375,1.375,0,0,1,1.421,1.324Z" fill="#bcbcbc"/>
    <path id="Trazado_1233" data-name="Trazado 1233" d="M2483.2,9527.466a1.376,1.376,0,0,1-1.421,1.325h-69.89a1.375,1.375,0,0,1-1.42-1.325h0a1.375,1.375,0,0,1,1.42-1.325h69.89a1.376,1.376,0,0,1,1.421,1.325Z" fill="#bcbcbc"/>
    <path id="Trazado_1234" data-name="Trazado 1234" d="M2435.169,9532.073a1.376,1.376,0,0,1-1.421,1.324h-21.864a1.375,1.375,0,0,1-1.42-1.324h0a1.375,1.375,0,0,1,1.42-1.325h21.864a1.375,1.375,0,0,1,1.421,1.325Z" fill="#bcbcbc"/>
    <path id="Trazado_1235" data-name="Trazado 1235" d="M2452.265,9606.3a2.051,2.051,0,0,1-2.119,1.976h-37.68a2.05,2.05,0,0,1-2.117-1.976h0a2.049,2.049,0,0,1,2.117-1.974h37.68a2.05,2.05,0,0,1,2.119,1.974Z" fill="#5e98ff"/>
    <path id="Trazado_1236" data-name="Trazado 1236" d="M2483.2,9611.929a1.375,1.375,0,0,1-1.421,1.325h-69.89a1.375,1.375,0,0,1-1.42-1.325h0a1.375,1.375,0,0,1,1.42-1.323h69.89a1.375,1.375,0,0,1,1.421,1.323Z" fill="#bcbcbc"/>
    <path id="Trazado_1237" data-name="Trazado 1237" d="M2483.2,9616.576a1.376,1.376,0,0,1-1.421,1.325h-69.89a1.376,1.376,0,0,1-1.42-1.325h0a1.375,1.375,0,0,1,1.42-1.325h69.89a1.375,1.375,0,0,1,1.421,1.325Z" fill="#bcbcbc"/>
    <path id="Trazado_1238" data-name="Trazado 1238" d="M2435.169,9621.183a1.375,1.375,0,0,1-1.421,1.324h-21.864a1.375,1.375,0,0,1-1.42-1.324h0a1.375,1.375,0,0,1,1.42-1.324h21.864a1.375,1.375,0,0,1,1.421,1.324Z" fill="#bcbcbc"/>
    <g id="Grupo_909" data-name="Grupo 909">
      <path id="Trazado_1239" data-name="Trazado 1239" d="M2374.33,9624.852v-22.869h22.87v22.869Zm19.66-3.21v-16.449h-16.449v16.449Z" fill="#5e98ff"/>
      <path id="Trazado_1240" data-name="Trazado 1240" d="M2396.307,9623.958h-21.084v-21.082h21.084Zm-19.66-1.423h18.236V9604.3h-18.236Z" fill="#5e98ff"/>
    </g>
    <g id="Grupo_910" data-name="Grupo 910">
      <path id="Trazado_1241" data-name="Trazado 1241" d="M2377.595,9612.9l2.271-2.271,4.645,4.646,6.934-8.968,2.54,1.964-9.164,11.852Z" fill="#5e98ff"/>
      <path id="Trazado_1242" data-name="Trazado 1242" d="M2384.733,9618.77l-5.873-5.873,1.005-1,4.732,4.729,7.008-9.063,1.125.869Z" fill="#5e98ff"/>
    </g>
    <g id="Grupo_911" data-name="Grupo 911">
      <path id="Trazado_1243" data-name="Trazado 1243" d="M2440.751,9490.554v-20.735h20.736v20.735Zm17.826-2.911v-14.914h-14.915v14.914Z" fill="#5e98ff"/>
      <path id="Trazado_1244" data-name="Trazado 1244" d="M2460.677,9489.744h-19.116v-19.115h19.116Zm-17.825-1.29h16.535v-16.536h-16.535Z" fill="#5e98ff"/>
    </g>
    <g id="Grupo_912" data-name="Grupo 912">
      <path id="Trazado_1245" data-name="Trazado 1245" d="M2443.711,9479.714l2.059-2.059,4.212,4.212,6.287-8.131,2.3,1.78-8.31,10.747Z" fill="#5e98ff"/>
      <path id="Trazado_1246" data-name="Trazado 1246" d="M2450.184,9485.039l-5.325-5.325.912-.911,4.291,4.289,6.354-8.219,1.02.789Z" fill="#5e98ff"/>
    </g>
    <path id="Trazado_1247" data-name="Trazado 1247" d="M2382.825,9472.857a2.342,2.342,0,0,1-2.418,2.255h-43.014a2.341,2.341,0,0,1-2.417-2.255h0a2.34,2.34,0,0,1,2.417-2.255h43.014a2.341,2.341,0,0,1,2.418,2.255Z" fill="#5e98ff"/>
    <path id="Trazado_1248" data-name="Trazado 1248" d="M2418.134,9479.282a1.57,1.57,0,0,1-1.622,1.512h-79.783a1.57,1.57,0,0,1-1.622-1.512h0a1.571,1.571,0,0,1,1.622-1.513h79.783a1.57,1.57,0,0,1,1.622,1.513Z" fill="#bcbcbc"/>
    <path id="Trazado_1249" data-name="Trazado 1249" d="M2418.134,9484.586a1.57,1.57,0,0,1-1.622,1.513h-79.783a1.571,1.571,0,0,1-1.622-1.513h0a1.57,1.57,0,0,1,1.622-1.512h79.783a1.57,1.57,0,0,1,1.622,1.512Z" fill="#bcbcbc"/>
    <path id="Trazado_1250" data-name="Trazado 1250" d="M2363.31,9489.845a1.57,1.57,0,0,1-1.622,1.513h-24.959a1.571,1.571,0,0,1-1.622-1.513h0a1.57,1.57,0,0,1,1.622-1.512h24.959a1.57,1.57,0,0,1,1.622,1.512Z" fill="#bcbcbc"/>
    <g id="Grupo_913" data-name="Grupo 913">
      <path id="Trazado_1251" data-name="Trazado 1251" d="M2380.536,9633.222h0a9.371,9.371,0,1,0-9.371,9.373A9.372,9.372,0,0,0,2380.536,9633.221Z" fill="#fff"/>
    </g>
    <path id="Trazado_1252" data-name="Trazado 1252" d="M2509.213,9639.248V9626.43s-.546,6.053-16.306,6.053l-115.633,3.024s.892,6-6.109,7.087Z" fill="#ccd9f2"/>
    <path id="Trazado_1253" data-name="Trazado 1253" d="M2494.533,9633.118H2475.8c0,.035-.005.067-.005.1h-95.26a9.372,9.372,0,0,1-9.371,9.372h138.049a9.372,9.372,0,0,0,9.37-9.373C2518.584,9633.186,2494.533,9633.153,2494.533,9633.118Z" fill="#7189ad"/>
    <g id="Grupo_914" data-name="Grupo 914">
      <path id="Trazado_1254" data-name="Trazado 1254" d="M2458.188,9590.864l6.063-.312-.761-1.373-7.362-.729,0,.021-.628-.062,2.469,2.454Z" fill="#bec3ce"/>
      <path id="Trazado_1255" data-name="Trazado 1255" d="M2469.011,9589.727l.318.452c.4-.081.9-.179,1.407-.28Z" fill="#bec3ce"/>
      <path id="Trazado_1256" data-name="Trazado 1256" d="M2494.961,9593.582a4.558,4.558,0,0,0-.736-1.357l15.139,1.5v-15.469l-21.194-2.1c.007-.063.014-.114.019-.145a2.443,2.443,0,0,0,.036-.37,2.663,2.663,0,0,0-.013-.368c.027-.016.053-.03.079-.047-.214-5.441-5.009-3.6-6.634-5.548a.228.228,0,0,0-.07-.061c-.006,0-.011,0-.017,0a.042.042,0,0,0-.033,0,.083.083,0,0,0-.014.017.238.238,0,0,0-.02.043l-.009.032c0,.024-.009.052-.013.083l0,.034c-.01.12-.013.278-.018.449v.043l-.021,0a2.762,2.762,0,0,1-.28-.071,1.957,1.957,0,0,1-.842-.485c-.777-.756-2.083-.619-2.3.062a1.32,1.32,0,0,0,.189,1.048,2.926,2.926,0,0,0-1.707,2.085,2.567,2.567,0,0,0,.043,1.156.443.443,0,0,0-.09.174c-.064.225-.119.457-.165.691l-18.632-1.846-.052.519.05-.5-43.7-4.33-12.3,4.576a1.777,1.777,0,0,0-.271-.056l-10.4-.367c-.463,0-.761,1.029-.767,1.221a5.841,5.841,0,0,0,.426,1.337l10.361,1.7a1.983,1.983,0,0,0,.264,0l11.167,6.908v0l34.757,3.443,4.93,5.807c.82,1.395,3.622,4.693,5.659,4.035.2-.006.416-.017.7-.036l7.551-.052a8.935,8.935,0,0,1,1.9.017,8.28,8.28,0,0,0,3.233,3.886l1.407,20.359c.12,1.5.314,5.606.314,5.606a.12.12,0,0,0,.048.047c.008,0,.02.008.03.013a.33.33,0,0,0,.061.024l.052.011c.025,0,.049.012.079.016l.072.008c.031,0,.062.007.1.009l.09,0,.115,0h.107l.129,0,.126,0,.082,0-2.795,14.659h9.544l1.958-3.758,1.037,3.758h10.234l-1.834-13.664h.011l.054-.3c.942-.065.509-5.205.667-6.126Zm-36.773-2.718h-.221l-2.469-2.454.628.062,0-.021,7.362.729.761,1.373Zm11.141-.686-.318-.452,1.725.172C2470.224,9590,2469.731,9590.1,2469.329,9590.179Zm7.079,5.294a9.7,9.7,0,0,1-.778-1.334c-.133-.34.951-1.668.951-1.668a6.391,6.391,0,0,1-1.385-.711c-.321-.471.5-2.229.5-2.229a2.594,2.594,0,0,1,2.156-1.373c.059.246.129.535.208.858v.147l.051.067c.351,1.442.856,3.512,1.4,5.743Zm6.593,12.439c.033,1.819.089,4.76.147,7.687a.334.334,0,0,0,.007.353c.082,4.135.167,8.149.2,8.829-.092-1.293-1.146-16.58-1.173-16.688a36.044,36.044,0,0,0-2.093-6.056l1.189-.013c.759,3.012,1.351,5.271,1.409,5.236,0,0,.536-2.264,1.248-5.265l1.346-.014C2484.554,9603.673,2483.783,9605.639,2483,9607.912Zm6.889-16.745a6.409,6.409,0,0,1-1.384.711s1.082,1.328.949,1.668a9.194,9.194,0,0,1-.445.89,3.865,3.865,0,0,0-1.654-.719l-1.515.243c.447-1.879.852-3.578,1.144-4.795l0,0v0c.092-.384.174-.726.241-1a3.616,3.616,0,0,1,1.837,1.076S2490.21,9590.7,2489.89,9591.167Z" fill="#bec3ce"/>
      <path id="Trazado_1257" data-name="Trazado 1257" d="M2483.351,9624.78c0,.038,0,.06,0,.06" fill="#bec3ce"/>
      <path id="Trazado_1258" data-name="Trazado 1258" d="M2478.117,9589.23l-.051-.067v-.147c-.079-.323-.149-.612-.208-.858a2.594,2.594,0,0,0-2.156,1.373s-.826,1.759-.5,2.229a6.391,6.391,0,0,0,1.385.711s-1.084,1.328-.951,1.668a9.7,9.7,0,0,0,.778,1.334l3.113-.5C2478.973,9592.742,2478.468,9590.673,2478.117,9589.23Z" fill="#bec3ce"/>
      <path id="Trazado_1259" data-name="Trazado 1259" d="M2489.89,9591.167c.32-.471-.825-1.934-.825-1.934a3.616,3.616,0,0,0-1.837-1.076c-.067.276-.149.618-.241,1v0l0,0c-.292,1.216-.7,2.916-1.145,4.795l1.516-.243a3.865,3.865,0,0,1,1.654.719,9.194,9.194,0,0,0,.445-.89c.133-.34-.949-1.668-.949-1.668A6.409,6.409,0,0,0,2489.89,9591.167Z" fill="#bec3ce"/>
      <path id="Trazado_1260" data-name="Trazado 1260" d="M2480.085,9602.036a36.044,36.044,0,0,1,2.093,6.056c.027.108,1.081,15.4,1.173,16.688-.029-.68-.114-4.694-.2-8.829a.334.334,0,0,1-.007-.353c-.058-2.927-.114-5.867-.147-7.687.782-2.273,1.553-4.239,2.276-5.931l-1.346.014c-.712,3-1.248,5.265-1.248,5.265-.058.035-.65-2.225-1.409-5.236Z" fill="#bec3ce"/>
    </g>
    <path id="Trazado_1261" data-name="Trazado 1261" d="M2305.967,9458.757a8.859,8.859,0,0,0-1.131-.075C2303.468,9458.682,2304.012,9458.71,2305.967,9458.757Z" fill="#aacaf9"/>
    <path id="Trazado_1262" data-name="Trazado 1262" d="M2551.834,9668.708c1.465,3.038,4.637,5.689,6.961,3.829,2.193-1.755,2.019-6.814.415-9.73a14.734,14.734,0,0,0-11.122-7.362C2549.892,9659.188,2550.37,9665.669,2551.834,9668.708Z" fill="#ffd4b3"/>
    <path id="Trazado_1263" data-name="Trazado 1263" d="M2558.795,9672.537c2.193-1.755,2.019-6.814.415-9.73a14.734,14.734,0,0,0-11.122-7.362C2557.49,9663.193,2558.795,9672.537,2558.795,9672.537Z" fill="#ffd4b3"/>
    <g id="Grupo_916" data-name="Grupo 916">
      <g id="Grupo_915" data-name="Grupo 915">
        <path id="Trazado_1264" data-name="Trazado 1264" d="M2558.5,9670.816l-.193-.652c-.059-.212-.136-.467-.241-.755s-.207-.626-.355-.978l-.221-.557c-.079-.192-.17-.385-.26-.588-.174-.411-.391-.822-.609-1.265-.457-.865-.994-1.779-1.6-2.692a49.637,49.637,0,0,0-3.328-4.358l-1.455-1.7s.587.593,1.508,1.6a37.08,37.08,0,0,1,3.4,4.29,27.086,27.086,0,0,1,1.591,2.739c.214.453.425.875.592,1.3.086.209.174.406.249.6l.208.572c.139.359.235.7.328,1s.164.556.216.771Z" fill="#ffd4b3"/>
      </g>
    </g>
    <path id="Trazado_1265" data-name="Trazado 1265" d="M2555.678,9664.741c.279,6.543,3.027,13.064,7.113,10.444,3.857-2.472,6.388-12.393,5.857-18.757-1.25-14.982-10.687-19.111-10.687-19.111C2558.3,9645.379,2555.4,9658.2,2555.678,9664.741Z" fill="#ffd4b3"/>
    <path id="Trazado_1266" data-name="Trazado 1266" d="M2572.187,9668.521c-1.994,2.721-5.595,4.748-7.541,2.5-1.838-2.125-.746-7.067,1.363-9.643a14.736,14.736,0,0,1,12.277-5.215C2575.829,9659.514,2574.18,9665.8,2572.187,9668.521Z" fill="#ffd4b3"/>
    <path id="Trazado_1267" data-name="Trazado 1267" d="M2564.646,9671.019c-1.838-2.125-.746-7.067,1.363-9.643a14.736,14.736,0,0,1,12.277-5.215C2567.63,9662.068,2564.646,9671.019,2564.646,9671.019Z" fill="#ffd4b3"/>
    <g id="Grupo_918" data-name="Grupo 918">
      <g id="Grupo_917" data-name="Grupo 917">
        <path id="Trazado_1268" data-name="Trazado 1268" d="M2565.254,9669.381l.308-.605c.1-.2.219-.436.374-.7s.318-.577.527-.9l.319-.508c.112-.175.238-.347.362-.531.247-.372.535-.736.83-1.132.607-.768,1.3-1.568,2.062-2.355a49.366,49.366,0,0,1,4.065-3.681l1.74-1.4s-.685.476-1.776,1.3a37.058,37.058,0,0,0-4.123,3.6,27.154,27.154,0,0,0-2.064,2.4c-.292.407-.577.784-.818,1.167-.122.19-.245.368-.354.548l-.309.524c-.2.328-.359.649-.5.924s-.262.517-.353.719Z" fill="#ffd4b3"/>
      </g>
    </g>
    <path id="Trazado_1269" data-name="Trazado 1269" d="M2562.791,9675.186c3.857-2.472,6.388-12.393,5.857-18.757-1.25-14.982-10.687-19.111-10.687-19.111C2566.164,9656.439,2562.791,9675.186,2562.791,9675.186Z" fill="#ffd4b3"/>
    <path id="Trazado_1270" data-name="Trazado 1270" d="M2562.791,9675.186c3.857-2.472,6.388-12.393,5.857-18.757-1.25-14.982-10.687-19.111-10.687-19.111C2566.164,9656.439,2562.791,9675.186,2562.791,9675.186Z" fill="#ffd4b3"/>
    <g id="Grupo_920" data-name="Grupo 920">
      <g id="Grupo_919" data-name="Grupo 919">
        <path id="Trazado_1271" data-name="Trazado 1271" d="M2563.334,9671.707s.036-.481.1-1.352c.036-.437.075-.968.093-1.573s.067-1.307.064-2.054q.006-.562.012-1.179c0-.408-.016-.822-.024-1.255-.006-.875-.069-1.77-.115-2.724-.132-1.88-.344-3.893-.645-5.927-.616-4.058-1.423-7.468-2.022-9.912-.616-2.427-1-3.929-1-3.929s.452,1.407,1.118,3.771a81.458,81.458,0,0,1,2.155,9.811c.3,2.051.5,4.1.61,6.015.034.973.083,1.886.074,2.777,0,.443.009.865,0,1.281s-.025.818-.036,1.2c-.013.76-.074,1.472-.112,2.088s-.086,1.152-.135,1.594Z" fill="#ffd4b3"/>
      </g>
    </g>
    <path id="Trazado_1272" data-name="Trazado 1272" d="M2576.434,9676.837c-.061-2.658.646-4.285-2.544-4.937-.942-.192-2.28,1.016-4.3.127-2.88-2.871-2.874-4.947-5.912-4.947-3.525,0-5.656,3.517-5.656,7.552a8.428,8.428,0,0,0,.037,2.205Z" fill="#0086ff"/>
    <path id="Trazado_1273" data-name="Trazado 1273" d="M2450.942,9671.222c-2.135.115-.891,1.975,38.732,1.436,2.717-.038,7.323.538,10.392.411,21.129-.875,41.412.2,41.412-1.549,0-1.534-36.913-3.669-52.245-1.638C2483,9670.708,2456.024,9670.948,2450.942,9671.222Z" fill="url(#linear-gradient-2)"/>
    <g id="Grupo_922" data-name="Grupo 922">
      <g id="Grupo_921" data-name="Grupo 921">
        <path id="Trazado_1274" data-name="Trazado 1274" d="M2462.585,9639.834c-.114,2.272,1.37.737,2.969,1.178l1.045,2.867c1.6.441,2.73-3.646,3.343-5.708l10.646-20.781c.611-2.061-1.852-5.821-3.452-6.263l-3.091,1.333c-1.6-.442-6.047.14-6.66,2.2Z" fill="#0f3871"/>
      </g>
    </g>
    <path id="Trazado_1275" data-name="Trazado 1275" d="M2462.141,9670.24l2.425.077.2-3.771-2.424-.076Z" fill="#fdc8a8"/>
    <path id="Trazado_1276" data-name="Trazado 1276" d="M2464.765,9666.547l-.069,1.311a.952.952,0,0,0-.454-.047c-.635.09-1.191.163-1.413.814a1.992,1.992,0,0,0,.178,1.15c.051.166.1.331.151.5l-1.017-.033.2-3.77Z" fill="#fdc8a8"/>
    <path id="Trazado_1277" data-name="Trazado 1277" d="M2454.073,9672.3c-.034-.04-.023-.149-.03-.447-.007-.42,2.9-1.142,4.7-1.539a3.619,3.619,0,0,0,1.3-.562c.223-.23.075-.206.24-.142.5.191.91-.071,1.319-.083l-.014,3.153c-2.459.071-6.236.149-7.038.168-.5.013-.493-.189-.5-.44A.426.426,0,0,1,2454.073,9672.3Z" fill="#0f3871"/>
    <path id="Trazado_1278" data-name="Trazado 1278" d="M2454.073,9672.3c-.034-.04-.023-.149-.03-.447-.007-.42,2.9-1.142,4.7-1.539a3.619,3.619,0,0,0,1.3-.562c.223-.23.075-.206.24-.142.5.191.824-.069,1.319-.083l-.014,3.153c-2.459.071-6.236.149-7.038.168-.5.013-.493-.189-.5-.44A.426.426,0,0,1,2454.073,9672.3Z" fill="#c591a5"/>
    <path id="Trazado_1279" data-name="Trazado 1279" d="M2461.59,9672.1l0,.582c-2.46.071-6.236.148-7.037.168-.5.013-.493-.189-.5-.44a.491.491,0,0,1,.02-.1Z" fill="#0f3871"/>
    <path id="Trazado_1280" data-name="Trazado 1280" d="M2461.589,9672.124l0,.555c-2.459.071-6.236.149-7.038.168-.5.013-.493-.189-.5-.44a.309.309,0,0,1,.016-.07Z" fill="#db967f"/>
    <path id="Trazado_1281" data-name="Trazado 1281" d="M2455.457,9672.366c0,.252,0,.454.5.441,1.18-.028,8.813-.183,9.191-.259.208-.044.488-.218.482-.469h0a.465.465,0,0,0-.5-.441l-9.191.259a.479.479,0,0,0-.482.469Z" fill="#0f3871"/>
    <g id="Grupo_924" data-name="Grupo 924">
      <g id="Grupo_923" data-name="Grupo 923">
        <path id="Trazado_1282" data-name="Trazado 1282" d="M2465.626,9671.9c.019.159-3.133.2-10.036.384-.164,0-.134,0-.143-.47-.005-.421,2.9-1.144,4.7-1.538a3.621,3.621,0,0,0,1.3-.562c.226-.229.078-.206.242-.143,3.139,1.2,2.9-.444,3.41-.27C2465.7,9669.51,2465.591,9671.618,2465.626,9671.9Z" fill="#0f3871"/>
      </g>
    </g>
    <path id="Trazado_1283" data-name="Trazado 1283" d="M2461.224,9670.737c.014.028.066.034.116.013h0c.047-.021.075-.064.059-.094l-.387-.757c-.015-.03-.067-.037-.116-.016h0c-.05.021-.076.066-.058.1Z" fill="#0f3871"/>
    <path id="Trazado_1284" data-name="Trazado 1284" d="M2460.5,9670.771c.009.023.057.03.109.014h0c.05-.019.084-.051.075-.078l-.237-.624c-.008-.025-.057-.031-.109-.014h0c-.05.017-.083.052-.074.075Z" fill="#0f3871"/>
    <path id="Trazado_1285" data-name="Trazado 1285" d="M2459.877,9670.67c0,.014.049.015.1,0h0c.05-.015.089-.041.085-.056l-.133-.4c0-.016-.051-.017-.1,0h0c-.05.015-.088.04-.084.058Z" fill="#0f3871"/>
    <g id="Grupo_926" data-name="Grupo 926">
      <g id="Grupo_925" data-name="Grupo 925">
        <path id="Trazado_1286" data-name="Trazado 1286" d="M2465.825,9636.973l.759-.018c1.675-.043,2.578,1.084,2.456,3.452l-3.649,24.986-.362,2.088-3.248-.5.685-26.271C2462.589,9638.339,2464.149,9637.013,2465.825,9636.973Z" fill="#0f3871"/>
      </g>
    </g>
    <path id="Trazado_1287" data-name="Trazado 1287" d="M2475.149,9617.8l1.416,7.654-6.623,12.713c-.248.838-.585,2.009-1,3.077-.024-1.018,1.987-8.349,4.194-14.121C2475.032,9622.158,2474.31,9618.348,2475.149,9617.8Z" fill="#f48baa"/>
    <g id="Grupo_928" data-name="Grupo 928">
      <g id="Grupo_927" data-name="Grupo 927">
        <path id="Trazado_1288" data-name="Trazado 1288" d="M2479.991,9641.83c.4,2.124,3.362-.271,5.109-.59l.792-.146c1.747-.317,2.457-2.243,2.054-4.368L2485,9614.795c-.4-2.122-1.4-5.875-3.152-5.557l-2.326,2.58c-1.745.317-6.413,4.181-6.009,6.306Z" fill="#0f3871"/>
      </g>
    </g>
    <path id="Trazado_1289" data-name="Trazado 1289" d="M2489.68,9669.4l2.405-.338-.486-3.738-2.406.336Z" fill="#fdc8a8"/>
    <path id="Trazado_1290" data-name="Trazado 1290" d="M2491.6,9665.325l.168,1.3a.963.963,0,0,0-.456.033c-.61.194-1.144.362-1.246,1.04a2,2,0,0,0,.385,1.1c.081.154.162.306.239.463l-1.009.142-.487-3.74Z" fill="#fdc8a8"/>
    <g id="Grupo_931" data-name="Grupo 931">
      <path id="Trazado_1291" data-name="Trazado 1291" d="M2483.623,9671.562a1.509,1.509,0,0,1-.073-.44c-.051-.416,2.338-1.218,3.821-1.664a2.642,2.642,0,0,0,1.041-.595c.164-.234.042-.205.187-.148.449.176.766-.1,1.111-.121l.328,3.128c-2.079.145-5.273.33-5.951.373-.42.026-.44-.173-.47-.423A.452.452,0,0,1,2483.623,9671.562Z" fill="#0f3871"/>
      <path id="Trazado_1292" data-name="Trazado 1292" d="M2483.623,9671.562a1.509,1.509,0,0,1-.073-.44c-.051-.416,2.338-1.218,3.821-1.664a2.642,2.642,0,0,0,1.041-.595c.164-.234.042-.205.187-.148.449.176.692-.093,1.111-.121l.328,3.128c-2.079.145-5.273.33-5.951.373-.42.026-.44-.173-.47-.423A.452.452,0,0,1,2483.623,9671.562Z" fill="#c591a5"/>
      <path id="Trazado_1293" data-name="Trazado 1293" d="M2489.977,9671.144l.06.576c-2.079.146-5.273.331-5.95.374-.42.026-.44-.173-.47-.423a.344.344,0,0,1,.006-.1Z" fill="#0f3871"/>
      <path id="Trazado_1294" data-name="Trazado 1294" d="M2489.981,9671.172l.057.549c-2.079.145-5.273.33-5.951.373-.42.026-.44-.173-.47-.423a.261.261,0,0,1,.005-.07Z" fill="#db967f"/>
      <path id="Trazado_1295" data-name="Trazado 1295" d="M2485.587,9671.535c.031.25.049.451.408.429.851-.049,6.356-.338,6.622-.422a.452.452,0,0,0,.3-.474h0a.444.444,0,0,0-.407-.43l-6.623.423a.388.388,0,0,0-.3.474Z" fill="#0f3871"/>
      <g id="Grupo_930" data-name="Grupo 930">
        <g id="Grupo_929" data-name="Grupo 929">
          <path id="Trazado_1296" data-name="Trazado 1296" d="M2492.9,9670.887c.032.159-2.244.256-7.22.562-.118.007-.1,0-.151-.463-.051-.416,1.978-1.187,3.235-1.612a2.093,2.093,0,0,0,.88-.579c.139-.233.035-.206.159-.146,2.4,1.132,2.055-.493,2.439-.328C2492.694,9668.519,2492.841,9670.61,2492.9,9670.887Z" fill="#0f3871"/>
        </g>
      </g>
      <path id="Trazado_1297" data-name="Trazado 1297" d="M2489.588,9669.816a.058.058,0,0,0,.085.011h0a.083.083,0,0,0,.034-.1l-.36-.742a.057.057,0,0,0-.086-.015h0a.084.084,0,0,0-.034.1Z" fill="#0f3871"/>
      <path id="Trazado_1298" data-name="Trazado 1298" d="M2488.875,9669.958c.009.024.044.029.08.011h0c.035-.017.055-.052.045-.076l-.237-.616c-.007-.024-.044-.031-.079-.013h0c-.035.019-.056.054-.046.078Z" fill="#0f3871"/>
      <path id="Trazado_1299" data-name="Trazado 1299" d="M2488.267,9670.058c.006.016.039.016.074,0h0c.036-.015.061-.041.056-.056l-.138-.391c0-.016-.039-.017-.074,0h0c-.036.016-.06.041-.056.057Z" fill="#0f3871"/>
      <path id="Trazado_1300" data-name="Trazado 1300" d="M2489.286,9669.075a.056.056,0,0,0,.062-.062h0a.1.1,0,0,0-.082-.074l-1-.08a.054.054,0,0,0-.063.061h0a.09.09,0,0,0,.082.075Z" fill="#0f3871"/>
      <path id="Trazado_1301" data-name="Trazado 1301" d="M2488.708,9669.382a.052.052,0,0,0,.058-.06h0a.077.077,0,0,0-.065-.073l-.856-.093a.056.056,0,0,0-.059.061h0a.081.081,0,0,0,.066.073Z" fill="#0f3871"/>
      <path id="Trazado_1302" data-name="Trazado 1302" d="M2488.2,9669.7a.055.055,0,0,0,.067-.05h0a.076.076,0,0,0-.054-.082l-.828-.21a.055.055,0,0,0-.069.051h0a.076.076,0,0,0,.053.081Z" fill="#0f3871"/>
    </g>
    <g id="Grupo_933" data-name="Grupo 933">
      <g id="Grupo_932" data-name="Grupo 932">
        <path id="Trazado_1303" data-name="Trazado 1303" d="M2483.979,9636.858l.774-.23c1.705-.515,2.954.311,3.506,2.616l3.4,25,.226,2.1-3.476.438-8.417-24.954C2479.44,9639.525,2482.271,9637.372,2483.979,9636.858Z" fill="#0f3871"/>
      </g>
    </g>
    <path id="Trazado_1304" data-name="Trazado 1304" d="M2473.924,9619.6c.189.051,5.664,15.9,6.04,17.439.615,2.521,7.987,25.7,9.315,29.637l-.871.109-7.857-23.6a8.488,8.488,0,0,1-.56-1.355l-4.891-17.723Z" fill="#f48baa"/>
    <path id="Trazado_1305" data-name="Trazado 1305" d="M2462.466,9640.707a5.173,5.173,0,0,1,.119-.869v0l4.8-25.171c.613-2.063,5.063-2.646,6.66-2.2l3.091-1.333a2.074,2.074,0,0,1,1.212,1.354,7,7,0,0,1,2.433-.487l.8.035c1.226.055,3.115,2.818,3.838,4.2l-.124.693s-5.911.215-9.494-1.514c0,0-.176.517-3.876,1.457-2.5.637-6.78,20.8-7.141,22.8-1.374,7.626-1.481,20.765-1.533,27.429l-1.474-.117Z" fill="#f48baa"/>
    <path id="Trazado_1306" data-name="Trazado 1306" d="M2438.911,9565.6c.914-3.908-3.993-3.224-4.208-.671-.079.943,2.435,6.3,2.435,6.3l3.117-.8S2438.622,9566.838,2438.911,9565.6Z" fill="#fdc8a8"/>
    <g id="Grupo_935" data-name="Grupo 935">
      <g id="Grupo_934" data-name="Grupo 934">
        <path id="Trazado_1307" data-name="Trazado 1307" d="M2440.4,9568.771l13.2,13.121a5.449,5.449,0,0,0-1.849,3.621c-2.019,2.117-5.518-1.938-6.451-3.525l-8.82-10.389c-.352-.61,1.552-2.39,2.937-3.025C2440.337,9568.151,2440.4,9568.771,2440.4,9568.771Z" fill="#0f3871"/>
      </g>
    </g>
    <g id="Grupo_937" data-name="Grupo 937">
      <g id="Grupo_936" data-name="Grupo 936">
        <path id="Trazado_1308" data-name="Trazado 1308" d="M2454.623,9579.323l7.15-.4c2.132-.269,7.82-2.077,9.661-.825l-3.722,11.066c-1.419-2.673-6.514-3.485-8.509-3.232l-7.551.053c-.691.046-.971.049-1.707.039l-.615-6.577A52.148,52.148,0,0,0,2454.623,9579.323Z" fill="#0f3871"/>
      </g>
    </g>
    <path id="Trazado_1309" data-name="Trazado 1309" d="M2461.6,9579.706c-4.358.229-9.323,1.056-10.567.4-1.334-.705-4.779-5.472-4.8-5.529l4.924,4.9,10.615-.544c.575-.127,2.545-.5,3.823-.773,4.523-.952,5.628-.148,5.628-.148C2472.061,9579.041,2463.055,9579.63,2461.6,9579.706Z" fill="#f48baa"/>
    <g id="Grupo_940" data-name="Grupo 940">
      <g id="Grupo_939" data-name="Grupo 939">
        <g id="Grupo_938" data-name="Grupo 938">
          <path id="Trazado_1310" data-name="Trazado 1310" d="M2522.846,9584.02c1.557.155,2.913-.685,3.037-1.872l1.024-10.316c.111-1.192-1.051-2.283-2.612-2.43l-10.5-1.05c-1.557-.152-2.913.7-3.029,1.89l-1.027,10.3c-.129,1.194,1.052,2.281,2.6,2.438Z" fill="#5e98ff"/>
          <path id="Trazado_1311" data-name="Trazado 1311" d="M2449.31,9577.046l55.556,5.5,1.508-15.32-55.539-5.5Z" fill="#ffd4b3"/>
          <rect id="Rectángulo_76" data-name="Rectángulo 76" width="15.397" height="43.913" transform="translate(2405.613 9572.737) rotate(-84.341)" fill="#ffd4b3"/>
          <rect id="Rectángulo_77" data-name="Rectángulo 77" width="4.526" height="43.913" transform="translate(2406.686 9561.92) rotate(-84.341)" fill="#ffe2cf"/>
          <path id="Trazado_1312" data-name="Trazado 1312" d="M2450.386,9566.231l55.548,5.5.44-4.506-55.539-5.5Z" fill="#ffe2cf"/>
          <rect id="Rectángulo_78" data-name="Rectángulo 78" width="4.713" height="55.831" transform="matrix(0.099, -0.995, 0.995, 0.099, 2449.311, 9577.034)" fill="#e5a67c"/>
          <rect id="Rectángulo_79" data-name="Rectángulo 79" width="4.72" height="43.909" transform="translate(2405.614 9572.736) rotate(-84.338)" fill="#e5a67c"/>
          <path id="Trazado_1313" data-name="Trazado 1313" d="M2390.72,9563.522l16.413-6.106-1.52,15.32Z" fill="#e5caa3"/>
          <path id="Trazado_1314" data-name="Trazado 1314" d="M2390.72,9563.522l16.413-6.106-.447,4.5Z" fill="#fff"/>
          <path id="Trazado_1315" data-name="Trazado 1315" d="M2406.077,9568.041l-15.357-4.519,15.966-1.6" fill="#f9ecd7"/>
        </g>
      </g>
      <path id="Trazado_1316" data-name="Trazado 1316" d="M2507.017,9584.432a2.248,2.248,0,0,0,2.528-1.928l1.417-14.241a2.244,2.244,0,0,0-2.1-2.385h0a2.247,2.247,0,0,0-2.532,1.926l-1.415,14.241a2.247,2.247,0,0,0,2.1,2.387Z" fill="#f2ebdd"/>
      <path id="Trazado_1317" data-name="Trazado 1317" d="M2511.646,9584.9a2.256,2.256,0,0,0,2.53-1.934l1.418-14.234a2.251,2.251,0,0,0-2.1-2.391h0a2.253,2.253,0,0,0-2.533,1.925l-1.417,14.241a2.26,2.26,0,0,0,2.1,2.393Z" fill="#f2ebdd"/>
      <path id="Trazado_1318" data-name="Trazado 1318" d="M2383.819,9564.127a5.8,5.8,0,0,1-.427-1.337h0c.007-.191.3-1.222.768-1.22l10.4.366a1.957,1.957,0,0,1,1.751,2.143h0a1.954,1.954,0,0,1-2.136,1.748Z" fill="#283042"/>
    </g>
    <path id="Trazado_1319" data-name="Trazado 1319" d="M2471.065,9577.838l-.639,10.09,5.248,8.537,4.645-8.537v-10.386Z" fill="#f2ebdd"/>
    <path id="Trazado_1320" data-name="Trazado 1320" d="M2479.9,9577.369h0a13.2,13.2,0,0,1,1.058,5.021c.021,1.142-5.288,14.075-5.288,14.075-.713.136-1.535-6.076-2.072-6.422-1.11-.714-.431-3.905-1.359-4.83-1.9-1.894-.79-5.334-1.333-7.844h0c-5.2.313-5.428,1.136-6.054,1.971a4.223,4.223,0,0,0-1.021,3.239l1.907,27.618c.121,1.5.315,5.605.315,5.605.273.581,8.842-.807,10.482-2.368,0,0,.972,2.368,8.771,3.2,1,.106.55-5.2.711-6.137l2.123-28.316C2487.209,9579.27,2482.8,9577.369,2479.9,9577.369Z" fill="#0f3871"/>
    <path id="Trazado_1321" data-name="Trazado 1321" d="M2465.222,9578.934c.679-.686.673-1.131,5.687-1.564a7.675,7.675,0,0,1,.127.895c-.441.316-1.353.048-1.908.118-1.783.227-3.683.055-3.565,2.165.157,2.855-.054,9.271.223,12.1.541,5.555,1.5,16.69,1.533,17.9.032,1.085.06,2.522.985,3.253,1.655,1.308,7.181-.332,7.836-.07-2.306,1.434-9.829,2.614-10.084,2.07,0,0-.194-4.1-.315-5.605l-1.907-27.618A4.371,4.371,0,0,1,2465.222,9578.934Z" fill="#f48baa"/>
    <g id="Grupo_941" data-name="Grupo 941">
      <path id="Trazado_1322" data-name="Trazado 1322" d="M2476.533,9613.375c0,.038.005.06.005.06A.5.5,0,0,1,2476.533,9613.375Z" fill="#fdc8a8"/>
      <path id="Trazado_1323" data-name="Trazado 1323" d="M2468.883,9578.125a2.588,2.588,0,0,1,2.156-1.372c.967,4,4.677,19.193,4.826,19.1,0,0,3.61-15.239,4.545-19.1a3.624,3.624,0,0,1,1.837,1.075s1.145,1.463.825,1.935a6.409,6.409,0,0,1-1.385.71s1.083,1.328.95,1.668a88.555,88.555,0,0,0-6.454,14.367c.081,4.462.3,15.689.35,16.867-.092-1.292-1.146-16.58-1.173-16.688-1.975-7.965-6.016-12.6-6.548-13.952-.133-.341.951-1.668.951-1.668a6.413,6.413,0,0,1-1.386-.71C2468.057,9579.884,2468.883,9578.125,2468.883,9578.125Z" fill="#0f3871"/>
      <path id="Trazado_1324" data-name="Trazado 1324" d="M2468.883,9578.125a2.588,2.588,0,0,1,2.156-1.372c.967,4,4.677,19.193,4.826,19.1,0,0,3.61-15.239,4.545-19.1a3.624,3.624,0,0,1,1.837,1.075s1.145,1.463.825,1.935a6.409,6.409,0,0,1-1.385.71s1.083,1.328.95,1.668a88.555,88.555,0,0,0-6.454,14.367c.081,4.462.3,15.689.35,16.867-.092-1.292-1.146-16.58-1.173-16.688-1.975-7.965-6.016-12.6-6.548-13.952-.133-.341.951-1.668.951-1.668a6.413,6.413,0,0,1-1.386-.71C2468.057,9579.884,2468.883,9578.125,2468.883,9578.125Z" fill="#f48baa"/>
    </g>
    <g id="Grupo_942" data-name="Grupo 942">
      <path id="Trazado_1325" data-name="Trazado 1325" d="M2479.65,9578.378c-.1,1.218-1.646,1.726-3.656,1.54l-.169.332c-2.008-.178-3.552-1.312-3.451-2.529l1.1-9.184c.1-1.216,1.487-2.082,3.5-1.9h0c2.007.183,2.9,1.262,2.8,2.484Z" fill="#fdc8a8"/>
    </g>
    <path id="Trazado_1326" data-name="Trazado 1326" d="M2480.169,9577.759l-3.523,4.219-1.194-2.447,4.733-3.631Z" fill="#bac8e2"/>
    <path id="Trazado_1327" data-name="Trazado 1327" d="M2480.169,9577.759l-3.523,3.785-1.267-2.136,4.806-3.942Z" fill="#f2ebdd"/>
    <path id="Trazado_1328" data-name="Trazado 1328" d="M2471.248,9577.759l3.523,4.608.776-2.945-4.314-3.522Z" fill="#bac8e2"/>
    <path id="Trazado_1329" data-name="Trazado 1329" d="M2471.248,9577.759l3.523,3.785.766-2.267-4.3-3.812Z" fill="#f2ebdd"/>
    <path id="Trazado_1330" data-name="Trazado 1330" d="M2477.127,9604.366a.423.423,0,1,1-.421-.393A.405.405,0,0,1,2477.127,9604.366Z" fill="#f48baa"/>
    <path id="Trazado_1331" data-name="Trazado 1331" d="M2474.9,9598.676a.424.424,0,1,1-.422-.392A.409.409,0,0,1,2474.9,9598.676Z" fill="#f48baa"/>
    <path id="Trazado_1332" data-name="Trazado 1332" d="M2475.716,9609.407a.423.423,0,1,1-.422-.393A.407.407,0,0,1,2475.716,9609.407Z" fill="#f48baa"/>
    <path id="Trazado_1333" data-name="Trazado 1333" d="M2457.469,9570.263c.678-3.956-4.179-2.979-4.24-.417-.023.946,2.808,6.143,2.808,6.143l3.063-.982S2457.255,9571.513,2457.469,9570.263Z" fill="#fdc8a8"/>
    <g id="Grupo_944" data-name="Grupo 944">
      <g id="Grupo_943" data-name="Grupo 943">
        <path id="Trazado_1334" data-name="Trazado 1334" d="M2487.672,9585.665a10.421,10.421,0,0,1-8.617,4.905l-7.042.074c-2.165.125-5.155-.542-7-.576l-2.215-5.649c1.907.9,1.8.4,2.485.341l15.258-2.448c.913-.022,2.516,1.555,3.476,1.479Z" fill="#0f3871"/>
      </g>
    </g>
    <path id="Trazado_1335" data-name="Trazado 1335" d="M2472.822,9572.779l6.956-.649-.043,1.5a18.886,18.886,0,0,1-4.928,2.6c-.715.07-2.349-.976-2.333-1.38Z" fill="#fdc8a8"/>
    <path id="Trazado_1336" data-name="Trazado 1336" d="M2470.864,9565.112l-.781-.354c-.649-.287-1.173.078-1.246.822-.126,1.275.929,1.363.891,2.361l1.626-.214Z" fill="#fdc8a8"/>
    <path id="Trazado_1337" data-name="Trazado 1337" d="M2479.964,9567.282l.836-.193c.693-.153,1.133.309,1.06,1.053-.128,1.274-1.128,1.105-1.4,2.211l-1.49-.6Z" fill="#fdc8a8"/>
    <path id="Trazado_1338" data-name="Trazado 1338" d="M2469.973,9571.093c.559,1.758,2.032,4.254,3.257,4.524,1.373.3,5.511-1.682,6.152-2.874,1.767-3.3,2.96-12.2-3.607-12.519-1.751-.083-4.732-1.1-5.7,2.107A20.8,20.8,0,0,0,2469.973,9571.093Z" fill="#fdc8a8"/>
    <path id="Trazado_1339" data-name="Trazado 1339" d="M2469.973,9571.093a20.8,20.8,0,0,1,.1-8.761c.969-3.209,3.95-2.19,5.7-2.107a5.754,5.754,0,0,1,2.929.864,1.412,1.412,0,0,0-.185.113,12.461,12.461,0,0,0-2.864,2.891c-.061.087-.3-.257-.332-.171a7.207,7.207,0,0,1-1.959.851c-.6.081-2.917-.624-3.176.377a10.253,10.253,0,0,0-.1,5.407c1.129,3.931,3.139,5.061,3.139,5.061C2472,9575.347,2470.532,9572.851,2469.973,9571.093Z" fill="#fdc8a8"/>
    <path id="Trazado_1340" data-name="Trazado 1340" d="M2469.8,9571.046c-.505,1.473,1.813,5.288,3.2,5.594,1.557.338,6.443-2.071,6.893-3.54.821-2.678.764-3.11,0-3.1-.494.01-1.812,1.944-3.031,2.14-.872.14-.515-1.52-3.364-1.36-2.095.116-1.724.5-2.281.819C2470.386,9572.077,2470.068,9570.261,2469.8,9571.046Z" fill="#0f3871"/>
    <g id="Grupo_946" data-name="Grupo 946">
      <g id="Grupo_945" data-name="Grupo 945">
        <path id="Trazado_1341" data-name="Trazado 1341" d="M2474.839,9558.274c-.473-.567.266,2.506-1.086,1.565-.606-.421-2.062-.026-2.843,1.381l6.094,1.594c.383,0,.767.01,1.15.027a2,2,0,0,1,1.793,1.813c.51-.266,1.023-.526,1.526-.832C2481.259,9558.38,2476.464,9560.223,2474.839,9558.274Z" fill="#0f3871"/>
      </g>
    </g>
    <path id="Trazado_1342" data-name="Trazado 1342" d="M2471.2,9558.419c-.215.68.374,1.6,1.314,2.055a2.517,2.517,0,0,0,2.793-1.1c.214-.68-.866-.1-1.807-1.013C2472.72,9557.6,2471.413,9557.738,2471.2,9558.419Z" fill="#0f3871"/>
    <path id="Trazado_1343" data-name="Trazado 1343" d="M2471.352,9564.041c-1.486-.108-1.732,2.905-1.732,2.905-.415-.062-.492-2.3.011-4.065C2469.947,9561.774,2472.426,9564.118,2471.352,9564.041Z" fill="#0f3871"/>
    <path id="Trazado_1344" data-name="Trazado 1344" d="M2471.352,9564.041c-1.486-.108-1.732,2.905-1.732,2.905-.415-.062-.492-2.3.011-4.065C2469.947,9561.774,2472.426,9564.118,2471.352,9564.041Z" fill="#f48baa"/>
    <path id="Trazado_1345" data-name="Trazado 1345" d="M2469.679,9561.552a2.352,2.352,0,0,0,1.693,2.764c2.862,1.158,3.553-.765,7.528.251.341.087-.271.921.809,1.874a3.4,3.4,0,0,1,.751,2.861c.579.007.832-4.252.911-4.693.377-2.146-1.934-4.567-5.161-5.41S2470.058,9559.408,2469.679,9561.552Z" fill="#0f3871"/>
    <path id="Trazado_1346" data-name="Trazado 1346" d="M2480.478,9568.067s.422-3.39.358-4.363c-.09-1.37-.174-2.324-1.44-3.068a13.012,13.012,0,0,0-3.137-.674,3.551,3.551,0,0,1-2-1.138,2.7,2.7,0,0,0,.376.095c.015-.479,0-.883.2-.645,1.625,1.948,6.42.105,6.634,5.548l-.08.047a2.735,2.735,0,0,1-.022.739c-.079.441-.332,4.7-.911,4.693A10.261,10.261,0,0,0,2480.478,9568.067Z" fill="#f48baa"/>
    <g id="Grupo_948" data-name="Grupo 948">
      <g id="Grupo_947" data-name="Grupo 947">
        <path id="Trazado_1347" data-name="Trazado 1347" d="M2458.639,9573.28l8.58,12.176c-2.179,1.033-.533,4.266-.533,4.266-2.705,1.718-5.282-2.724-5.831-4.393l-6.111-11.034c-.2-.642,1.282-.964,2.915-1.358C2458.746,9572.675,2458.639,9573.28,2458.639,9573.28Z" fill="#0f3871"/>
      </g>
    </g>
    <path id="Trazado_1348" data-name="Trazado 1348" d="M2227.125,9666.487c-2.437,2.978-6.664,5.068-8.743,2.386-1.964-2.533-.419-8.1,2.141-10.9a16.808,16.808,0,0,1,14.3-5.191C2231.823,9656.448,2229.561,9663.508,2227.125,9666.487Z" fill="#ffd4b3"/>
    <path id="Trazado_1349" data-name="Trazado 1349" d="M2218.382,9668.873c-1.964-2.533-.419-8.1,2.141-10.9a16.808,16.808,0,0,1,14.3-5.191C2222.327,9658.858,2218.382,9668.873,2218.382,9668.873Z" fill="#ffd4b3"/>
    <g id="Grupo_950" data-name="Grupo 950">
      <g id="Grupo_949" data-name="Grupo 949">
        <path id="Trazado_1350" data-name="Trazado 1350" d="M2219.174,9667.044l.389-.672c.122-.218.275-.481.468-.773s.4-.638.655-.987l.394-.56c.139-.191.292-.381.446-.582.3-.409.654-.807,1.014-1.239.737-.838,1.578-1.708,2.492-2.559a56.935,56.935,0,0,1,4.856-3.944l2.066-1.491s-.809.5-2.1,1.376a42.338,42.338,0,0,0-4.917,3.848,31.28,31.28,0,0,0-2.5,2.612c-.357.445-.7.856-1,1.279-.151.208-.3.4-.438.6l-.383.578c-.25.361-.449.719-.631,1.021s-.331.572-.446.8Z" fill="#ffd4b3"/>
      </g>
    </g>
    <path id="Trazado_1351" data-name="Trazado 1351" d="M2223.922,9666.977c-2.059,8.552-6.85,16.288-10.681,11.528-3.616-4.493-3.77-18.4-1.48-26.634,5.392-19.386,16.961-21.835,16.961-21.835C2226.186,9640.573,2225.98,9658.425,2223.922,9666.977Z" fill="#ffd4b3"/>
    <path id="Trazado_1352" data-name="Trazado 1352" d="M2204.386,9674.841c2.366,2.328,6.392,3.233,8.28-.105,1.782-3.151.19-8.374-2.287-10.49-5.83-4.981-13.577-1.142-13.577-1.142C2199.717,9665.972,2202.021,9672.512,2204.386,9674.841Z" fill="#ffd4b3"/>
    <path id="Trazado_1353" data-name="Trazado 1353" d="M2212.666,9674.735c1.782-3.151.19-8.374-2.287-10.49-5.83-4.981-13.577-1.142-13.577-1.142C2208.705,9665.673,2212.666,9674.735,2212.666,9674.735Z" fill="#ffd4b3"/>
    <g id="Grupo_952" data-name="Grupo 952">
      <g id="Grupo_951" data-name="Grupo 951">
        <path id="Trazado_1354" data-name="Trazado 1354" d="M2211.874,9673.1l-.381-.571c-.121-.187-.271-.411-.461-.652s-.389-.535-.64-.817c-.122-.145-.25-.3-.384-.454s-.284-.3-.434-.465c-.295-.329-.635-.633-.984-.97a23.818,23.818,0,0,0-2.407-1.884,36.578,36.578,0,0,0-4.665-2.61c-1.223-.568-1.98-.922-1.98-.922s.773.276,2.01.793a27.5,27.5,0,0,1,4.72,2.5,20.392,20.392,0,0,1,2.413,1.938c.347.35.684.669.975,1.014.147.168.293.324.426.487l.375.477c.245.3.44.6.619.858s.326.487.44.684Z" fill="#ffd4b3"/>
      </g>
    </g>
    <path id="Trazado_1355" data-name="Trazado 1355" d="M2213.241,9678.5c-3.616-4.493-3.77-18.4-1.48-26.634,5.392-19.386,16.961-21.835,16.961-21.835C2214.513,9652.676,2213.241,9678.5,2213.241,9678.5Z" fill="#ffd4b3"/>
    <path id="Trazado_1356" data-name="Trazado 1356" d="M2213.241,9678.5c-3.616-4.493-3.77-18.4-1.48-26.634,5.392-19.386,16.961-21.835,16.961-21.835C2214.513,9652.676,2213.241,9678.5,2213.241,9678.5Z" fill="#ffd4b3"/>
    <g id="Grupo_954" data-name="Grupo 954">
      <g id="Grupo_953" data-name="Grupo 953">
        <path id="Trazado_1357" data-name="Trazado 1357" d="M2213.57,9673.739l.249-1.818c.076-.588.176-1.3.317-2.106s.275-1.747.478-2.731q.145-.747.3-1.561c.109-.539.238-1.081.362-1.651.241-1.153.55-2.314.856-3.561.649-2.439,1.421-5.028,2.3-7.619,1.769-5.163,3.576-9.408,4.893-12.446l2.156-4.869s-.877,1.713-2.248,4.623a120.666,120.666,0,0,0-5.012,12.27c-.886,2.611-1.652,5.253-2.285,7.747-.3,1.274-.6,2.465-.825,3.646-.118.585-.241,1.14-.343,1.69s-.191,1.09-.281,1.6c-.189,1.007-.311,1.967-.433,2.792s-.213,1.549-.277,2.147C2213.644,9673.08,2213.57,9673.739,2213.57,9673.739Z" fill="#ffd4b3"/>
      </g>
    </g>
    <path id="Trazado_1358" data-name="Trazado 1358" d="M2228.745,9684.105c-.1-3.657-.385-6.714-5.409-7.61a8.91,8.91,0,0,0-5.374.992c-4.536-3.952-7.387-6.809-12.173-6.809-5.552,0-7.682,4.84-7.682,10.393a10.038,10.038,0,0,0,.467,3.034Z" fill="#0086ff"/>
  </g>
</svg>
