<svg xmlns="http://www.w3.org/2000/svg" width="152.443" height="152.442" viewBox="0 0 152.443 152.442">
  <g id="Grupo_3875" data-name="Grupo 3875" transform="translate(-849.701 -10201.161)">
    <path id="Trazado_3029" data-name="Trazado 3029" d="M925.923,10201.161q3.744,0,7.471.367t7.4,1.1q3.672.731,7.255,1.817t7.043,2.52q3.461,1.434,6.762,3.2t6.416,3.846q3.114,2.08,6.008,4.456t5.542,5.023q2.649,2.647,5.024,5.542t4.455,6.008q2.081,3.114,3.846,6.416t3.2,6.762q1.433,3.458,2.52,7.043t1.817,7.256q.732,3.672,1.1,7.4t.367,7.471q0,3.744-.367,7.471t-1.1,7.4q-.729,3.672-1.817,7.256t-2.52,7.043q-1.432,3.46-3.2,6.763t-3.846,6.414q-2.079,3.114-4.455,6.009t-5.024,5.542q-2.647,2.648-5.542,5.023t-6.008,4.456q-3.114,2.082-6.416,3.845t-6.762,3.2q-3.459,1.434-7.043,2.521t-7.255,1.817q-3.674.731-7.4,1.1t-7.471.366q-3.745,0-7.471-.366t-7.4-1.1q-3.673-.729-7.256-1.817t-7.043-2.521q-3.461-1.433-6.762-3.2t-6.416-3.845q-3.113-2.08-6.008-4.456t-5.542-5.023q-2.648-2.647-5.024-5.542t-4.455-6.009q-2.081-3.111-3.846-6.414t-3.2-6.763q-1.433-3.46-2.52-7.043t-1.817-7.256q-.73-3.672-1.1-7.4t-.367-7.471q0-3.744.367-7.471t1.1-7.4q.73-3.672,1.817-7.256t2.52-7.043q1.433-3.458,3.2-6.762t3.846-6.416q2.081-3.113,4.455-6.008t5.024-5.542q2.648-2.648,5.542-5.023t6.008-4.456q3.114-2.08,6.416-3.846t6.762-3.2q3.459-1.433,7.043-2.52t7.256-1.817q3.672-.731,7.4-1.1T925.923,10201.161Z" fill="#db9600"/>
    <circle id="Elipse_64" data-name="Elipse 64" cx="71.597" cy="71.597" r="71.597" transform="translate(854.326 10205.786)" fill="#fff"/>
    <circle id="Elipse_65" data-name="Elipse 65" cx="65.13" cy="65.13" r="65.13" transform="translate(860.792 10212.253)" fill="#f2f2f2"/>
    <circle id="Elipse_67" data-name="Elipse 67" cx="65.478" cy="65.478" r="65.478" transform="translate(860.511 10212.977)" fill="#00c2db"/>
    <g id="Grupo_3864" data-name="Grupo 3864">
      <path id="Trazado_3040" data-name="Trazado 3040" d="M936.564,10285.8a51.921,51.921,0,0,1,.856,8.05,10.224,10.224,0,0,1-2.323,6.469,6.235,6.235,0,0,0-1.307,4.657l.09.771a2.039,2.039,0,0,0,.886,1.454,2.005,2.005,0,0,0,.572.268l9.363,2.719a8.831,8.831,0,0,1,3.629,1.905,10.807,10.807,0,0,1,3.7,6.193l2.19,16.608" fill="none" stroke="#023b5e" stroke-linecap="round" stroke-linejoin="round" stroke-width="3"/>
      <path id="Trazado_3041" data-name="Trazado 3041" d="M914.1,10301.547a11.044,11.044,0,0,1-11.364-4.8,7.461,7.461,0,0,0,5.987-4.225c1.655-3.117,1.833-6.4,2.234-9.859a24.314,24.314,0,0,1,1.7-7.173c2.289-5.116,8.018-8.157,13.485-8.157s11.2,3.041,13.486,8.157a24.341,24.341,0,0,1,1.7,7.173c.4,3.455.579,6.742,2.234,9.859a7.462,7.462,0,0,0,5.988,4.225,11.046,11.046,0,0,1-11.365,4.8" fill="none" stroke="#023b5e" stroke-linecap="round" stroke-linejoin="round" stroke-width="3"/>
      <path id="Trazado_3042" data-name="Trazado 3042" d="M917.522,10307.2l8.622,6.438,8.622-6.437" fill="none" stroke="#023b5e" stroke-linecap="round" stroke-linejoin="round" stroke-width="3"/>
      <line id="Línea_87" data-name="Línea 87" x2="7.996" transform="translate(935.548 10328.511)" fill="none" stroke="#023b5e" stroke-linecap="round" stroke-linejoin="round" stroke-width="3"/>
      <path id="Trazado_3043" data-name="Trazado 3043" d="M898.064,10334.894l2.19-16.608a10.81,10.81,0,0,1,3.7-6.193,8.84,8.84,0,0,1,3.63-1.905l9.363-2.719a2,2,0,0,0,.572-.268,2.039,2.039,0,0,0,.886-1.454l.09-.771a6.234,6.234,0,0,0-1.307-4.657,10.219,10.219,0,0,1-2.323-6.469,58.852,58.852,0,0,1,1.111-9.509,8.319,8.319,0,0,1,4.834-6.129h0a4.993,4.993,0,0,1,5.877,1.352l.03.036c.992,1.226,1.727,2.654,2.824,3.786a8.092,8.092,0,0,0,7.024,2.31" fill="none" stroke="#023b5e" stroke-linecap="round" stroke-linejoin="round" stroke-width="3"/>
      <g id="Grupo_3862" data-name="Grupo 3862">
        <path id="Trazado_3044" data-name="Trazado 3044" d="M953.249,10250.933l4.5,4.01,7.277-8.9" fill="none" stroke="#023b5e" stroke-linecap="round" stroke-linejoin="round" stroke-width="3"/>
      </g>
      <path id="Trazado_3045" data-name="Trazado 3045" d="M974.449,10240.537v20.494a1.426,1.426,0,0,1-1.427,1.426H949.28a1.428,1.428,0,0,0-1.01.419l-4.449,4.457v-26.8a1.427,1.427,0,0,1,1.427-1.426h27.774A1.427,1.427,0,0,1,974.449,10240.537Z" fill="none" stroke="#023b5e" stroke-linecap="round" stroke-linejoin="round" stroke-width="3"/>
      <g id="Grupo_3863" data-name="Grupo 3863">
        <line id="Línea_88" data-name="Línea 88" x2="9.865" y2="9.865" transform="translate(887.778 10245.56)" fill="none" stroke="#023b5e" stroke-linecap="round" stroke-linejoin="round" stroke-width="3"/>
        <line id="Línea_89" data-name="Línea 89" y1="9.865" x2="9.865" transform="translate(887.778 10245.56)" fill="none" stroke="#023b5e" stroke-linecap="round" stroke-linejoin="round" stroke-width="3"/>
      </g>
      <path id="Trazado_3046" data-name="Trazado 3046" d="M877.4,10240.537v20.494a1.425,1.425,0,0,0,1.426,1.426h23.743a1.428,1.428,0,0,1,1.009.419l4.449,4.457v-26.8a1.427,1.427,0,0,0-1.427-1.426H878.823A1.426,1.426,0,0,0,877.4,10240.537Z" fill="none" stroke="#023b5e" stroke-linecap="round" stroke-linejoin="round" stroke-width="3"/>
      <line id="Línea_90" data-name="Línea 90" y2="21.256" transform="translate(926.144 10313.638)" fill="none" stroke="#023b5e" stroke-linecap="round" stroke-linejoin="round" stroke-width="3"/>
      <path id="Trazado_3047" data-name="Trazado 3047" d="M926.144,10271.6a10.9,10.9,0,0,0-9.307,5.066,15.853,15.853,0,0,1,1.8-1.022,11.188,11.188,0,0,1,4.667-1.148,7.713,7.713,0,0,1,4.562,1.374c1.4,1.015,2.348,2.531,3.579,3.747a10.918,10.918,0,0,0,5.569,2.893,18.872,18.872,0,0,0-1.279-5.272C934.276,10273.967,930.242,10271.6,926.144,10271.6Z" fill="#ffc524"/>
    </g>
  </g>
</svg>
