<svg xmlns="http://www.w3.org/2000/svg" width="386.099" height="200.82" viewBox="0 0 386.099 200.82">
  <g id="Grupo_1041" data-name="Grupo 1041" transform="translate(-2180.481 -12497.542)">
    <rect id="Rectángulo_96" data-name="Rectángulo 96" width="184.625" height="91.846" rx="8.06" transform="translate(2180.481 12497.543)" fill="#c30726"/>
    <g id="Grupo_1032" data-name="Grupo 1032">
      <g id="Grupo_1031" data-name="Grupo 1031">
        <path id="Trazado_1736" data-name="Trazado 1736" d="M2225.09,12539.632v3.33h5.563v2.34h-5.563v4.59h-2.781v-12.6h9.083v2.34Z" fill="#fff"/>
        <path id="Trazado_1737" data-name="Trazado 1737" d="M2234.628,12549.4a4.624,4.624,0,0,1-1.811-1.773,5.4,5.4,0,0,1,0-5.148,4.606,4.606,0,0,1,1.811-1.771,5.669,5.669,0,0,1,5.228,0,4.629,4.629,0,0,1,1.8,1.771,5.4,5.4,0,0,1,0,5.148,4.647,4.647,0,0,1-1.8,1.773,5.661,5.661,0,0,1-5.228,0Zm4.31-2.395a3.216,3.216,0,0,0,0-3.906,2.186,2.186,0,0,0-1.691-.728,2.211,2.211,0,0,0-1.7.728,3.181,3.181,0,0,0,0,3.906,2.2,2.2,0,0,0,1.7.73A2.179,2.179,0,0,0,2238.938,12547Z" fill="#fff"/>
        <path id="Trazado_1738" data-name="Trazado 1738" d="M2247.952,12540.424a4.614,4.614,0,0,1,1.88-.358v2.592c-.3-.025-.5-.036-.6-.036a2.389,2.389,0,0,0-1.8.674,2.812,2.812,0,0,0-.652,2.026v4.57H2244.1v-9.684h2.558v1.279A2.992,2.992,0,0,1,2247.952,12540.424Z" fill="#fff"/>
        <path id="Trazado_1739" data-name="Trazado 1739" d="M2257.713,12549.424a2.662,2.662,0,0,1-.97.459,4.662,4.662,0,0,1-1.21.154,3.119,3.119,0,0,1-3.452-3.476v-3.978h-1.425v-2.16h1.425v-2.356h2.679v2.356h2.3v2.16h-2.3v3.943a1.362,1.362,0,0,0,.3.943,1.082,1.082,0,0,0,.851.333,1.671,1.671,0,0,0,1.081-.358Z" fill="#fff"/>
        <path id="Trazado_1740" data-name="Trazado 1740" d="M2266.247,12541.135a4.209,4.209,0,0,1,1.15,3.232v5.524h-2.506v-1.206a2.94,2.94,0,0,1-2.816,1.352,4.2,4.2,0,0,1-1.846-.378,2.727,2.727,0,0,1-1.606-2.558,2.575,2.575,0,0,1,.97-2.124,4.776,4.776,0,0,1,3-.772h2.129a1.837,1.837,0,0,0-.533-1.414,2.27,2.27,0,0,0-1.6-.5,4.462,4.462,0,0,0-1.451.243,3.782,3.782,0,0,0-1.211.658l-.961-1.962a5.67,5.67,0,0,1,1.811-.864,7.724,7.724,0,0,1,2.172-.306A4.663,4.663,0,0,1,2266.247,12541.135Zm-2.284,6.679a1.812,1.812,0,0,0,.756-.981v-.99h-1.837q-1.649,0-1.649,1.134a1.026,1.026,0,0,0,.4.855,1.754,1.754,0,0,0,1.107.316A2.245,2.245,0,0,0,2263.963,12547.813Z" fill="#fff"/>
        <path id="Trazado_1741" data-name="Trazado 1741" d="M2269.818,12536.537h2.679v13.354h-2.679Z" fill="#fff"/>
        <path id="Trazado_1742" data-name="Trazado 1742" d="M2283.983,12545.842H2277a2.283,2.283,0,0,0,.893,1.422,2.848,2.848,0,0,0,1.751.523,3.4,3.4,0,0,0,1.28-.227,3.064,3.064,0,0,0,1.038-.711l1.426,1.62a4.682,4.682,0,0,1-3.812,1.567,5.793,5.793,0,0,1-2.765-.64,4.562,4.562,0,0,1-1.854-1.773,5.067,5.067,0,0,1-.653-2.574,5.128,5.128,0,0,1,.644-2.563,4.592,4.592,0,0,1,1.769-1.782,5.259,5.259,0,0,1,4.971-.028,4.367,4.367,0,0,1,1.725,1.755,5.442,5.442,0,0,1,.627,2.655C2284.035,12545.122,2284.018,12545.374,2283.983,12545.842Zm-6.267-3.114a2.332,2.332,0,0,0-.755,1.478h4.55a2.352,2.352,0,0,0-.756-1.467,2.191,2.191,0,0,0-1.51-.55A2.248,2.248,0,0,0,2277.716,12542.728Z" fill="#fff"/>
        <path id="Trazado_1743" data-name="Trazado 1743" d="M2293.341,12547.733v2.158H2285.1v-1.69l4.7-5.832h-4.584v-2.161h7.967v1.693l-4.705,5.832Z" fill="#fff"/>
        <path id="Trazado_1744" data-name="Trazado 1744" d="M2302.081,12541.135a4.209,4.209,0,0,1,1.15,3.232v5.524h-2.506v-1.206a2.94,2.94,0,0,1-2.816,1.352,4.2,4.2,0,0,1-1.846-.378,2.733,2.733,0,0,1-1.606-2.558,2.575,2.575,0,0,1,.97-2.124,4.776,4.776,0,0,1,3-.772h2.129a1.837,1.837,0,0,0-.533-1.414,2.27,2.27,0,0,0-1.6-.5,4.462,4.462,0,0,0-1.451.243,3.782,3.782,0,0,0-1.211.658l-.961-1.962a5.67,5.67,0,0,1,1.811-.864,7.724,7.724,0,0,1,2.172-.306A4.663,4.663,0,0,1,2302.081,12541.135Zm-2.284,6.679a1.813,1.813,0,0,0,.756-.981v-.99h-1.837q-1.649,0-1.649,1.134a1.026,1.026,0,0,0,.4.855,1.756,1.756,0,0,0,1.107.316A2.246,2.246,0,0,0,2299.8,12547.813Z" fill="#fff"/>
        <path id="Trazado_1745" data-name="Trazado 1745" d="M2306.511,12549.74a5.791,5.791,0,0,1-1.752-.747l.893-2.018a5.5,5.5,0,0,0,1.494.677,6,6,0,0,0,1.717.261q1.7,0,1.7-.882a.62.62,0,0,0-.464-.6,6.711,6.711,0,0,0-1.425-.306,13.176,13.176,0,0,1-1.871-.414,2.869,2.869,0,0,1-1.28-.828,2.425,2.425,0,0,1-.541-1.69,2.728,2.728,0,0,1,.507-1.629,3.261,3.261,0,0,1,1.477-1.108,6.066,6.066,0,0,1,2.292-.395,8.582,8.582,0,0,1,1.949.224,5.338,5.338,0,0,1,1.6.622l-.893,2a5.127,5.127,0,0,0-2.661-.721,2.612,2.612,0,0,0-1.288.252.744.744,0,0,0-.429.647.639.639,0,0,0,.463.63,7.77,7.77,0,0,0,1.477.342,15.151,15.151,0,0,1,1.854.425,2.769,2.769,0,0,1,1.254.817,2.4,2.4,0,0,1,.532,1.656,2.638,2.638,0,0,1-.515,1.6,3.294,3.294,0,0,1-1.5,1.091,6.423,6.423,0,0,1-2.344.387A8.649,8.649,0,0,1,2306.511,12549.74Z" fill="#fff"/>
      </g>
    </g>
    <rect id="Rectángulo_97" data-name="Rectángulo 97" width="184.625" height="91.846" rx="8.06" transform="translate(2381.956 12497.543)" fill="#e46c0a"/>
    <g id="Grupo_1034" data-name="Grupo 1034">
      <g id="Grupo_1033" data-name="Grupo 1033">
        <path id="Trazado_1746" data-name="Trazado 1746" d="M2416.718,12537.292h5.46a7.363,7.363,0,0,1,3.46.784,5.679,5.679,0,0,1,2.335,2.205,7,7,0,0,1,0,6.624,5.717,5.717,0,0,1-2.335,2.205,7.4,7.4,0,0,1-3.46.781h-5.46Zm5.323,10.206a3.932,3.932,0,0,0,2.876-1.052,4.329,4.329,0,0,0,0-5.706,3.93,3.93,0,0,0-2.876-1.055H2419.5v7.813Z" fill="#fff"/>
        <path id="Trazado_1747" data-name="Trazado 1747" d="M2439.709,12545.842h-6.989a2.288,2.288,0,0,0,.893,1.422,2.849,2.849,0,0,0,1.752.523,3.394,3.394,0,0,0,1.279-.227,3.068,3.068,0,0,0,1.039-.711l1.425,1.62a4.681,4.681,0,0,1-3.812,1.567,5.794,5.794,0,0,1-2.765-.64,4.562,4.562,0,0,1-1.854-1.773,5.064,5.064,0,0,1-.652-2.574,5.12,5.12,0,0,1,.644-2.563,4.59,4.59,0,0,1,1.768-1.782,5.259,5.259,0,0,1,4.971-.028,4.361,4.361,0,0,1,1.725,1.755,5.442,5.442,0,0,1,.627,2.655Q2439.76,12545.14,2439.709,12545.842Zm-6.267-3.114a2.333,2.333,0,0,0-.756,1.478h4.55a2.351,2.351,0,0,0-.755-1.467,2.194,2.194,0,0,0-1.511-.55A2.247,2.247,0,0,0,2433.442,12542.728Z" fill="#fff"/>
        <path id="Trazado_1748" data-name="Trazado 1748" d="M2449.35,12540.685a4.375,4.375,0,0,1,1.657,1.746,6.009,6.009,0,0,1,0,5.238,4.368,4.368,0,0,1-1.657,1.746,4.531,4.531,0,0,1-2.344.622,3.478,3.478,0,0,1-2.9-1.26v1.114h-2.558v-13.354h2.678v4.7a3.487,3.487,0,0,1,2.782-1.17A4.557,4.557,0,0,1,2449.35,12540.685Zm-1.116,6.318a3.216,3.216,0,0,0,0-3.906,2.33,2.33,0,0,0-3.383,0,3.216,3.216,0,0,0,0,3.906,2.323,2.323,0,0,0,3.383,0Z" fill="#fff"/>
        <path id="Trazado_1749" data-name="Trazado 1749" d="M2453.53,12538.409a1.578,1.578,0,0,1,0-2.233,1.656,1.656,0,0,1,1.2-.45,1.694,1.694,0,0,1,1.2.434,1.414,1.414,0,0,1,.464,1.08,1.571,1.571,0,0,1-.464,1.161,1.641,1.641,0,0,1-1.2.459A1.66,1.66,0,0,1,2453.53,12538.409Zm-.137,1.8h2.679v9.684h-2.679Z" fill="#fff"/>
        <path id="Trazado_1750" data-name="Trazado 1750" d="M2458.561,12536.537h2.679v13.354h-2.679Z" fill="#fff"/>
        <path id="Trazado_1751" data-name="Trazado 1751" d="M2463.867,12538.409a1.576,1.576,0,0,1,0-2.233,1.653,1.653,0,0,1,1.2-.45,1.691,1.691,0,0,1,1.2.434,1.41,1.41,0,0,1,.464,1.08,1.566,1.566,0,0,1-.464,1.161,1.638,1.638,0,0,1-1.2.459A1.657,1.657,0,0,1,2463.867,12538.409Zm-.138,1.8h2.679v9.684h-2.679Z" fill="#fff"/>
        <path id="Trazado_1752" data-name="Trazado 1752" d="M2478.307,12536.537v13.354h-2.559v-1.114a3.458,3.458,0,0,1-2.884,1.26,4.621,4.621,0,0,1-2.361-.613,4.288,4.288,0,0,1-1.657-1.746,6.047,6.047,0,0,1,0-5.256,4.294,4.294,0,0,1,1.657-1.746,4.629,4.629,0,0,1,2.361-.61,3.433,3.433,0,0,1,2.764,1.17v-4.7Zm-3.3,10.466a3.182,3.182,0,0,0,0-3.906,2.329,2.329,0,0,0-3.382,0,3.182,3.182,0,0,0,0,3.906,2.323,2.323,0,0,0,3.382,0Z" fill="#fff"/>
        <path id="Trazado_1753" data-name="Trazado 1753" d="M2487.8,12541.135a4.212,4.212,0,0,1,1.15,3.232v5.524h-2.507v-1.206a2.939,2.939,0,0,1-2.816,1.352,4.191,4.191,0,0,1-1.845-.378,2.728,2.728,0,0,1-1.606-2.558,2.573,2.573,0,0,1,.97-2.124,4.775,4.775,0,0,1,3-.772h2.129a1.836,1.836,0,0,0-.532-1.414,2.271,2.271,0,0,0-1.6-.5,4.454,4.454,0,0,0-1.45.243,3.77,3.77,0,0,0-1.211.658l-.962-1.962a5.685,5.685,0,0,1,1.812-.864,7.725,7.725,0,0,1,2.172-.306A4.663,4.663,0,0,1,2487.8,12541.135Zm-2.284,6.679a1.807,1.807,0,0,0,.755-.981v-.99h-1.837q-1.649,0-1.648,1.134a1.026,1.026,0,0,0,.4.855,1.76,1.76,0,0,0,1.108.316A2.245,2.245,0,0,0,2485.518,12547.813Z" fill="#fff"/>
        <path id="Trazado_1754" data-name="Trazado 1754" d="M2500.885,12536.537v13.354h-2.558v-1.114a3.459,3.459,0,0,1-2.885,1.26,4.621,4.621,0,0,1-2.361-.613,4.285,4.285,0,0,1-1.657-1.746,6.045,6.045,0,0,1,0-5.256,4.291,4.291,0,0,1,1.657-1.746,4.628,4.628,0,0,1,2.361-.61,3.434,3.434,0,0,1,2.764,1.17v-4.7Zm-3.3,10.466a3.181,3.181,0,0,0,0-3.906,2.329,2.329,0,0,0-3.382,0,3.181,3.181,0,0,0,0,3.906,2.322,2.322,0,0,0,3.382,0Z" fill="#fff"/>
        <path id="Trazado_1755" data-name="Trazado 1755" d="M2512.354,12545.842h-6.988a2.284,2.284,0,0,0,.893,1.422,2.848,2.848,0,0,0,1.751.523,3.4,3.4,0,0,0,1.28-.227,3.068,3.068,0,0,0,1.039-.711l1.425,1.62a4.682,4.682,0,0,1-3.812,1.567,5.792,5.792,0,0,1-2.765-.64,4.562,4.562,0,0,1-1.854-1.773,5.064,5.064,0,0,1-.652-2.574,5.13,5.13,0,0,1,.643-2.563,4.6,4.6,0,0,1,1.769-1.782,5.259,5.259,0,0,1,4.971-.028,4.367,4.367,0,0,1,1.725,1.755,5.442,5.442,0,0,1,.627,2.655Q2512.406,12545.14,2512.354,12545.842Zm-6.267-3.114a2.332,2.332,0,0,0-.755,1.478h4.55a2.347,2.347,0,0,0-.756-1.467,2.19,2.19,0,0,0-1.51-.55A2.249,2.249,0,0,0,2506.087,12542.728Z" fill="#fff"/>
        <path id="Trazado_1756" data-name="Trazado 1756" d="M2515.05,12549.74a5.792,5.792,0,0,1-1.751-.747l.893-2.018a5.51,5.51,0,0,0,1.493.677,6,6,0,0,0,1.718.261q1.7,0,1.7-.882a.619.619,0,0,0-.463-.6,6.7,6.7,0,0,0-1.425-.306,13.162,13.162,0,0,1-1.872-.414,2.871,2.871,0,0,1-1.279-.828,2.419,2.419,0,0,1-.541-1.69,2.734,2.734,0,0,1,.506-1.629,3.26,3.26,0,0,1,1.477-1.108,6.075,6.075,0,0,1,2.292-.395,8.569,8.569,0,0,1,1.949.224,5.344,5.344,0,0,1,1.606.622l-.893,2a5.128,5.128,0,0,0-2.662-.721,2.61,2.61,0,0,0-1.287.252.743.743,0,0,0-.43.647.64.64,0,0,0,.464.63,7.751,7.751,0,0,0,1.477.342,15.248,15.248,0,0,1,1.854.425,2.764,2.764,0,0,1,1.253.817,2.4,2.4,0,0,1,.533,1.656,2.638,2.638,0,0,1-.515,1.6,3.3,3.3,0,0,1-1.5,1.091,6.416,6.416,0,0,1-2.344.387A8.654,8.654,0,0,1,2515.05,12549.74Z" fill="#fff"/>
      </g>
    </g>
    <rect id="Rectángulo_98" data-name="Rectángulo 98" width="184.625" height="91.846" rx="8.06" transform="translate(2180.481 12606.517)" fill="#77933c"/>
    <g id="Grupo_1036" data-name="Grupo 1036">
      <g id="Grupo_1035" data-name="Grupo 1035">
        <path id="Trazado_1757" data-name="Trazado 1757" d="M2203.1,12658.236a6.121,6.121,0,0,1-2.352-2.331,6.986,6.986,0,0,1,0-6.679,6.112,6.112,0,0,1,2.352-2.33,7.128,7.128,0,0,1,6.739,0,6.2,6.2,0,0,1,2.353,2.33,6.928,6.928,0,0,1,0,6.679,6.212,6.212,0,0,1-2.353,2.331,7.135,7.135,0,0,1-6.739,0Zm5.3-2.151a3.607,3.607,0,0,0,1.348-1.431,4.7,4.7,0,0,0,0-4.177,3.607,3.607,0,0,0-1.348-1.431,3.863,3.863,0,0,0-3.846,0,3.6,3.6,0,0,0-1.348,1.431,4.7,4.7,0,0,0,0,4.177,3.6,3.6,0,0,0,1.348,1.431,3.863,3.863,0,0,0,3.846,0Z" fill="#fff"/>
        <path id="Trazado_1758" data-name="Trazado 1758" d="M2222.764,12649.659a4.365,4.365,0,0,1,1.657,1.746,6,6,0,0,1,0,5.237,4.365,4.365,0,0,1-1.657,1.746,4.536,4.536,0,0,1-2.344.621,3.481,3.481,0,0,1-2.781-1.17v4.519h-2.679v-13.177h2.558v1.116a3.479,3.479,0,0,1,2.9-1.26A4.536,4.536,0,0,1,2222.764,12649.659Zm-1.116,6.317a3.214,3.214,0,0,0,0-3.905,2.326,2.326,0,0,0-3.383,0,3.215,3.215,0,0,0,0,3.905,2.326,2.326,0,0,0,3.383,0Z" fill="#fff"/>
        <path id="Trazado_1759" data-name="Trazado 1759" d="M2228.584,12658.372a4.639,4.639,0,0,1-1.811-1.774,5.407,5.407,0,0,1,0-5.147,4.63,4.63,0,0,1,1.811-1.773,5.671,5.671,0,0,1,5.229,0,4.648,4.648,0,0,1,1.8,1.773,5.405,5.405,0,0,1,0,5.147,4.657,4.657,0,0,1-1.8,1.774,5.678,5.678,0,0,1-5.229,0Zm4.31-2.4a3.215,3.215,0,0,0,0-3.905,2.18,2.18,0,0,0-1.691-.729,2.206,2.206,0,0,0-1.7.729,3.181,3.181,0,0,0,0,3.905,2.206,2.206,0,0,0,1.7.729A2.18,2.18,0,0,0,2232.894,12655.977Z" fill="#fff"/>
        <path id="Trazado_1760" data-name="Trazado 1760" d="M2241.908,12649.4a4.634,4.634,0,0,1,1.881-.36v2.592c-.3-.023-.5-.036-.6-.036a2.392,2.392,0,0,0-1.8.675,2.81,2.81,0,0,0-.653,2.025v4.572h-2.678v-9.685h2.558v1.278A3,3,0,0,1,2241.908,12649.4Z" fill="#fff"/>
        <path id="Trazado_1761" data-name="Trazado 1761" d="M2251.67,12658.4a2.723,2.723,0,0,1-.971.459,4.749,4.749,0,0,1-1.21.152,3.117,3.117,0,0,1-3.451-3.474v-3.979h-1.425v-2.159h1.425v-2.358h2.678v2.358h2.3v2.159h-2.3v3.942a1.358,1.358,0,0,0,.3.945,1.085,1.085,0,0,0,.85.333,1.66,1.66,0,0,0,1.081-.36Z" fill="#fff"/>
        <path id="Trazado_1762" data-name="Trazado 1762" d="M2262.487,12649.182v9.685h-2.541v-1.152a3.566,3.566,0,0,1-1.271.963,4.219,4.219,0,0,1-4.481-.764,4.509,4.509,0,0,1-1.065-3.259v-5.473h2.679v5.059q0,2.339,1.871,2.34a1.968,1.968,0,0,0,1.546-.657,2.866,2.866,0,0,0,.583-1.953v-4.788Z" fill="#fff"/>
        <path id="Trazado_1763" data-name="Trazado 1763" d="M2273.364,12650.118a4.408,4.408,0,0,1,1.056,3.2v5.544h-2.678v-5.112a2.611,2.611,0,0,0-.481-1.719,1.724,1.724,0,0,0-1.391-.567,2.077,2.077,0,0,0-1.614.657,2.8,2.8,0,0,0-.6,1.953v4.788h-2.679v-9.685h2.559v1.135a3.542,3.542,0,0,1,1.322-.944,4.4,4.4,0,0,1,1.734-.334A3.7,3.7,0,0,1,2273.364,12650.118Z" fill="#fff"/>
        <path id="Trazado_1764" data-name="Trazado 1764" d="M2276.978,12647.382a1.575,1.575,0,0,1,0-2.231,1.65,1.65,0,0,1,1.2-.45,1.693,1.693,0,0,1,1.2.432,1.417,1.417,0,0,1,.464,1.08,1.567,1.567,0,0,1-.464,1.161,1.637,1.637,0,0,1-1.2.459A1.654,1.654,0,0,1,2276.978,12647.382Zm-.137,1.8h2.678v9.685h-2.678Z" fill="#fff"/>
        <path id="Trazado_1765" data-name="Trazado 1765" d="M2291.418,12645.51v13.356h-2.558v-1.116a3.46,3.46,0,0,1-2.885,1.26,4.63,4.63,0,0,1-2.361-.611,4.291,4.291,0,0,1-1.657-1.746,6.054,6.054,0,0,1,0-5.256,4.285,4.285,0,0,1,1.657-1.746,4.63,4.63,0,0,1,2.361-.612,3.435,3.435,0,0,1,2.765,1.17v-4.7Zm-3.3,10.467a3.184,3.184,0,0,0,0-3.905,2.326,2.326,0,0,0-3.383,0,3.184,3.184,0,0,0,0,3.905,2.326,2.326,0,0,0,3.383,0Z" fill="#fff"/>
        <path id="Trazado_1766" data-name="Trazado 1766" d="M2300.913,12650.109a4.208,4.208,0,0,1,1.151,3.23v5.526h-2.507v-1.206a2.94,2.94,0,0,1-2.816,1.35,4.2,4.2,0,0,1-1.846-.378,2.782,2.782,0,0,1-1.193-1.044,2.814,2.814,0,0,1-.412-1.512,2.567,2.567,0,0,1,.97-2.124,4.764,4.764,0,0,1,3-.774h2.129a1.839,1.839,0,0,0-.532-1.413,2.271,2.271,0,0,0-1.6-.5,4.466,4.466,0,0,0-1.451.243,3.765,3.765,0,0,0-1.21.657l-.962-1.962a5.685,5.685,0,0,1,1.812-.864,7.749,7.749,0,0,1,2.172-.306A4.658,4.658,0,0,1,2300.913,12650.109Zm-2.283,6.679a1.815,1.815,0,0,0,.755-.982v-.989h-1.837q-1.649,0-1.648,1.134a1.026,1.026,0,0,0,.4.854,1.757,1.757,0,0,0,1.108.315A2.263,2.263,0,0,0,2298.63,12656.788Z" fill="#fff"/>
        <path id="Trazado_1767" data-name="Trazado 1767" d="M2314,12645.51v13.356h-2.559v-1.116a3.458,3.458,0,0,1-2.884,1.26,4.629,4.629,0,0,1-2.361-.611,4.281,4.281,0,0,1-1.657-1.746,6.047,6.047,0,0,1,0-5.256,4.275,4.275,0,0,1,1.657-1.746,4.63,4.63,0,0,1,2.361-.612,3.435,3.435,0,0,1,2.764,1.17v-4.7Zm-3.3,10.467a3.18,3.18,0,0,0,0-3.905,2.326,2.326,0,0,0-3.383,0,3.184,3.184,0,0,0,0,3.905,2.326,2.326,0,0,0,3.383,0Z" fill="#fff"/>
        <path id="Trazado_1768" data-name="Trazado 1768" d="M2325.466,12654.816h-6.988a2.286,2.286,0,0,0,.893,1.422,2.86,2.86,0,0,0,1.751.521,3.408,3.408,0,0,0,1.279-.225,3.1,3.1,0,0,0,1.039-.711l1.425,1.62a4.678,4.678,0,0,1-3.812,1.565,5.812,5.812,0,0,1-2.764-.638,4.551,4.551,0,0,1-1.854-1.774,5.054,5.054,0,0,1-.653-2.573,5.141,5.141,0,0,1,.644-2.565,4.612,4.612,0,0,1,1.769-1.782,5.25,5.25,0,0,1,4.97-.026,4.353,4.353,0,0,1,1.726,1.755,5.43,5.43,0,0,1,.627,2.654C2325.518,12654.1,2325.5,12654.348,2325.466,12654.816Zm-6.267-3.114a2.332,2.332,0,0,0-.756,1.476h4.551a2.362,2.362,0,0,0-.756-1.467,2.193,2.193,0,0,0-1.511-.548A2.237,2.237,0,0,0,2319.2,12651.7Z" fill="#fff"/>
        <path id="Trazado_1769" data-name="Trazado 1769" d="M2328.162,12658.713a5.741,5.741,0,0,1-1.752-.747l.893-2.016a5.469,5.469,0,0,0,1.494.675,6,6,0,0,0,1.717.261q1.7,0,1.7-.882a.619.619,0,0,0-.464-.594,6.636,6.636,0,0,0-1.425-.307,13.2,13.2,0,0,1-1.871-.413,2.883,2.883,0,0,1-1.28-.828,2.429,2.429,0,0,1-.541-1.692,2.734,2.734,0,0,1,.507-1.629,3.276,3.276,0,0,1,1.477-1.107,6.047,6.047,0,0,1,2.292-.4,8.637,8.637,0,0,1,1.949.225,5.372,5.372,0,0,1,1.6.621l-.893,2a5.139,5.139,0,0,0-2.661-.719,2.612,2.612,0,0,0-1.288.251.742.742,0,0,0-.429.647.639.639,0,0,0,.463.631,8.006,8.006,0,0,0,1.477.342,15.087,15.087,0,0,1,1.855.423,2.774,2.774,0,0,1,1.253.819,2.391,2.391,0,0,1,.532,1.655,2.632,2.632,0,0,1-.515,1.6,3.29,3.29,0,0,1-1.5,1.089,6.423,6.423,0,0,1-2.344.387A8.566,8.566,0,0,1,2328.162,12658.713Z" fill="#fff"/>
      </g>
    </g>
    <rect id="Rectángulo_99" data-name="Rectángulo 99" width="184.625" height="91.846" rx="8.06" transform="translate(2381.956 12606.517)" fill="#31859c"/>
    <g id="Grupo_1038" data-name="Grupo 1038">
      <g id="Grupo_1037" data-name="Grupo 1037">
        <path id="Trazado_1770" data-name="Trazado 1770" d="M2426.668,12656.166h-5.581l-1.064,2.7h-2.85l5.357-12.6h2.747l5.374,12.6h-2.919Zm-.876-2.214-1.906-4.824-1.906,4.824Z" fill="#fff"/>
        <path id="Trazado_1771" data-name="Trazado 1771" d="M2446.3,12650.109a4.494,4.494,0,0,1,1.021,3.213v5.544h-2.678v-5.112a2.717,2.717,0,0,0-.455-1.719,1.568,1.568,0,0,0-1.3-.567,1.865,1.865,0,0,0-1.493.64,2.841,2.841,0,0,0-.55,1.9v4.86h-2.678v-5.112q0-2.285-1.752-2.286a1.845,1.845,0,0,0-1.476.64,2.84,2.84,0,0,0-.55,1.9v4.86h-2.678v-9.685h2.558v1.116a3.38,3.38,0,0,1,1.262-.936,4.079,4.079,0,0,1,1.64-.324,3.811,3.811,0,0,1,1.768.405,3.186,3.186,0,0,1,1.271,1.179,3.811,3.811,0,0,1,1.434-1.17,4.336,4.336,0,0,1,1.9-.414A3.627,3.627,0,0,1,2446.3,12650.109Z" fill="#fff"/>
        <path id="Trazado_1772" data-name="Trazado 1772" d="M2458.827,12654.816h-6.988a2.291,2.291,0,0,0,.893,1.422,2.86,2.86,0,0,0,1.751.521,3.409,3.409,0,0,0,1.279-.225,3.086,3.086,0,0,0,1.039-.711l1.425,1.62a4.679,4.679,0,0,1-3.812,1.565,5.813,5.813,0,0,1-2.764-.638,4.566,4.566,0,0,1-1.854-1.774,5.066,5.066,0,0,1-.653-2.573,5.138,5.138,0,0,1,.644-2.565,4.611,4.611,0,0,1,1.769-1.782,5.252,5.252,0,0,1,4.971-.026,4.354,4.354,0,0,1,1.725,1.755,5.43,5.43,0,0,1,.627,2.654C2458.879,12654.1,2458.862,12654.348,2458.827,12654.816Zm-6.267-3.114a2.327,2.327,0,0,0-.755,1.476h4.55a2.363,2.363,0,0,0-.756-1.467,2.191,2.191,0,0,0-1.511-.548A2.236,2.236,0,0,0,2452.56,12651.7Z" fill="#fff"/>
        <path id="Trazado_1773" data-name="Trazado 1773" d="M2469.052,12650.118a4.408,4.408,0,0,1,1.056,3.2v5.544h-2.678v-5.112a2.611,2.611,0,0,0-.481-1.719,1.724,1.724,0,0,0-1.391-.567,2.08,2.08,0,0,0-1.614.657,2.8,2.8,0,0,0-.6,1.953v4.788h-2.679v-9.685h2.559v1.135a3.542,3.542,0,0,1,1.322-.944,4.4,4.4,0,0,1,1.734-.334A3.7,3.7,0,0,1,2469.052,12650.118Z" fill="#fff"/>
        <path id="Trazado_1774" data-name="Trazado 1774" d="M2480.135,12656.706v2.16h-8.241v-1.692l4.7-5.832h-4.584v-2.16h7.967v1.692l-4.705,5.832Z" fill="#fff"/>
        <path id="Trazado_1775" data-name="Trazado 1775" d="M2488.875,12650.109a4.206,4.206,0,0,1,1.15,3.23v5.526h-2.507v-1.206a2.939,2.939,0,0,1-2.815,1.35,4.2,4.2,0,0,1-1.846-.378,2.78,2.78,0,0,1-1.193-1.044,2.813,2.813,0,0,1-.413-1.512,2.568,2.568,0,0,1,.971-2.124,4.764,4.764,0,0,1,3-.774h2.129a1.836,1.836,0,0,0-.533-1.413,2.268,2.268,0,0,0-1.6-.5,4.464,4.464,0,0,0-1.451.243,3.779,3.779,0,0,0-1.211.657l-.961-1.962a5.67,5.67,0,0,1,1.811-.864,7.761,7.761,0,0,1,2.172-.306A4.659,4.659,0,0,1,2488.875,12650.109Zm-2.284,6.679a1.812,1.812,0,0,0,.756-.982v-.989h-1.837q-1.649,0-1.649,1.134a1.028,1.028,0,0,0,.4.854,1.757,1.757,0,0,0,1.107.315A2.26,2.26,0,0,0,2486.591,12656.788Z" fill="#fff"/>
        <path id="Trazado_1776" data-name="Trazado 1776" d="M2493.3,12658.713a5.742,5.742,0,0,1-1.752-.747l.893-2.016a5.467,5.467,0,0,0,1.494.675,6,6,0,0,0,1.717.261q1.7,0,1.7-.882a.619.619,0,0,0-.464-.594,6.639,6.639,0,0,0-1.425-.307,13.2,13.2,0,0,1-1.871-.413,2.886,2.886,0,0,1-1.28-.828,2.43,2.43,0,0,1-.54-1.692,2.733,2.733,0,0,1,.506-1.629,3.282,3.282,0,0,1,1.477-1.107,6.046,6.046,0,0,1,2.292-.4,8.637,8.637,0,0,1,1.949.225,5.361,5.361,0,0,1,1.6.621l-.893,2a5.144,5.144,0,0,0-2.661-.719,2.613,2.613,0,0,0-1.288.251.742.742,0,0,0-.429.647.639.639,0,0,0,.464.631,7.988,7.988,0,0,0,1.476.342,15.077,15.077,0,0,1,1.855.423,2.773,2.773,0,0,1,1.253.819,2.391,2.391,0,0,1,.532,1.655,2.632,2.632,0,0,1-.515,1.6,3.291,3.291,0,0,1-1.5,1.089,6.423,6.423,0,0,1-2.344.387A8.569,8.569,0,0,1,2493.3,12658.713Z" fill="#fff"/>
        <path id="Trazado_1777" data-name="Trazado 1777" d="M2508.586,12650.109a4.206,4.206,0,0,1,1.15,3.23v5.526h-2.507v-1.206a2.938,2.938,0,0,1-2.815,1.35,4.2,4.2,0,0,1-1.846-.378,2.789,2.789,0,0,1-1.194-1.044,2.823,2.823,0,0,1-.412-1.512,2.568,2.568,0,0,1,.971-2.124,4.764,4.764,0,0,1,3-.774h2.129a1.839,1.839,0,0,0-.532-1.413,2.273,2.273,0,0,0-1.6-.5,4.46,4.46,0,0,0-1.451.243,3.778,3.778,0,0,0-1.211.657l-.961-1.962a5.685,5.685,0,0,1,1.811-.864,7.761,7.761,0,0,1,2.172-.306A4.659,4.659,0,0,1,2508.586,12650.109Zm-2.284,6.679a1.813,1.813,0,0,0,.756-.982v-.989h-1.837q-1.648,0-1.649,1.134a1.027,1.027,0,0,0,.4.854,1.756,1.756,0,0,0,1.107.315A2.26,2.26,0,0,0,2506.3,12656.788Z" fill="#fff"/>
        <path id="Trazado_1778" data-name="Trazado 1778" d="M2513.016,12658.713a5.741,5.741,0,0,1-1.752-.747l.893-2.016a5.471,5.471,0,0,0,1.494.675,6,6,0,0,0,1.717.261q1.7,0,1.7-.882a.619.619,0,0,0-.464-.594,6.636,6.636,0,0,0-1.425-.307,13.164,13.164,0,0,1-1.871-.413,2.883,2.883,0,0,1-1.28-.828,2.429,2.429,0,0,1-.541-1.692,2.734,2.734,0,0,1,.507-1.629,3.276,3.276,0,0,1,1.477-1.107,6.047,6.047,0,0,1,2.292-.4,8.637,8.637,0,0,1,1.949.225,5.372,5.372,0,0,1,1.6.621l-.893,2a5.141,5.141,0,0,0-2.661-.719,2.612,2.612,0,0,0-1.288.251.742.742,0,0,0-.429.647.639.639,0,0,0,.463.631,8.006,8.006,0,0,0,1.477.342,15.087,15.087,0,0,1,1.855.423,2.774,2.774,0,0,1,1.253.819,2.391,2.391,0,0,1,.532,1.655,2.632,2.632,0,0,1-.515,1.6,3.29,3.29,0,0,1-1.5,1.089,6.423,6.423,0,0,1-2.344.387A8.566,8.566,0,0,1,2513.016,12658.713Z" fill="#fff"/>
      </g>
    </g>
    <circle id="Elipse_23" data-name="Elipse 23" cx="44.772" cy="44.772" r="44.772" transform="translate(2329.581 12549.844)" fill="#215968" stroke="#fff" stroke-width="4"/>
    <g id="Grupo_1040" data-name="Grupo 1040">
      <g id="Grupo_1039" data-name="Grupo 1039">
        <path id="Trazado_1779" data-name="Trazado 1779" d="M2346.179,12589.439v4.255h7.109v2.989h-7.109v5.864h-3.554v-16.1h11.606v2.99Z" fill="#fff"/>
        <path id="Trazado_1780" data-name="Trazado 1780" d="M2359.617,12601.744a7.815,7.815,0,0,1-3.006-2.979,8.921,8.921,0,0,1,0-8.532,7.815,7.815,0,0,1,3.006-2.979,9.114,9.114,0,0,1,8.611,0,7.913,7.913,0,0,1,3.006,2.979,8.843,8.843,0,0,1,0,8.532,7.913,7.913,0,0,1-3.006,2.979,9.114,9.114,0,0,1-8.611,0Zm6.768-2.749a4.6,4.6,0,0,0,1.723-1.829,6.007,6.007,0,0,0,0-5.336,4.6,4.6,0,0,0-1.723-1.828,4.928,4.928,0,0,0-4.914,0,4.6,4.6,0,0,0-1.722,1.828,6,6,0,0,0,0,5.336,4.592,4.592,0,0,0,1.722,1.829,4.928,4.928,0,0,0,4.914,0Z" fill="#fff"/>
        <path id="Trazado_1781" data-name="Trazado 1781" d="M2375.008,12586.449h6.976a9.428,9.428,0,0,1,4.421,1,7.269,7.269,0,0,1,2.984,2.817,8.95,8.95,0,0,1,0,8.465,7.273,7.273,0,0,1-2.984,2.816,9.428,9.428,0,0,1-4.421,1h-6.976Zm6.8,13.041a5.018,5.018,0,0,0,3.675-1.347,5.532,5.532,0,0,0,0-7.291,5.021,5.021,0,0,0-3.675-1.346h-3.247v9.983Z" fill="#fff"/>
        <path id="Trazado_1782" data-name="Trazado 1782" d="M2403.024,12599.1h-7.13l-1.36,3.45h-3.642l6.845-16.1h3.51l6.867,16.1h-3.729Zm-1.118-2.828-2.436-6.163-2.435,6.163Z" fill="#fff"/>
      </g>
    </g>
  </g>
</svg>
