<svg xmlns="http://www.w3.org/2000/svg" width="261.84" height="192.002" viewBox="0 0 261.84 192.002">
  <g id="Grupo_1030" data-name="Grupo 1030" transform="translate(-2242.611 -11903.308)">
    <path id="Trazado_1728" data-name="Trazado 1728" d="M2397.411,11903.309c.141.2.239.529.428.595a18.838,18.838,0,0,1,10.658,9.395,17.588,17.588,0,0,1,1.6,9.91c-.462,5.708-3.516,9.892-7.949,13.141a17.061,17.061,0,0,1-10.1,3.18c-5.039.055-10.078.014-15.117.017-1.66,0-1.6,0-1.6,1.67.022,6.879.01,13.757,0,20.636,0,1.653-.005,1.677,1.549,1.2.562-.173,1.067-.539,1.632-.686a4.984,4.984,0,0,1,1.325.011,2.987,2.987,0,0,1-.116,1.175c-1.517,2.6-3.09,5.169-4.637,7.752-.581.971-.373,1.341.647,1.737a9.659,9.659,0,0,1,2.272,1.285c4.616,3.473,9.2,6.993,13.807,10.474,4.162,3.143,8.375,6.22,12.5,9.409a26.309,26.309,0,0,1,2.474,2.726,1.882,1.882,0,0,0,1.133.626c4.438.037,8.877,0,13.316.023.977,0,1.245-.393.929-1.243a17.449,17.449,0,0,1-.762-1.741,6.128,6.128,0,0,1,.009-1.571,5.39,5.39,0,0,1,1.479.362c2.093,1.209,4.141,2.493,6.222,3.722a10.375,10.375,0,0,0,1.92.906c.781.266,1.057-.129,1.05-.922-.042-4.357.052-8.721-.1-13.074-.112-3.146,1.134-5.3,3.964-6.544a5.363,5.363,0,0,1,2.085-.407q30.176-.035,60.351-.017a6.26,6.26,0,0,1,5.375,3.059c.146.217.456.323.69.482v37.92a3.54,3.54,0,0,0-.665.629,6.367,6.367,0,0,1-5.748,3.254c-9.358,0-18.716,0-28.075-.032-.912,0-1.2.329-1.2,1.178.016,5.518.007,11.036.022,16.554a8.349,8.349,0,0,0,.226,1.281c.974-.374,1.778-.7,2.6-.989a3.784,3.784,0,0,1,1.258-.3c.755.01,1,.618.572,1.244-1.137,1.665-2.344,3.289-3.373,5.018a43.326,43.326,0,0,0-1.906,4.118c.686.042,1.032.082,1.379.082q14.337-.007,28.674-.019a5.94,5.94,0,0,1,4.864,2.151c.443.541.913,1.062,1.371,1.591v37.921c-.578.562-1.177,1.1-1.727,1.692-.416.445-.771.949-1.153,1.427h-66.48c-.141-.225-.23-.525-.431-.661a5.908,5.908,0,0,1-2.653-5.312c.052-4.917.054-9.834.1-14.751.008-.778-.277-1.075-1.05-1.071-3.559.018-7.119.011-10.678,0-.893,0-1.173.3-.746,1.167a14.252,14.252,0,0,1,.939,2.323,3.351,3.351,0,0,1-.131,1.229,4.873,4.873,0,0,1-1.126-.326c-2.775-1.606-5.528-3.253-8.3-4.86-.671-.388-.959-.012-.978.658a14.155,14.155,0,0,1-2.224,6.981,19.758,19.758,0,0,1-7.179,7.028c-3.139,1.8-6.537,2.2-10.027,2.207-11.558.028-23.117-.006-34.675.028a18.48,18.48,0,0,1-16.492-8.878,17.2,17.2,0,0,1-2.386-11.95c.837-6.417,4.551-10.826,9.969-13.9a17.29,17.29,0,0,1,8.57-1.913q17.937-.063,35.875,0a18.245,18.245,0,0,1,16.036,8.813,13.117,13.117,0,0,1,2.463,6.771,5.779,5.779,0,0,0,.186,1.062,3.231,3.231,0,0,0,.322.556c1.317-.643,2.692-1.211,3.96-1.96,1.707-1.007,3.318-2.175,5-3.217.265-.163.957-.147,1.031,0a1.674,1.674,0,0,1,.071,1.205c-.369,1.033-.845,2.026-1.361,3.226.629.07,1.042.155,1.456.156,3.36.009,6.72-.034,10.078.021,1.071.019,1.36-.332,1.342-1.386-.065-3.878.062-7.761-.062-11.637-.136-4.265,3.22-6.442,6.57-6.4,6.2.07,12.4.014,18.6.023,2.638,0,5.277.025,7.914.081.715.015.948-.3.633-.853-1.579-2.756-3.213-5.479-4.809-8.225a7,7,0,0,1-.421-1.123c.423-.119.89-.412,1.261-.32a22.8,22.8,0,0,1,2.2.889c.883.322,1.328.074,1.322-.971q-.041-8.216,0-16.434c0-.958-.4-1.216-1.306-1.213-8.319.029-16.638-.025-24.956.05a6.87,6.87,0,0,1-6.4-3.413,5.648,5.648,0,0,1-.551-2.77c-.036-4.879,0-9.758.03-14.636,0-1.054-.333-1.347-1.44-.849a41.5,41.5,0,0,0-4.414,2.327c-1.221.736-2.318,1.679-3.527,2.439-.335.211-.872.1-1.317.137a5.152,5.152,0,0,1-.018-1.471c.189-.679.61-1.29.833-1.963s-.043-1.034-.829-1.027q-6.538.042-13.077.028a1.653,1.653,0,0,0-1.626,1.04,10.577,10.577,0,0,1-2.7,3.109c-6.254,4.666-12.577,9.236-18.886,13.828q-4.1,2.985-8.241,5.924c-1.537,1.1-4.881,1.224-6.414.139-3.77-2.667-7.5-5.392-11.233-8.106-4.378-3.183-8.768-6.351-13.108-9.583-1.779-1.325-3.44-2.807-5.154-4.219-.093-.075-.232-.152-.252-.25-.4-1.891-1.868-1.552-3.186-1.55q-5.22.007-10.439,0c-1.462,0-1.623.242-1.032,1.609a10.521,10.521,0,0,1,.783,1.729,3.3,3.3,0,0,1-.277,1.3,5.506,5.506,0,0,1-1.168-.362c-2.752-1.573-5.487-3.177-8.233-4.762-.087-.051-.228-.007-.4-.007a1.379,1.379,0,0,0-.145.418c.02,4.56.067,9.117.072,13.677,0,4.6-2.629,7.236-7.207,7.236q-13.078,0-26.156-.023c-.914,0-1.372.124-1.362,1.221.054,5.52.024,11.038.03,16.556,0,.382.054.763.1,1.37,1.163-.45,2.132-.892,3.144-1.19a5.172,5.172,0,0,1,1.531.017,6.68,6.68,0,0,1-.455,1.324c-1.136,1.909-2.345,3.775-3.465,5.694-.525.9-.906,1.883-1.454,3.043.7.075,1.081.152,1.459.152q12.838-.006,25.676-.033c2.506-.01,4.641.784,5.767,3.088a9.277,9.277,0,0,1,.754,3.916c.057,10.078.028,20.156.026,30.235,0,.6-.007,1.2,0,1.8a6.088,6.088,0,0,1-2.545,5.022,3.426,3.426,0,0,0-.528.727h-66.48c-.379-.439-.744-.892-1.138-1.315-.57-.612-1.161-1.2-1.742-1.8v-38.16c.217-.129.524-.2.636-.394a5.953,5.953,0,0,1,5.441-3.106q14.754.009,29.509.087c.846,0,.918-.387.586-.956-1.6-2.741-3.239-5.459-4.843-8.2a4.706,4.706,0,0,1-.323-1.038c.433-.1.92-.372,1.287-.258,1.052.327,2.055.811,3.269,1.312a15.474,15.474,0,0,0,.178-1.548c.015-5.438,0-10.877.037-16.315.007-.943-.31-1.254-1.252-1.251-8.718.029-17.436-.007-26.154.045-2.6.016-4.76-.777-6.116-3.02a6.413,6.413,0,0,1-.85-3.152q-.087-16.5-.024-32.994a6.058,6.058,0,0,1,6.315-6.2c19.836,0,39.672.046,59.508-.031a6.606,6.606,0,0,1,6.812,6.641c.044,4.357.008,8.717.014,13.075,0,.5.053,1,.1,1.777a39.763,39.763,0,0,0,3.791-1.779c1.728-1.043,3.353-2.257,5.047-3.357a1.125,1.125,0,0,1,.966-.128,1.059,1.059,0,0,1,.323.914,10.066,10.066,0,0,1-.587,1.553c-.245.65-.473,1.306-.791,2.186.932,0,1.595,0,2.257,0,3.679.018,7.358.02,11.037.063.818.009,1.112-.349,1.594-1.026a18.207,18.207,0,0,1,3.618-3.736c4.179-3.259,8.454-6.393,12.7-9.569q6.746-5.054,13.5-10.09a2.668,2.668,0,0,1,1.177-.529c1.151-.147,1.078-.868.68-1.544-1.468-2.493-3.028-4.932-4.5-7.42-.274-.462-.611-1.26-.409-1.557.485-.717,1.143-.2,1.779.093a18.09,18.09,0,0,0,2.482.755,17.624,17.624,0,0,0,.3-2.282c.037-6.8.025-13.6.071-20.394.008-1.1-.625-1.114-1.4-1.113-5,0-10,.107-15-.047a21.535,21.535,0,0,1-6.572-1.083,18.623,18.623,0,0,1-8.5-6.539c-3.588-4.748-4.18-10.143-2.846-15.689a16.55,16.55,0,0,1,6.123-9.068,15.76,15.76,0,0,1,5.653-3.208c.18-.047.281-.392.418-.6Zm70.846,77.332c-9.718,0-19.436.041-29.154-.029-2.218-.017-3.52.9-3.5,3.5q.15,15.655.006,31.313c-.02,2.631,1.215,3.438,3.448,3.436q28.614-.034,57.228-.02c.56,0,1.12.025,1.679,0a2.983,2.983,0,0,0,3.083-3.217c0-10.478-.046-20.956.035-31.433a3.273,3.273,0,0,0-3.557-3.6C2487.773,11980.7,2478.015,11980.641,2468.257,11980.641Zm-188.074,0h-29.505c-2.253,0-3.09.863-3.089,3.143q.01,15.29.015,30.584c0,.679.039,1.357.023,2.037-.033,1.378.877,1.983,1.984,2.35a5.077,5.077,0,0,0,1.547.091q29.025.006,58.049.007c2.734,0,3.8-1.075,3.8-3.842q-.014-15.412,0-30.824c0-2.512-1.013-3.545-3.557-3.545ZM2278.609,12092v0c9.958,0,19.916-.033,29.874.027,2.08.012,2.97-1.009,2.961-2.942-.054-10.638-.024-21.275-.028-31.914,0-2.413-.636-3.014-3.1-3.013q-29.094.013-58.188.018c-.44,0-.88-.046-1.319-.031a2.568,2.568,0,0,0-2.8,2.732q0,15.958.009,31.914c0,2.521.683,3.2,3.2,3.2Q2263.912,12092.006,2278.609,12092Zm189.6,0v-.015c10.038,0,20.076-.02,30.113.024a2.388,2.388,0,0,0,2.4-1.409,4.77,4.77,0,0,0,.311-1.973c.019-10.437-.033-20.876.055-31.312a2.821,2.821,0,0,0-3.126-3.156c-4.719.034-9.438.024-14.157.021q-22.555-.013-45.111-.034c-2.4,0-3.053.668-3.052,3.061,0,10.518.027,21.036-.017,31.554-.009,2.148.405,3.3,3.186,3.272C2448.61,12091.951,2458.408,12092,2468.207,12092Zm-94.677-185.378v-.007c-6.079,0-12.158.055-18.236-.021a14.058,14.058,0,0,0-9.115,2.937,13.356,13.356,0,0,0-5.138,7.308c-1.032,4.247-.877,8.447,1.693,12.295,2.811,4.207,6.693,6.685,11.722,6.737,12.716.136,25.435.043,38.153.047a13.1,13.1,0,0,0,7.2-2.249,13.956,13.956,0,0,0,6.67-10.646,14.1,14.1,0,0,0-3.262-11.26,13.9,13.9,0,0,0-10.974-5.154C2386.009,11906.668,2379.769,11906.625,2373.53,11906.625Zm.069,179.682c5.919,0,11.837.013,17.756-.006,2.532-.007,5.087-.174,7.314-1.482,4.421-2.6,7.38-6.241,7.833-11.581a14.345,14.345,0,0,0-4.23-12.081c-3.158-3.107-7.062-4.2-11.35-4.21q-17.4-.029-34.791,0a15.78,15.78,0,0,0-8.3,1.913c-4.064,2.449-6.732,5.942-7.227,10.8a14.317,14.317,0,0,0,1.614,9.156,14.6,14.6,0,0,0,13.507,7.51C2361.681,12086.236,2367.641,12086.307,2373.6,12086.307Zm30.286-86.793a7.948,7.948,0,0,0-1.255-2.062c-1.559-1.356-3.24-2.574-4.891-3.82-3.4-2.566-6.82-5.109-10.223-7.675-4.005-3.018-7.993-6.059-12-9.07a3.743,3.743,0,0,0-3.967-.021c-1.416,1.032-2.8,2.108-4.2,3.164q-7.625,5.757-15.249,11.513c-2.6,1.967-5.228,3.908-7.791,5.925a3,3,0,0,0-.024,4.456c1.385,1.067,2.822,2.067,4.236,3.1q5.256,3.828,10.511,7.658c4.147,3.028,8.278,6.078,12.443,9.08a3.3,3.3,0,0,0,4.182-.069q6.812-4.941,13.614-9.893c4.118-3,8.22-6.028,12.337-9.032A4.473,4.473,0,0,0,2403.885,11999.514Z" fill="#023b5e"/>
    <path id="Trazado_1729" data-name="Trazado 1729" d="M2468.257,11980.641c9.758,0,19.516.058,29.273-.041a3.273,3.273,0,0,1,3.557,3.6c-.081,10.477-.036,20.955-.035,31.433a2.983,2.983,0,0,1-3.083,3.217c-.559.021-1.119,0-1.679,0q-28.614,0-57.228.02c-2.233,0-3.468-.8-3.448-3.436q.119-15.655-.006-31.312c-.025-2.6,1.277-3.518,3.5-3.5C2448.821,11980.682,2458.539,11980.641,2468.257,11980.641Z" fill="#fff"/>
    <path id="Trazado_1730" data-name="Trazado 1730" d="M2280.183,11980.641h29.264c2.544,0,3.558,1.033,3.557,3.545q-.01,15.413,0,30.824c0,2.767-1.065,3.843-3.8,3.842q-29.025-.01-58.049-.007a5.077,5.077,0,0,1-1.547-.091c-1.107-.366-2.017-.972-1.984-2.35.016-.68-.023-1.358-.023-2.037q-.009-15.293-.015-30.584c0-2.279.836-3.143,3.089-3.143Z" fill="#fff"/>
    <path id="Trazado_1731" data-name="Trazado 1731" d="M2278.609,12092q-14.7,0-29.394,0c-2.515,0-3.2-.681-3.2-3.2q-.011-15.957-.009-31.914a2.568,2.568,0,0,1,2.8-2.732c.439-.015.879.032,1.319.031q29.094-.006,58.188-.018c2.461,0,3.1.6,3.1,3.013,0,10.639-.026,21.276.028,31.914.009,1.934-.881,2.954-2.961,2.942-9.958-.061-19.916-.027-29.874-.027Z" fill="#fff"/>
    <path id="Trazado_1732" data-name="Trazado 1732" d="M2468.207,12092c-9.8,0-19.6-.052-29.394.033-2.781.023-3.2-1.124-3.186-3.272.044-10.518.021-21.036.017-31.554,0-2.393.649-3.062,3.052-3.061q22.555.015,45.111.034c4.719,0,9.438.013,14.157-.021a2.821,2.821,0,0,1,3.126,3.156c-.088,10.437-.036,20.876-.055,31.313a4.77,4.77,0,0,1-.311,1.973,2.388,2.388,0,0,1-2.4,1.409c-10.037-.044-20.075-.024-30.113-.024Z" fill="#fff"/>
    <path id="Trazado_1733" data-name="Trazado 1733" d="M2373.53,11906.625c6.239,0,12.479.043,18.717-.014a13.9,13.9,0,0,1,10.974,5.154,14.1,14.1,0,0,1,3.262,11.26,13.956,13.956,0,0,1-6.67,10.646,13.1,13.1,0,0,1-7.2,2.249c-12.718,0-25.437.089-38.153-.047-5.029-.053-8.911-2.53-11.722-6.737-2.57-3.848-2.725-8.048-1.693-12.295a13.356,13.356,0,0,1,5.138-7.308,14.058,14.058,0,0,1,9.115-2.937c6.078.076,12.157.021,18.236.021Z" fill="#fff"/>
    <path id="Trazado_1734" data-name="Trazado 1734" d="M2373.6,12086.307c-5.958,0-11.918-.07-17.875.021a14.6,14.6,0,0,1-13.507-7.51,14.317,14.317,0,0,1-1.614-9.156c.495-4.856,3.163-8.35,7.227-10.8a15.78,15.78,0,0,1,8.3-1.913q17.4-.035,34.791,0c4.288.007,8.192,1.1,11.35,4.21a14.345,14.345,0,0,1,4.23,12.081c-.453,5.34-3.412,8.983-7.833,11.581-2.227,1.309-4.782,1.476-7.314,1.482C2385.436,12086.319,2379.518,12086.307,2373.6,12086.307Z" fill="#fff"/>
    <path id="Trazado_1735" data-name="Trazado 1735" d="M2403.885,11999.514a4.473,4.473,0,0,1-2.277,3.252c-4.117,3-8.219,6.028-12.337,9.032q-6.8,4.957-13.614,9.893a3.3,3.3,0,0,1-4.182.069c-4.165-3-8.3-6.052-12.443-9.08q-5.251-3.833-10.511-7.658c-1.414-1.031-2.851-2.031-4.236-3.1a3,3,0,0,1,.024-4.456c2.563-2.017,5.187-3.958,7.791-5.925q7.621-5.76,15.249-11.513c1.4-1.056,2.781-2.132,4.2-3.164a3.743,3.743,0,0,1,3.967.021c4.01,3.012,8,6.053,12,9.07,3.4,2.565,6.822,5.108,10.223,7.675,1.651,1.246,3.332,2.464,4.891,3.82A7.948,7.948,0,0,1,2403.885,11999.514Z" fill="#fff"/>
  </g>
</svg>
