<svg xmlns="http://www.w3.org/2000/svg" width="38.497" height="38.497" viewBox="0 0 38.497 38.497">
  <g id="Grupo_3812" data-name="Grupo 3812" transform="translate(-568.897 -2051.936)">
    <path id="Trazado_2694" data-name="Trazado 2694" d="M585,2059.561a12.1,12.1,0,0,0-7.634,6.266h5.8A19.374,19.374,0,0,1,585,2059.561Z" fill="#dd474d"/>
    <path id="Trazado_2695" data-name="Trazado 2695" d="M590.265,2062.276c-.721-2.164-1.584-3.133-2.12-3.133s-1.4.969-2.119,3.133a21.888,21.888,0,0,0-.83,3.551h5.9A21.985,21.985,0,0,0,590.265,2062.276Z" fill="#dd474d"/>
    <path id="Trazado_2696" data-name="Trazado 2696" d="M598.927,2065.827a12.1,12.1,0,0,0-7.633-6.266,19.374,19.374,0,0,1,1.836,6.266Z" fill="#dd474d"/>
    <path id="Trazado_2697" data-name="Trazado 2697" d="M582.789,2071.185c0-1.122.047-2.246.141-3.343h-6.354a12.072,12.072,0,0,0,0,6.685h6.354C582.836,2073.43,582.789,2072.307,582.789,2071.185Z" fill="#dd474d"/>
    <path id="Trazado_2698" data-name="Trazado 2698" d="M584.8,2071.185c0,1.147.052,2.267.148,3.342h6.389c.1-1.075.148-2.2.148-3.342s-.051-2.268-.148-3.343h-6.389C584.855,2068.917,584.8,2070.038,584.8,2071.185Z" fill="#dd474d"/>
    <path id="Trazado_2699" data-name="Trazado 2699" d="M588.145,2051.936a19.249,19.249,0,1,0,19.249,19.249A19.249,19.249,0,0,0,588.145,2051.936Zm13.274,23.873a.949.949,0,0,1-.044.127,14.057,14.057,0,0,1-26.459,0,1.127,1.127,0,0,1-.045-.127,14.065,14.065,0,0,1,0-9.249,1.127,1.127,0,0,1,.045-.127,14.057,14.057,0,0,1,26.459,0,1.122,1.122,0,0,1,.044.127,14.048,14.048,0,0,1,0,9.249Z" fill="#dd474d"/>
    <path id="Trazado_2700" data-name="Trazado 2700" d="M593.361,2067.842c.094,1.1.142,2.221.142,3.343s-.048,2.245-.142,3.342h6.354a12.072,12.072,0,0,0,0-6.685Z" fill="#dd474d"/>
    <path id="Trazado_2701" data-name="Trazado 2701" d="M591.294,2082.808a12.1,12.1,0,0,0,7.633-6.266h-5.8A19.37,19.37,0,0,1,591.294,2082.808Z" fill="#dd474d"/>
    <path id="Trazado_2702" data-name="Trazado 2702" d="M577.363,2076.542a12.1,12.1,0,0,0,7.634,6.266,19.37,19.37,0,0,1-1.836-6.266Z" fill="#dd474d"/>
    <path id="Trazado_2703" data-name="Trazado 2703" d="M586.026,2080.093c.721,2.165,1.584,3.133,2.119,3.133s1.4-.968,2.12-3.133a21.954,21.954,0,0,0,.83-3.551h-5.9A21.858,21.858,0,0,0,586.026,2080.093Z" fill="#dd474d"/>
  </g>
</svg>
