<svg xmlns="http://www.w3.org/2000/svg" width="134.504" height="134.504" viewBox="0 0 134.504 134.504">
  <g id="Grupo_3869" data-name="Grupo 3869" transform="translate(-318.884 -8536.317)">
    <g id="Grupo_3842" data-name="Grupo 3842">
      <path id="Trazado_2902" data-name="Trazado 2902" d="M386.136,8536.317q3.3,0,6.591.322t6.529.97q3.24.645,6.4,1.6t6.214,2.224q3.053,1.266,5.966,2.822t5.661,3.394q2.746,1.834,5.3,3.931t4.89,4.432q2.337,2.338,4.432,4.891t3.932,5.3q1.835,2.748,3.393,5.661t2.822,5.966q1.263,3.053,2.223,6.214t1.6,6.4q.643,3.24.968,6.527t.324,6.593q0,3.3-.324,6.592t-.968,6.528q-.645,3.239-1.6,6.4t-2.223,6.214q-1.265,3.053-2.822,5.967t-3.393,5.66q-1.836,2.747-3.932,5.3t-4.432,4.89q-2.336,2.336-4.89,4.432t-5.3,3.933q-2.746,1.835-5.661,3.393t-5.966,2.821q-3.053,1.264-6.214,2.224t-6.4,1.6q-3.24.643-6.529.968t-6.591.324q-3.3,0-6.592-.324t-6.529-.968q-3.24-.646-6.4-1.6T360.4,8665.7q-3.052-1.263-5.966-2.821t-5.661-3.393q-2.746-1.837-5.3-3.933t-4.89-4.432q-2.336-2.335-4.432-4.89t-3.931-5.3q-1.836-2.747-3.393-5.66T324,8629.3q-1.264-3.053-2.224-6.214t-1.6-6.4q-.645-3.24-.969-6.528t-.323-6.592q0-3.3.323-6.593t.969-6.527q.644-3.242,1.6-6.4t2.224-6.214q1.265-3.051,2.822-5.966t3.393-5.661q1.835-2.747,3.931-5.3t4.432-4.891q2.337-2.335,4.89-4.432t5.3-3.931q2.748-1.837,5.661-3.394t5.966-2.822q3.053-1.264,6.214-2.224t6.4-1.6q3.241-.646,6.529-.97T386.136,8536.317Z" fill="#6595bf"/>
    </g>
    <circle id="Elipse_53" data-name="Elipse 53" cx="63.171" cy="63.171" r="63.171" transform="translate(322.964 8540.397)" fill="#fff"/>
    <g id="Grupo_3843" data-name="Grupo 3843">
      <circle id="Elipse_54" data-name="Elipse 54" cx="57.466" cy="57.466" r="57.466" transform="translate(328.121 8546.103)" fill="#aed3f2"/>
    </g>
    <g id="Grupo_3850" data-name="Grupo 3850">
      <line id="Línea_77" data-name="Línea 77" y2="35.024" transform="translate(385.464 8597.39)" fill="none" stroke="#344154" stroke-linecap="round" stroke-linejoin="round" stroke-width="3"/>
      <line id="Línea_78" data-name="Línea 78" y1="23.031" transform="translate(392.709 8609.383)" fill="none" stroke="#344154" stroke-linecap="round" stroke-linejoin="round" stroke-width="3"/>
      <line id="Línea_79" data-name="Línea 79" y2="6.334" transform="translate(399.954 8597.391)" fill="none" stroke="#344154" stroke-linecap="round" stroke-linejoin="round" stroke-width="3"/>
      <circle id="Elipse_60" data-name="Elipse 60" cx="6.819" cy="6.819" r="6.819" transform="translate(383.8 8573.755) rotate(-22.5)" fill="none" stroke="#344154" stroke-linecap="round" stroke-linejoin="round" stroke-width="3"/>
      <path id="Trazado_2909" data-name="Trazado 2909" d="M379.73,8604.378v-12.222a4.434,4.434,0,0,1,4.434-4.435h17.09a4.435,4.435,0,0,1,4.435,4.435v12.222" fill="none" stroke="#344154" stroke-linecap="round" stroke-linejoin="round" stroke-width="3"/>
      <line id="Línea_80" data-name="Línea 80" x2="9.309" transform="translate(385.464 8609.383)" fill="none" stroke="#344154" stroke-linecap="round" stroke-linejoin="round" stroke-width="3"/>
      <path id="Trazado_2910" data-name="Trazado 2910" d="M392.709,8636.511H382.69a4.148,4.148,0,0,1,4.149-4.148h5.87Z" fill="none" stroke="#344154" stroke-linecap="round" stroke-linejoin="round" stroke-width="3"/>
      <path id="Trazado_2911" data-name="Trazado 2911" d="M392.709,8636.511h10.019a4.148,4.148,0,0,0-4.149-4.148h-5.87Z" fill="none" stroke="#344154" stroke-linecap="round" stroke-linejoin="round" stroke-width="3"/>
      <path id="Trazado_2912" data-name="Trazado 2912" d="M410.233,8608.915h3.247l1.468,18.274H396.429l1.469-18.274h3.247" fill="none" stroke="#344154" stroke-linecap="round" stroke-linejoin="round" stroke-width="3"/>
      <path id="Trazado_2913" data-name="Trazado 2913" d="M401.693,8611.081a4.544,4.544,0,1,1,7.951.074" fill="none" stroke="#344154" stroke-linecap="round" stroke-linejoin="round" stroke-width="3"/>
      <path id="Trazado_2914" data-name="Trazado 2914" d="M401.693,8611.081a4.544,4.544,0,1,1,7.951.074" fill="none" stroke="#344154" stroke-linecap="round" stroke-linejoin="round" stroke-width="3"/>
      <line id="Línea_81" data-name="Línea 81" x2="3.99" transform="translate(403.694 8608.915)" fill="none" stroke="#344154" stroke-linecap="round" stroke-linejoin="round" stroke-width="3"/>
      <path id="Trazado_2915" data-name="Trazado 2915" d="M348.761,8581.715h22.308v31.772H348.761" fill="none" stroke="#344154" stroke-linecap="round" stroke-linejoin="round" stroke-width="3"/>
      <path id="Trazado_2916" data-name="Trazado 2916" d="M371.069,8581.715h8.25l-4.224-11.088H348.761" fill="none" stroke="#344154" stroke-linecap="round" stroke-linejoin="round" stroke-width="3"/>
      <path id="Trazado_2917" data-name="Trazado 2917" d="M348.761,8591.263H356.2v10.031h-7.436" fill="none" stroke="#344154" stroke-linecap="round" stroke-linejoin="round" stroke-width="3"/>
      <line id="Línea_82" data-name="Línea 82" x1="24.213" transform="translate(351.934 8623.574)" fill="none" stroke="#344154" stroke-linecap="round" stroke-linejoin="round" stroke-width="3"/>
      <line id="Línea_83" data-name="Línea 83" x1="6.991" transform="translate(369.155 8632.414)" fill="none" stroke="#344154" stroke-linecap="round" stroke-linejoin="round" stroke-width="3"/>
      <line id="Línea_84" data-name="Línea 84" x1="12.663" transform="translate(351.934 8632.414)" fill="none" stroke="#344154" stroke-linecap="round" stroke-linejoin="round" stroke-width="3"/>
      <path id="Trazado_2918" data-name="Trazado 2918" d="M411.516,8624.021l-.622-7.734h0a8.553,8.553,0,0,1-7.59,4.611h-.058a3.4,3.4,0,0,0-3.384,3.123h11.654Z" fill="#db9600"/>
    </g>
  </g>
</svg>
