<svg xmlns="http://www.w3.org/2000/svg" width="57.144" height="65.307" viewBox="0 0 57.144 65.307">
  <g id="Grupo_3839" data-name="Grupo 3839" transform="translate(-534.229 -6122.697)">
    <path id="Trazado_2896" data-name="Trazado 2896" d="M546.474,6122.7a4.094,4.094,0,0,0-4.082,4.081v57.144a4.1,4.1,0,0,0,4.082,4.082h40.817a4.094,4.094,0,0,0,4.082-4.082v-44.9L575.046,6122.7Z" fill="#f1f1f1"/>
    <path id="Rectángulo_1806" data-name="Rectángulo 1806" d="M2.041,0h44.9a2.041,2.041,0,0,1,2.041,2.041V22.45a2.04,2.04,0,0,1-2.04,2.04H2.041A2.041,2.041,0,0,1,0,22.449V2.041A2.041,2.041,0,0,1,2.041,0Z" transform="translate(534.229 6153.31)" fill="red" opacity="0.9"/>
    <path id="Trazado_2897" data-name="Trazado 2897" d="M556.252,6162.377v7.311h2.708c4.406,0,4.6-7.311,0-7.311Zm-1.021,9.3a1.02,1.02,0,0,1-1.121-.908c0-.038-.005-.075-.005-.112v-9.27a1.109,1.109,0,0,1,1.126-1.02h3.737c7.458,0,7.294,11.292.147,11.292Z" fill="#fff"/>
    <path id="Trazado_2898" data-name="Trazado 2898" d="M568.907,6162.514v2.594h4.161a1.261,1.261,0,0,1,1.176,1.157,1.136,1.136,0,0,1-1.176.98h-4.161v3.426a.966.966,0,0,1-.923,1.009.5.5,0,0,1-.054,0,1.037,1.037,0,0,1-1.151-.909c0-.033-.006-.067-.007-.1V6161.4a1.032,1.032,0,0,1,1.033-1.029,1.074,1.074,0,0,1,.125.008h5.728a1.021,1.021,0,0,1,1.136.891,1.116,1.116,0,0,1-1.135,1.24h-4.752Z" fill="#fff"/>
    <path id="Trazado_2899" data-name="Trazado 2899" d="M579.128,6139.024h12.245L575.046,6122.7v12.245A4.1,4.1,0,0,0,579.128,6139.024Z" fill="#b3b3b3"/>
    <path id="Trazado_2900" data-name="Trazado 2900" d="M544.545,6161.888v4.066h2.725a2.041,2.041,0,0,0,0-4.066Zm-2.153-.928a1.123,1.123,0,0,1,1.108-1.127h3.77a4.082,4.082,0,0,1,0,8.164h-2.723v2.155a1.019,1.019,0,0,1-.91,1.119.892.892,0,0,1-.135,0,1.1,1.1,0,0,1-1.108-1.091v-.033Z" fill="#fff"/>
  </g>
</svg>
